<svg width="50" height="51" viewBox="0 0 50 51" fill="none" xmlns="http://www.w3.org/2000/svg">
<g clip-path="url(#clip0_1_5206)">
<path d="M1.53337 36.2051C2.09421 36.366 2.91921 36.2793 3.33337 36.701C3.65671 37.531 3.81254 38.6168 4.29921 39.4235C4.91337 40.1851 5.05171 40.8401 4.27671 41.6001C2.68087 43.2576 4.62921 44.626 5.82254 45.7676C6.99837 47.2135 8.76421 46.521 9.99671 45.4801C11.2975 46.5835 14.0342 46.2093 13.9425 48.3201C14.07 48.9568 14.1709 49.571 14.8309 49.8718C17.5067 50.3285 21.4892 50.5618 21.3059 46.781C22.4466 46.4579 23.5491 46.0126 24.5942 45.4526C26.5025 47.441 28.7734 46.4526 30.185 44.4843C31.0792 43.591 31.775 42.8993 30.9417 41.6493C29.2142 40.0476 31.5025 38.3426 31.6784 36.4485C32.9942 36.2426 34.6567 35.9968 34.77 34.5001C34.6117 33.036 35.4467 30.7001 33.6775 30.036C32.0734 29.946 31.4384 29.8118 31.2442 28.0376C30.6259 26.3126 29.5092 25.7101 31.0642 24.0843C32.06 22.7043 30.3534 21.6576 29.5 20.7543C28.3609 18.9826 26.4275 19.4743 25.0025 20.7185C23.7017 19.6143 20.965 19.9893 21.0567 17.8785C20.9292 17.2418 20.8284 16.6276 20.1684 16.3268C17.4925 15.8701 13.5092 15.6368 13.6934 19.4176C12.5475 19.7435 11.4525 20.1843 10.405 20.746C8.49671 18.7576 6.22587 19.746 4.81421 21.7143C3.92004 22.6076 3.22421 23.2993 4.05754 24.5493C5.78587 26.1518 3.49587 27.8568 3.32004 29.7518C1.95421 29.9693 0.285039 30.2201 0.228372 31.8251C0.370872 33.2985 -0.459961 35.7893 1.53337 36.2051ZM1.55587 30.821C1.85004 30.1968 3.10171 30.216 3.74171 30.0876C5.22421 29.4543 5.02671 26.8393 6.16754 25.5801C5.00004 24.2343 4.19587 22.6376 6.04671 21.4843C6.47587 21.0551 7.16504 19.9276 7.84171 20.2176C8.76837 20.5276 9.55254 21.9643 10.6034 21.1835C11.8859 20.256 13.5359 20.0493 14.8592 19.3493C15.2317 17.4635 14.9417 16.316 17.3109 16.681C19.75 16.1851 19.785 17.971 20.2384 19.6901C21.6647 20.0451 23.0299 20.6116 24.2884 21.371C25.3634 21.7885 26.3492 19.8026 27.3409 20.1935C29.5267 22.1651 31.3167 23.1643 28.8309 25.9043C31.4984 34.0726 34.0925 27.0426 33.5625 34.8735C33.5042 35.4176 33.3825 35.6193 32.9359 35.7776C29.4367 35.9518 30.5317 38.226 28.8309 40.621C29.9984 41.9668 30.8025 43.5635 28.9517 44.7168C28.5225 45.146 27.8334 46.2735 27.1567 45.9835C26.23 45.6735 25.4459 44.2368 24.395 45.0176C23.1125 45.9451 21.4634 46.1518 20.1392 46.8518C19.7667 48.7376 20.0567 49.8851 17.6875 49.5201C15.2484 50.016 15.2134 48.2301 14.76 46.511C13.3337 46.156 11.9686 45.5894 10.71 44.8301C9.63504 44.4126 8.64921 46.3985 7.65754 46.0076C5.47171 44.036 3.68171 43.0368 6.16754 40.2968C5.29671 39.0176 4.92504 37.446 4.35004 36.1018C0.592539 35.986 1.28337 33.731 1.55587 30.821Z" fill="#DCFD68"/>
<path d="M19.6142 44.1402C30.7026 42.386 32.1759 25.8418 21.3542 22.4543C2.91591 17.3518 0.416745 46.6335 19.6142 44.1402ZM8.67341 27.7702C13.6017 18.681 27.9917 23.0318 27.7226 33.1526C26.5967 50.7868 0.942579 43.2318 8.67341 27.7702ZM49.0701 9.49848C47.9626 9.52681 47.7251 9.11431 47.5401 8.04348C46.8776 7.10348 46.7851 6.74598 47.6059 5.89098C47.9642 4.10765 45.1367 2.31931 43.7276 3.83015C42.7792 3.21348 41.4609 3.44348 41.4926 1.99015C41.2492 1.15181 40.5917 1.18181 39.8451 1.18181C38.3259 0.987647 36.6017 1.34015 36.6551 3.20515C36.0901 3.38015 35.5459 3.59265 35.0184 3.85431C33.8859 2.74265 32.4134 3.28265 31.5476 4.40515C31.0051 4.94765 30.3567 5.38348 30.7551 6.21181C32.0301 7.27515 30.6234 8.12848 30.4467 9.37431C29.1867 9.44681 28.3084 10.1918 28.5626 11.4993C28.5626 12.2535 28.3926 13.0676 29.2617 13.3701C30.5817 13.4793 30.4684 13.8418 30.8592 14.9785C31.7959 16.1035 31.0634 16.2051 30.6134 17.2252C30.8184 18.8793 33.1517 20.4785 34.6059 19.0393C35.5542 19.6552 36.8709 19.426 36.8392 20.8785C37.0826 21.7176 37.7401 21.6868 38.4867 21.6868C40.0059 21.881 41.7301 21.5285 41.6767 19.6643C42.2417 19.4893 42.7859 19.2768 43.3134 19.0152C44.4459 20.1268 45.9184 19.5868 46.7842 18.4643C47.3267 17.9218 47.9751 17.486 47.5767 16.6576C46.3026 15.5951 47.7067 14.7426 47.8843 13.4976C50.0243 13.641 50.5676 10.4535 49.0692 9.49931L49.0701 9.49848ZM33.1651 3.79598C33.1984 3.78931 33.3476 3.60931 33.1651 3.79598V3.79598ZM45.1667 19.0718C44.9834 19.2585 45.1334 19.0785 45.1667 19.0718V19.0718ZM48.5626 12.2993C48.6126 12.4518 48.4409 12.8176 48.5759 12.8776C46.0309 13.2443 46.8742 14.1151 45.7234 16.011C47.0109 17.2776 46.3217 18.091 45.1701 19.0685C43.8568 17.561 42.5376 19.1226 41.0551 19.4268C40.3801 19.4635 40.2934 20.4043 40.2734 20.9135C40.3342 21.256 40.6692 21.0943 40.2592 21.1818C39.5317 21.1126 38.4259 21.5152 38.0692 20.6643C38.1142 18.9618 36.4526 19.1901 35.3192 18.3876C34.5734 18.1126 34.0542 18.846 33.4142 19.2052C33.4009 19.0568 33.0551 18.6701 33.1109 18.7451C31.8509 17.6393 31.3926 17.1068 32.6084 15.6868C30.9326 10.6168 29.4709 15.2493 29.7584 9.97265C32.0742 9.82598 31.6284 8.52431 32.6084 6.85681C31.3209 5.59015 32.0101 4.77681 33.1617 3.79931C34.4751 5.30598 35.7942 3.74515 37.2767 3.44098C37.9517 3.40431 38.0384 2.46348 38.0584 1.95431C37.9976 1.61181 37.6626 1.77348 38.0726 1.68598C38.8001 1.75515 39.9051 1.35265 40.2626 2.20348C40.2176 3.90598 41.8792 3.67765 43.0126 4.48015C43.7584 4.75515 44.2776 4.02181 44.9176 3.66265C44.9309 3.81098 45.2767 4.19765 45.2209 4.12265C46.4809 5.22848 46.9392 5.76098 45.7234 7.18098C46.9984 11.5451 48.9851 8.46681 48.5626 12.2993Z" fill="#DCFD68"/>
<path d="M44.7695 11.2718C44.3861 2.33265 29.8653 6.52515 34.3445 14.2876C37.0828 18.8501 44.9053 16.581 44.7695 11.2718ZM40.6578 15.8751C33.6736 17.9635 32.6803 5.48348 40.0186 6.91348C44.2461 7.86265 44.807 14.4118 40.6578 15.8751ZM13.1053 37.2001L13.3511 34.1793H14.9453C15.1378 35.1801 14.7986 39.0943 16.437 37.106C15.7836 35.2985 16.8836 28.2168 14.5703 28.5627C12.9103 28.2918 12.3045 29.0576 12.4378 30.6543C12.6795 31.806 10.7278 39.436 13.1053 37.201V37.2001ZM14.1536 29.3051C14.2928 29.3051 14.4353 29.3102 14.5753 29.3051C14.5453 29.3051 14.5186 29.3068 14.5195 29.3051C14.627 30.7351 14.787 32.2335 14.902 33.6885H13.3911C13.5095 32.2276 13.6303 30.766 13.7478 29.3051H14.1536ZM19.1145 29.3827H20.2295V36.996C19.6978 37.0201 19.032 36.8785 18.6153 37.296C18.9928 37.9176 20.9728 37.3543 21.832 37.5376C24.0711 37.376 22.872 36.791 21.4361 36.996V29.3827C22.1662 29.6377 24.107 28.8993 22.5511 28.4835C21.8978 28.4593 16.8761 28.261 19.1145 29.3827Z" fill="#DCFD68"/>
</g>
<defs>
<clipPath id="clip0_1_5206">
<rect width="50" height="50" fill="white" transform="translate(0 0.600098)"/>
</clipPath>
</defs>
</svg>
