<svg width="89" height="32" viewBox="0 0 89 32" fill="none" xmlns="http://www.w3.org/2000/svg">
<g clip-path="url(#clip0_1_6347)">
<path d="M16.5609 17.2431C19.3581 18.6027 22.2463 19.2799 24.6867 19.1465C24.7015 19.1465 24.7162 19.1439 24.731 19.1439L24.9057 1.05696C24.913 0.418238 24.2267 0.0334631 23.7199 0.390021L9.12891 10.6532C10.3098 13.0004 13.0405 15.5296 16.5609 17.2431Z" fill="#FD6219"/>
<path d="M24.0791 20.8805C21.5329 20.8805 18.6472 20.152 15.8648 18.8001C12.027 16.9353 9.14125 14.2726 7.75375 11.6177L0.336477 16.8378C-0.244112 17.2456 -0.0325412 18.1845 0.658753 18.282L13.1168 20.0494C13.8499 20.1545 14.5215 20.5316 15.0086 21.1113L23.287 30.9795C23.747 31.5285 24.613 31.195 24.6203 30.4639L24.7138 20.8625C24.5047 20.8753 24.2931 20.8805 24.0791 20.8805Z" fill="#FD6219"/>
<path d="M24.0792 19.5108C21.5329 19.5108 18.6472 18.7823 15.8648 17.4305C9.3209 14.2497 5.53723 8.75509 7.25194 4.92017C8.96664 1.08782 15.4368 0.57735 21.9807 3.76072C24.121 4.80217 26.062 6.15145 27.5922 7.6649C27.9219 7.99067 27.9366 8.53705 27.6242 8.88078C27.3093 9.22452 26.7878 9.23991 26.4581 8.91413C25.0558 7.52638 23.2673 6.28484 21.2845 5.32034C15.7664 2.63718 10.0245 2.78852 8.74523 5.64868C7.46597 8.50884 11.0454 13.1903 16.561 15.8734C19.3582 17.233 22.2439 17.9102 24.6868 17.7768C26.9428 17.6536 28.5074 16.861 29.0978 15.5451C29.7104 14.1727 29.1175 12.608 28.5123 11.5332C28.2811 11.1227 28.4114 10.5969 28.8051 10.3558C29.1987 10.1146 29.703 10.2506 29.9343 10.661C31.0758 12.6798 31.3095 14.6729 30.5936 16.271C29.735 18.1898 27.6685 19.3338 24.7754 19.4929C24.5441 19.5057 24.3129 19.5108 24.0792 19.5108Z" fill="#FD6219"/>
</g>
<path d="M49.91 26.6415C47.69 26.6415 45.86 26.0615 44.42 24.9015C43 23.7415 42.14 22.2015 41.84 20.2815L45.62 19.3515C45.84 20.6315 46.34 21.5915 47.12 22.2315C47.92 22.8715 48.9 23.1915 50.06 23.1915C50.68 23.1915 51.23 23.0915 51.71 22.8915C52.21 22.6715 52.6 22.3615 52.88 21.9615C53.18 21.5415 53.33 21.0515 53.33 20.4915C53.33 19.9715 53.18 19.5215 52.88 19.1415C52.58 18.7615 52.12 18.4115 51.5 18.0915C50.9 17.7715 50.14 17.4415 49.22 17.1015C47.9 16.5815 46.79 16.0315 45.89 15.4515C45.01 14.8515 44.35 14.1615 43.91 13.3815C43.47 12.6015 43.25 11.6815 43.25 10.6215C43.25 9.50146 43.52 8.51146 44.06 7.65146C44.62 6.79146 45.39 6.11146 46.37 5.61146C47.37 5.11146 48.53 4.86146 49.85 4.86146C51.25 4.86146 52.49 5.19146 53.57 5.85146C54.67 6.49146 55.55 7.45146 56.21 8.73146L53.12 10.6215C52.7 9.86146 52.2 9.29146 51.62 8.91146C51.06 8.51146 50.43 8.31146 49.73 8.31146C49.23 8.31146 48.78 8.41146 48.38 8.61146C48 8.79146 47.69 9.05146 47.45 9.39146C47.23 9.71146 47.12 10.0915 47.12 10.5315C47.12 10.9915 47.25 11.4015 47.51 11.7615C47.79 12.1215 48.23 12.4715 48.83 12.8115C49.45 13.1315 50.25 13.4715 51.23 13.8315C52.53 14.3115 53.61 14.8415 54.47 15.4215C55.35 16.0015 56.02 16.6815 56.48 17.4615C56.94 18.2215 57.17 19.1515 57.17 20.2515C57.17 21.4915 56.86 22.6015 56.24 23.5815C55.64 24.5415 54.8 25.2915 53.72 25.8315C52.64 26.3715 51.37 26.6415 49.91 26.6415ZM64.9641 26.5515C64.1641 26.5515 63.4241 26.4015 62.7441 26.1015C62.0641 25.8015 61.5141 25.3115 61.0941 24.6315C60.6941 23.9515 60.4941 23.0415 60.4941 21.9015V8.01146L64.2741 6.00146V20.8815C64.2741 21.7415 64.3841 22.3915 64.6041 22.8315C64.8441 23.2715 65.3041 23.4915 65.9841 23.4915C66.1841 23.4915 66.4041 23.4715 66.6441 23.4315C66.9041 23.3915 67.1841 23.3315 67.4841 23.2515V26.1015C67.0641 26.2615 66.6441 26.3715 66.2241 26.4315C65.8041 26.5115 65.3841 26.5515 64.9641 26.5515ZM57.7941 14.3715V11.4615H67.4841V14.3715H57.7941ZM70.3098 26.2515V11.4615H74.0298V26.2515H70.3098ZM70.1898 9.18146V5.34146H74.1798V9.18146H70.1898ZM77.6933 26.2515V11.4615H81.4433V15.4815L80.8733 15.5415C80.9333 14.6815 81.1933 13.9215 81.6533 13.2615C82.1133 12.6015 82.6733 12.0915 83.3333 11.7315C84.0133 11.3515 84.7033 11.1615 85.4033 11.1615C85.9033 11.1615 86.3733 11.2315 86.8133 11.3715C87.2733 11.4915 87.7433 11.7015 88.2233 12.0015L86.4233 15.3615C86.2033 15.2415 85.9233 15.1315 85.5833 15.0315C85.2433 14.9315 84.9033 14.8815 84.5633 14.8815C84.1633 14.8815 83.7733 14.9515 83.3933 15.0915C83.0333 15.2315 82.7033 15.4515 82.4033 15.7515C82.1233 16.0515 81.8933 16.4515 81.7133 16.9515C81.6333 17.2315 81.5633 17.5915 81.5033 18.0315C81.4633 18.4515 81.4433 19.0715 81.4433 19.8915V26.2515H77.6933Z" fill="#030303"/>
<defs>
<clipPath id="clip0_1_6347">
<rect width="31" height="31" fill="white" transform="translate(0 0.251465)"/>
</clipPath>
</defs>
</svg>
