<svg width="50" height="50" viewBox="0 0 50 50" fill="none" xmlns="http://www.w3.org/2000/svg">
<path d="M10.1563 11.7188C10.1563 11.2552 10.0188 10.8021 9.76126 10.4166C9.50372 10.0312 9.13768 9.7308 8.70941 9.55341C8.28115 9.37602 7.8099 9.3296 7.35526 9.42003C6.90062 9.51047 6.483 9.73369 6.15522 10.0615C5.82744 10.3892 5.60422 10.8069 5.51379 11.2615C5.42335 11.7162 5.46977 12.1874 5.64716 12.6157C5.82455 13.0439 6.12496 13.41 6.51038 13.6675C6.89581 13.925 7.34895 14.0625 7.8125 14.0625C8.4341 14.0625 9.03024 13.8156 9.46978 13.376C9.90932 12.9365 10.1563 12.3404 10.1563 11.7188ZM7.03125 11.7188C7.03125 11.5642 7.07707 11.4132 7.16292 11.2847C7.24876 11.1562 7.37077 11.0561 7.51353 10.997C7.65628 10.9378 7.81337 10.9224 7.96492 10.9525C8.11646 10.9827 8.25567 11.0571 8.36493 11.1663C8.47419 11.2756 8.54859 11.4148 8.57874 11.5663C8.60888 11.7179 8.59341 11.875 8.53428 12.0177C8.47515 12.1605 8.37502 12.2825 8.24654 12.3683C8.11806 12.4542 7.96702 12.5 7.8125 12.5C7.6053 12.5 7.40659 12.4177 7.26007 12.2712C7.11356 12.1247 7.03125 11.926 7.03125 11.7188ZM41.4062 7.03125C41.4062 6.5677 41.2688 6.11456 41.0113 5.72913C40.7537 5.34371 40.3877 5.0433 39.9594 4.86591C39.5311 4.68852 39.0599 4.6421 38.6053 4.73254C38.1506 4.82297 37.733 5.04619 37.4052 5.37397C37.0774 5.70175 36.8542 6.11937 36.7638 6.57401C36.6733 7.02865 36.7198 7.4999 36.8972 7.92816C37.0746 8.35643 37.375 8.72247 37.7604 8.98001C38.1458 9.23754 38.5989 9.375 39.0625 9.375C39.6841 9.375 40.2802 9.12807 40.7198 8.68853C41.1593 8.24899 41.4062 7.65285 41.4062 7.03125ZM38.2812 7.03125C38.2812 6.87673 38.3271 6.72569 38.4129 6.59721C38.4988 6.46874 38.6208 6.3686 38.7635 6.30947C38.9063 6.25034 39.0634 6.23487 39.2149 6.26501C39.3665 6.29516 39.5057 6.36956 39.6149 6.47882C39.7242 6.58808 39.7986 6.72729 39.8287 6.87884C39.8589 7.03038 39.8434 7.18747 39.7843 7.33022C39.7251 7.47298 39.625 7.59499 39.4965 7.68084C39.3681 7.76668 39.217 7.8125 39.0625 7.8125C38.8553 7.8125 38.6566 7.73019 38.5101 7.58368C38.3636 7.43717 38.2812 7.23845 38.2812 7.03125ZM25 27.3438C25 26.8802 24.8625 26.4271 24.605 26.0416C24.3475 25.6562 23.9814 25.3558 23.5532 25.1784C23.1249 25.001 22.6537 24.9546 22.199 25.045C21.7444 25.1355 21.3267 25.3587 20.999 25.6865C20.6712 26.0142 20.448 26.4319 20.3575 26.8865C20.2671 27.3412 20.3135 27.8124 20.4909 28.2407C20.6683 28.6689 20.9687 29.035 21.3541 29.2925C21.7396 29.55 22.1927 29.6875 22.6563 29.6875C23.2779 29.6875 23.874 29.4406 24.3135 29.001C24.7531 28.5615 25 27.9654 25 27.3438ZM21.875 27.3438C21.875 27.1892 21.9208 27.0382 22.0067 26.9097C22.0925 26.7812 22.2145 26.6811 22.3573 26.622C22.5 26.5628 22.6571 26.5474 22.8087 26.5775C22.9602 26.6077 23.0994 26.6821 23.2087 26.7913C23.3179 26.9006 23.3923 27.0398 23.4225 27.1913C23.4526 27.3429 23.4372 27.5 23.378 27.6427C23.3189 27.7855 23.2188 27.9075 23.0903 27.9933C22.9618 28.0792 22.8108 28.125 22.6563 28.125C22.4491 28.125 22.2503 28.0427 22.1038 27.8962C21.9573 27.7497 21.875 27.551 21.875 27.3438Z" fill="#4A5FE1"/>
<path d="M42.7035 11.6562C43.6879 10.1796 44.5317 8.49211 44.5317 7.03117C44.5293 5.76277 44.0862 4.53462 43.278 3.55699C42.4699 2.57935 41.3471 1.91303 40.1017 1.67209C38.8564 1.43115 37.5661 1.63058 36.4516 2.23624C35.3372 2.8419 34.4679 3.81611 33.9926 4.99211C30.336 3.40412 26.3239 2.81335 22.3648 3.27994C18.4056 3.74652 14.6408 5.25381 11.4535 7.64836C10.6682 6.94271 9.69503 6.4799 8.652 6.31599C7.60898 6.15207 6.5408 6.29408 5.57683 6.7248C4.61286 7.15553 3.79444 7.85651 3.22069 8.74284C2.64695 9.62918 2.34248 10.6628 2.34417 11.7187C2.34417 13.2499 3.26605 15.0234 4.31292 16.539C2.66939 20.2113 2.0332 24.2549 2.46972 28.2544C2.90624 32.2539 4.39974 36.0651 6.79675 39.2964C9.19376 42.5277 12.4079 45.0625 16.1088 46.6404C19.8097 48.2184 23.864 48.7825 27.8552 48.2749C31.8463 47.7672 35.6303 46.2062 38.8184 43.752C42.0065 41.2979 44.4837 38.0392 45.9956 34.3108C47.5074 30.5824 47.9993 26.5187 47.4207 22.5372C46.8422 18.5557 45.214 14.8001 42.7035 11.6562ZM39.0629 3.12492C40.0989 3.12492 41.0925 3.53647 41.8251 4.26903C42.5576 5.0016 42.9692 5.99517 42.9692 7.03117C42.9692 9.03898 40.5082 12.1327 39.0629 13.7109C37.6176 12.1327 35.1567 9.03898 35.1567 7.03117C35.1567 5.99517 35.5682 5.0016 36.3008 4.26903C37.0334 3.53647 38.0269 3.12492 39.0629 3.12492ZM3.90667 11.7187C3.90667 10.6827 4.31822 9.6891 5.05079 8.95653C5.78335 8.22397 6.77692 7.81242 7.81292 7.81242C8.84892 7.81242 9.84249 8.22397 10.5751 8.95653C11.3076 9.6891 11.7192 10.6827 11.7192 11.7187C11.7192 13.7265 9.25823 16.8202 7.81292 18.3984C6.36761 16.8202 3.90667 13.7265 3.90667 11.7187ZM3.90667 25.7812C3.89926 23.1131 4.40589 20.4685 5.39886 17.9921C6.28167 19.0859 7.06292 19.8905 7.25823 20.0859C7.40633 20.2311 7.60549 20.3125 7.81292 20.3125C8.02035 20.3125 8.21951 20.2311 8.36761 20.0859C8.86761 19.578 13.2817 15.0702 13.2817 11.7187C13.2809 10.7027 12.9968 9.70709 12.4614 8.84367C12.5707 8.75773 12.6879 8.67961 12.8051 8.59367H15.3051L17.1879 10.4765V12.9609L14.2895 15.8515C14.1456 16.0005 14.0645 16.1991 14.0629 16.4062V19.2109L11.3989 21.8749H9.37542C9.16822 21.8749 8.96951 21.9572 8.82299 22.1037C8.67648 22.2503 8.59417 22.449 8.59417 22.6562V24.9999C8.59571 25.207 8.67683 25.4056 8.82073 25.5546L12.5004 29.2265V30.9296L10.3832 33.039C10.2393 33.188 10.1582 33.3865 10.1567 33.5937V35.6171L7.7973 37.9687C5.26365 34.4101 3.90357 30.1496 3.90667 25.7812ZM25.0004 43.7499V46.8749C24.477 46.8749 23.9535 46.8515 23.4379 46.8124V41.4062C23.4364 41.1991 23.3553 41.0005 23.2114 40.8515L21.8754 39.5234V36.7187C21.8754 36.5115 21.7931 36.3128 21.6466 36.1662C21.5001 36.0197 21.3014 35.9374 21.0942 35.9374H18.2895L17.1879 34.8359V33.1327L18.7582 31.5624C19.7315 33.0534 20.8516 34.4432 22.102 35.7109C22.2501 35.8561 22.4492 35.9375 22.6567 35.9375C22.8641 35.9375 23.0633 35.8561 23.2114 35.7109C24.4617 34.4432 25.5819 33.0534 26.5551 31.5624L28.9067 33.914V36.3984L27.5707 37.7265C27.4268 37.8755 27.3457 38.0741 27.3442 38.2812V41.0859L25.227 43.1952C25.0831 43.3442 25.002 43.5428 25.0004 43.7499ZM27.1176 20.539L25.7817 19.2109V18.7499H28.9067V22.3359L27.8051 23.4374H27.3442V21.0937C27.3426 20.8866 27.2615 20.688 27.1176 20.539ZM26.5629 27.3437C26.5629 29.3515 24.102 32.4452 22.6567 34.0234C21.2114 32.4452 18.7504 29.3515 18.7504 27.3437C18.7504 26.3077 19.162 25.3141 19.8945 24.5815C20.6271 23.849 21.6207 23.4374 22.6567 23.4374C23.6927 23.4374 24.6862 23.849 25.4188 24.5815C26.1514 25.3141 26.5629 26.3077 26.5629 27.3437ZM38.2817 42.1562C34.9443 44.8715 30.8538 46.4968 26.5629 46.8124V44.0702L28.6801 41.9609C28.824 41.8119 28.9051 41.6133 28.9067 41.4062V38.6015L30.2426 37.2734C30.3865 37.1244 30.4676 36.9258 30.4692 36.7187V33.5937C30.4676 33.3865 30.3865 33.188 30.2426 33.039L27.352 30.1484C27.8123 29.2815 28.0764 28.324 28.1254 27.3437C28.125 26.5317 27.9407 25.7305 27.5864 24.9999H28.1254C28.3325 24.9984 28.5311 24.9173 28.6801 24.7734L30.2426 23.2109C30.3865 23.0619 30.4676 22.8633 30.4692 22.6562V17.9687C30.4692 17.7615 30.3869 17.5628 30.2403 17.4162C30.0938 17.2697 29.8951 17.1874 29.6879 17.1874H25.0004C24.7932 17.1874 24.5945 17.2697 24.448 17.4162C24.3015 17.5628 24.2192 17.7615 24.2192 17.9687V19.5312C24.2207 19.7383 24.3018 19.9369 24.4457 20.0859L25.7817 21.414V22.8593C24.9619 22.2885 24.0014 21.9531 23.0045 21.8896C22.0076 21.826 21.0123 22.0368 20.1267 22.4989C19.2411 22.961 18.499 23.6569 17.9809 24.511C17.4628 25.3651 17.1886 26.3447 17.1879 27.3437C17.237 28.324 17.501 29.2815 17.9614 30.1484L15.852 32.2577C15.7081 32.4067 15.627 32.6053 15.6254 32.8124V35.1562C15.627 35.3633 15.7081 35.5619 15.852 35.7109L17.4145 37.2734C17.5635 37.4173 17.7621 37.4984 17.9692 37.4999H20.3129V39.8437C20.3145 40.0508 20.3956 40.2494 20.5395 40.3984L21.8754 41.7265V46.6405C16.7395 45.8679 12.0691 43.228 8.75823 39.2265L11.4926 36.4921C11.6365 36.3431 11.7176 36.1445 11.7192 35.9374V33.914L13.8364 31.8046C13.9803 31.6556 14.0614 31.457 14.0629 31.2499V28.9062C14.0614 28.699 13.9803 28.5005 13.8364 28.3515L10.1567 24.6796V23.4374H11.7192C11.9263 23.4359 12.1249 23.3548 12.2739 23.2109L15.3989 20.0859C15.5428 19.9369 15.6239 19.7383 15.6254 19.5312V16.7265L18.5239 13.8359C18.6678 13.6869 18.7489 13.4883 18.7504 13.2812V10.1562C18.7489 9.94905 18.6678 9.75045 18.5239 9.60148L16.1801 7.25773C16.0311 7.11383 15.8325 7.03271 15.6254 7.03117H15.3598C17.3998 5.97348 19.6019 5.26323 21.8754 4.92961V10.1562C21.877 10.3633 21.9581 10.5619 22.102 10.7109L25.227 13.8359C25.376 13.9798 25.5746 14.0609 25.7817 14.0624H29.3676L32.8129 17.5077V21.5546L31.477 22.8827C31.3331 23.0317 31.252 23.2303 31.2504 23.4374V26.5624C31.252 26.7695 31.3331 26.9681 31.477 27.1171L34.3754 30.0077V33.5937C34.377 33.8008 34.4581 33.9994 34.602 34.1484L38.2817 37.8202V42.1562ZM39.8442 40.7499V37.4999C39.8426 37.2928 39.7615 37.0942 39.6176 36.9452L35.9379 33.2734V29.6874C35.9364 29.4803 35.8553 29.2817 35.7114 29.1327L32.8129 26.2421V23.7577L34.1489 22.4296C34.2928 22.2806 34.3739 22.082 34.3754 21.8749V17.1874C34.3739 16.9803 34.2928 16.7817 34.1489 16.6327L30.2426 12.7265C30.0936 12.5826 29.895 12.5015 29.6879 12.4999H26.102L23.4379 9.83586V4.74992C23.9535 4.71086 24.477 4.68742 25.0004 4.68742C27.9713 4.68193 30.9091 5.31052 33.6176 6.53117C33.602 6.69523 33.5942 6.85929 33.5942 7.03117C33.5942 10.3827 38.0082 14.8905 38.5082 15.3984C38.6563 15.5436 38.8555 15.625 39.0629 15.625C39.2704 15.625 39.4695 15.5436 39.6176 15.3984C40.367 14.6303 41.0738 13.8218 41.7348 12.9765C44.8607 17.0401 46.3938 22.106 46.0456 27.221C45.6974 32.336 43.4919 37.1474 39.8442 40.7499Z" fill="#4A5FE1"/>
</svg>
