<svg width="100" height="71" viewBox="0 0 100 71" fill="none" xmlns="http://www.w3.org/2000/svg">
<g clip-path="url(#clip0_1_2273)">
<path d="M81.4636 25.1688C83.6391 19.682 87.0762 14.2483 91.6788 9.0198C92.3911 8.22049 92.8221 7.20991 92.9058 6.14256C92.9895 5.0752 92.7214 4.00979 92.1424 3.10921C91.5814 2.21396 90.7421 1.5276 89.7533 1.15553C88.7645 0.783455 87.6809 0.746246 86.6689 1.04961C76.9139 3.9006 54.1557 14.0264 53.5464 46.3873C53.3113 58.884 62.4504 69.6191 74.351 70.831C77.5927 71.1593 80.8672 70.8067 83.9646 69.7957C87.062 68.7847 89.914 67.1377 92.3378 64.9602C94.7476 62.7802 96.6744 60.1199 97.994 57.1504C99.3137 54.1809 99.997 50.968 100 47.7184C100 36.7814 92.2351 27.2152 81.4636 25.1688ZM87.8974 60.0463C84.8589 62.8154 80.8924 64.3443 76.7815 64.331C76.1987 64.331 75.6093 64.2979 75.0199 64.2383C66.5199 63.3774 59.9967 55.5893 60.1689 46.5132C60.5894 24.1224 72.7152 14.0397 82.755 9.52973C79.5762 13.8277 77.0828 18.2483 75.3046 22.7284C74.9629 23.5891 74.814 24.5143 74.8684 25.4388C74.9227 26.3633 75.179 27.2646 75.6192 28.0794C76.0872 28.9413 76.7381 29.6903 77.5264 30.2737C78.3147 30.8572 79.2212 31.2611 80.1821 31.4569C83.909 32.2522 87.251 34.2999 89.6519 37.2593C92.0527 40.2186 93.3676 43.911 93.3775 47.7218C93.3775 52.4072 91.3808 56.9006 87.8974 60.0496V60.0463ZM39.2583 3.10921C38.6975 2.21464 37.8587 1.52873 36.8706 1.1567C35.8825 0.784668 34.7997 0.747047 33.7881 1.04961C24.0332 3.9006 1.2782 14.0264 0.665619 46.3873C0.43383 58.8873 9.5729 69.6191 21.4736 70.831C24.7149 71.163 27.9899 70.8121 31.0873 69.8009C34.1847 68.7897 37.0359 67.1407 39.457 64.9602C41.8669 62.7802 43.7936 60.1199 45.1133 57.1504C46.4329 54.1809 47.1162 50.968 47.1192 47.7184C47.1192 36.7814 39.3577 27.2152 28.5861 25.1688C30.7616 19.6754 34.1987 14.2416 38.8014 9.0198C39.5136 8.22026 39.9441 7.20918 40.0266 6.14156C40.1091 5.07394 39.8392 4.00873 39.2583 3.10921ZM22.4272 22.7251C22.0852 23.5856 21.9359 24.5106 21.9896 25.4351C22.0434 26.3595 22.299 27.261 22.7385 28.0761C23.2059 28.9391 23.8566 29.6892 24.6448 30.2738C25.4331 30.8585 26.3399 31.2634 27.3014 31.4602C31.0271 32.2552 34.3683 34.302 36.769 37.26C39.1698 40.218 40.4853 43.9088 40.4967 47.7184C40.4967 52.4072 38.5 56.8973 35.0166 60.0463C31.9791 62.8149 28.0139 64.3438 23.904 64.331C23.3212 64.331 22.7318 64.2979 22.1424 64.2383C13.6424 63.3774 7.11594 55.5893 7.28813 46.5132C7.70866 24.1191 19.8378 14.0397 29.8742 9.52973C26.6987 13.8244 24.2086 18.245 22.4272 22.7251Z" fill="#FD6219"/>
</g>
<defs>
<clipPath id="clip0_1_2273">
<rect width="100" height="70.1987" fill="white" transform="matrix(-1 0 0 -1 100 71)"/>
</clipPath>
</defs>
</svg>
