<svg width="40" height="40" viewBox="0 0 40 40" fill="none" xmlns="http://www.w3.org/2000/svg">
<g clip-path="url(#clip0_1_3908)">
<path d="M25.517 10.3956C26.5939 10.3956 27.4701 9.51941 27.4701 8.44246C27.4701 7.36551 26.5939 6.48926 25.517 6.48926C24.44 6.48926 23.5639 7.36551 23.5639 8.44246C23.5639 8.8823 23.7101 9.28855 23.9564 9.61543L20.7474 14.0999C20.5511 14.0353 20.3459 14.0024 20.1393 14.0025C19.6261 14.0025 19.1587 14.2018 18.8098 14.5266L16.6708 13.3129C16.6999 13.1779 16.7146 13.0402 16.7146 12.9021C16.7146 11.8252 15.8385 10.949 14.7615 10.949C13.6846 10.949 12.8084 11.8252 12.8084 12.9021C12.8084 13.043 12.8237 13.1804 12.8522 13.3129L10.7132 14.5266C10.3643 14.2018 9.89699 14.0025 9.38379 14.0025C8.30684 14.0025 7.43066 14.8788 7.43066 15.9557C7.43066 17.0327 8.30684 17.9089 9.38379 17.9089C10.4607 17.9089 11.3369 17.0327 11.3369 15.9557C11.3369 15.8177 11.3222 15.68 11.2931 15.545L13.4321 14.3313C13.781 14.6561 14.2483 14.8554 14.7615 14.8554C15.2747 14.8554 15.742 14.6561 16.091 14.3314L18.23 15.5451C18.2009 15.6801 18.1862 15.8178 18.1861 15.9558C18.1861 17.0328 19.0623 17.909 20.1393 17.909C21.2163 17.909 22.0925 17.0328 22.0925 15.9558C22.0929 15.5324 21.955 15.1205 21.6998 14.7827L24.9089 10.2982C25.1051 10.3627 25.3104 10.3956 25.517 10.3956ZM25.517 7.66113C25.9478 7.66113 26.2982 8.0116 26.2982 8.44246C26.2982 8.87324 25.9478 9.22371 25.517 9.22371C25.0862 9.22371 24.7357 8.87324 24.7357 8.44246C24.7357 8.0116 25.0861 7.66113 25.517 7.66113ZM9.38355 16.7369C8.95277 16.7369 8.6023 16.3864 8.6023 15.9556C8.6023 15.5247 8.95277 15.1743 9.38355 15.1743C9.81434 15.1743 10.1648 15.5247 10.1648 15.9556C10.1648 16.3864 9.81434 16.7369 9.38355 16.7369ZM14.7614 13.6834C14.3306 13.6834 13.9801 13.3329 13.9801 12.9021C13.9801 12.4713 14.3306 12.1208 14.7614 12.1208C15.1921 12.1208 15.5426 12.4713 15.5426 12.9021C15.5427 13.3329 15.1921 13.6834 14.7614 13.6834ZM20.1392 16.7369C19.7084 16.7369 19.3579 16.3864 19.3579 15.9556C19.3579 15.5247 19.7084 15.1743 20.1392 15.1743C20.57 15.1743 20.9205 15.5247 20.9205 15.9556C20.9205 16.3864 20.57 16.7369 20.1392 16.7369Z" fill="white"/>
<path d="M32.7184 29.4505H1.65742C1.52869 29.4504 1.40527 29.3991 1.31425 29.3081C1.22322 29.2171 1.17202 29.0937 1.17188 28.965V4.79159C1.17202 4.66286 1.22322 4.53944 1.31425 4.44842C1.40527 4.35739 1.52869 4.30619 1.65742 4.30605H4.41961C4.7432 4.30605 5.00555 4.04378 5.00555 3.72011C5.00555 3.39644 4.7432 3.13417 4.41961 3.13417H1.65742C0.743516 3.13417 0 3.87769 0 4.79159V28.965C0 29.8789 0.743516 30.6224 1.65742 30.6224H5.6975V31.9119C5.6975 32.6465 6.29516 33.2442 7.02977 33.2442H12.8949L10.134 38.6346C10.0648 38.7728 10.053 38.9326 10.1011 39.0794C10.1492 39.2262 10.2533 39.348 10.3908 39.4184C10.5283 39.4888 10.688 39.5021 10.8352 39.4554C10.9825 39.4087 11.1053 39.3057 11.177 39.1689L14.2116 33.2442H20.6898L23.7245 39.1689C23.7595 39.2374 23.8077 39.2983 23.8663 39.3481C23.9249 39.398 23.9928 39.4358 24.066 39.4595C24.1393 39.4831 24.2164 39.4921 24.2931 39.4859C24.3698 39.4797 24.4446 39.4584 24.513 39.4233C24.5815 39.3882 24.6424 39.34 24.6923 39.2814C24.7421 39.2228 24.78 39.1549 24.8036 39.0817C24.8272 39.0084 24.8362 38.9313 24.83 38.8546C24.8238 38.7779 24.8025 38.7031 24.7674 38.6346L22.0065 33.2442H27.8716C28.6062 33.2442 29.2039 32.6466 29.2039 31.9119V30.6224H32.7184C33.042 30.6224 33.3044 30.3601 33.3044 30.0364C33.3044 29.7128 33.042 29.4505 32.7184 29.4505ZM28.032 31.9119C28.032 31.9544 28.0151 31.9952 27.985 32.0253C27.9549 32.0553 27.9142 32.0723 27.8716 32.0723H7.02977C6.98724 32.0723 6.94647 32.0553 6.9164 32.0253C6.88633 31.9952 6.86942 31.9544 6.86938 31.9119V30.6224H28.032V31.9119ZM6.76336 4.30605H33.2439C33.3726 4.30619 33.4961 4.35739 33.5871 4.44842C33.6781 4.53944 33.7293 4.66286 33.7295 4.79159V10.3628C33.7295 10.6864 33.9918 10.9487 34.3154 10.9487C34.639 10.9487 34.9013 10.6864 34.9013 10.3628V4.79159C34.9013 3.87769 34.1578 3.13417 33.2439 3.13417H20.7027V1.98245C20.7027 1.1719 20.0433 0.512451 19.2327 0.512451H15.6687C14.8582 0.512451 14.1987 1.1719 14.1987 1.98245V3.13417H6.76336C6.43977 3.13417 6.17742 3.39644 6.17742 3.72011C6.17742 4.04378 6.43977 4.30605 6.76336 4.30605ZM15.3705 1.98245C15.3706 1.9034 15.4021 1.8276 15.458 1.77171C15.5139 1.71582 15.5897 1.68439 15.6687 1.68433H19.2327C19.3117 1.68441 19.3875 1.71584 19.4434 1.77173C19.4993 1.82762 19.5308 1.9034 19.5309 1.98245V3.13417H15.3706V1.98245H15.3705Z" fill="white"/>
<path d="M8.19531 20.9044C8.03991 20.9044 7.89088 20.9662 7.78099 21.0761C7.67111 21.1859 7.60938 21.335 7.60938 21.4904V26.6679C7.60938 26.8233 7.67111 26.9723 7.78099 27.0822C7.89088 27.1921 8.03991 27.2538 8.19531 27.2538H10.5724C10.7278 27.2538 10.8769 27.1921 10.9867 27.0822C11.0966 26.9723 11.1584 26.8233 11.1584 26.6679V21.4904C11.1584 21.335 11.0966 21.1859 10.9867 21.0761C10.8769 20.9662 10.7278 20.9044 10.5724 20.9044H8.19531ZM9.98648 26.082H8.78125V22.0764H9.98648V26.082ZM13.573 17.9101C13.4176 17.9101 13.2686 17.9718 13.1587 18.0817C13.0488 18.1916 12.9871 18.3406 12.9871 18.496V26.668C12.9871 26.8234 13.0488 26.9724 13.1587 27.0823C13.2686 27.1922 13.4176 27.2539 13.573 27.2539H15.9502C16.1056 27.2539 16.2546 27.1922 16.3645 27.0823C16.4744 26.9724 16.5361 26.8234 16.5361 26.668V18.496C16.5361 18.3406 16.4744 18.1916 16.3645 18.0817C16.2546 17.9718 16.1056 17.9101 15.9502 17.9101H13.573ZM15.3643 26.082H14.1591V19.0819H15.3643V26.082ZM18.9509 20.9044C18.7955 20.9044 18.6464 20.9662 18.5365 21.0761C18.4267 21.1859 18.3649 21.335 18.3649 21.4904V26.6679C18.3649 26.8233 18.4267 26.9723 18.5365 27.0822C18.6464 27.1921 18.7955 27.2538 18.9509 27.2538H21.328C21.4834 27.2538 21.6324 27.1921 21.7423 27.0822C21.8522 26.9723 21.9139 26.8233 21.9139 26.6679V21.4904C21.9139 21.335 21.8522 21.1859 21.7423 21.0761C21.6324 20.9662 21.4834 20.9044 21.328 20.9044H18.9509ZM20.742 26.082H19.5368V22.0764H20.742V26.082ZM24.3287 24.3619C24.1733 24.3619 24.0242 24.4237 23.9144 24.5336C23.8045 24.6434 23.7427 24.7925 23.7427 24.9479V26.668C23.7427 26.8234 23.8045 26.9724 23.9144 27.0823C24.0242 27.1922 24.1733 27.2539 24.3287 27.2539H26.7058C27.0294 27.2539 27.2917 26.9916 27.2917 26.668C27.2917 26.3443 27.0294 26.082 26.7058 26.082H24.9146V24.9479C24.9146 24.7925 24.8529 24.6434 24.743 24.5336C24.6331 24.4237 24.4841 24.3619 24.3287 24.3619ZM39.701 30.0015L36.3395 24.1792C37.1912 23.2715 37.8113 22.1623 38.1426 20.9261C38.672 18.9502 38.4003 16.8864 37.3775 15.1148C35.2661 11.4576 30.573 10.2003 26.916 12.3116C23.2589 14.423 22.0015 19.116 24.1129 22.7731C25.1357 24.5447 26.7872 25.8119 28.763 26.3414C29.4135 26.5163 30.084 26.6051 30.7576 26.6056C31.339 26.6056 31.917 26.5387 32.4823 26.4064L35.8431 32.2289C36.2551 32.9427 37.0052 33.3422 37.7757 33.3421C38.1533 33.3421 38.5358 33.2461 38.8857 33.0442C39.5729 32.6476 39.9998 31.908 39.9998 31.114C39.9998 30.7251 39.8966 30.3405 39.701 30.0015ZM29.0663 25.2094C27.3928 24.761 25.994 23.6876 25.1277 22.1872C23.3394 19.0897 24.4045 15.1148 27.5019 13.3265C28.5209 12.7382 29.6344 12.4588 30.7342 12.4588C32.9776 12.4588 35.1626 13.6223 36.3626 15.7008C37.2288 17.2012 37.459 18.9492 37.0105 20.6228C36.5621 22.2964 35.4887 23.6951 33.9883 24.5614C32.4879 25.4277 30.7399 25.6577 29.0663 25.2094ZM38.3 32.0292C37.7959 32.3203 37.149 32.147 36.8581 31.6431L33.6247 26.0412C33.9514 25.908 34.2687 25.7527 34.5744 25.5763C34.8799 25.3995 35.1731 25.202 35.4517 24.9852L38.6861 30.5873C38.7787 30.7475 38.8276 30.9291 38.828 31.1141C38.8277 31.2995 38.7788 31.4816 38.6862 31.6422C38.5935 31.8028 38.4604 31.9362 38.3 32.0292Z" fill="white"/>
<path d="M36.058 20.5948C36.4716 19.2623 36.3731 17.8357 35.7805 16.5779C35.7483 16.5075 35.7023 16.4442 35.6454 16.3916C35.5885 16.3391 35.5218 16.2983 35.449 16.2717C35.3763 16.2451 35.299 16.2332 35.2216 16.2367C35.1442 16.2402 35.0683 16.259 34.9982 16.292C34.9281 16.325 34.8653 16.3716 34.8133 16.429C34.7614 16.4865 34.7213 16.5537 34.6955 16.6267C34.6697 16.6997 34.6586 16.7771 34.6629 16.8545C34.6671 16.9318 34.6867 17.0075 34.7205 17.0773C35.1879 18.0695 35.2655 19.1952 34.9388 20.2472C34.6104 21.305 33.9009 22.1927 32.9409 22.747C31.9252 23.3335 30.7416 23.4891 29.6087 23.1856C28.4758 22.882 27.5287 22.1554 26.9423 21.1396C25.7316 19.0427 26.4527 16.3517 28.5497 15.141C29.2975 14.708 30.1566 14.5056 31.0191 14.5592C31.8816 14.6128 32.709 14.9201 33.3974 15.4424C33.4588 15.4888 33.5287 15.5227 33.6031 15.5421C33.6776 15.5616 33.7551 15.5661 33.8314 15.5556C33.9076 15.545 33.981 15.5195 34.0474 15.4806C34.1137 15.4417 34.1718 15.3901 34.2182 15.3287C34.312 15.2048 34.3526 15.0487 34.3313 14.8947C34.31 14.7408 34.2284 14.6017 34.1045 14.5079C33.2324 13.8463 32.1843 13.4571 31.0918 13.3891C29.9992 13.3212 28.911 13.5776 27.9637 14.1261C26.6768 14.8691 25.7562 16.0688 25.3716 17.5041C24.987 18.9394 25.1845 20.4386 25.9274 21.7255C26.6704 23.0124 27.8701 23.9329 29.3054 24.3176C29.7779 24.4447 30.265 24.5092 30.7543 24.5095C31.7182 24.5095 32.6697 24.2567 33.5268 23.7618C34.743 23.0598 35.6419 21.9351 36.058 20.5948Z" fill="white"/>
</g>
<defs>
<clipPath id="clip0_1_3908">
<rect width="40" height="40" fill="white"/>
</clipPath>
</defs>
</svg>
