<svg width="40" height="41" viewBox="0 0 40 41" fill="none" xmlns="http://www.w3.org/2000/svg">
<g clip-path="url(#clip0_1_6607)">
<path d="M0.625238 40.2514H25.2597C25.4255 40.2514 25.5844 40.1856 25.7016 40.0684C25.8188 39.9512 25.8847 39.7922 25.8847 39.6264V33.6493C25.8943 32.7414 25.6133 31.8542 25.0828 31.1173C24.5522 30.3805 23.8 29.8326 22.9359 29.5537L16.6234 27.4495V25.4562C16.6234 25.4346 16.6223 25.4132 16.6202 25.3922C17.4192 24.7625 18.0452 23.9403 18.4396 23.0026C18.8962 23.0014 19.343 22.8703 19.7279 22.6246C20.1128 22.379 20.4198 22.0289 20.6131 21.6152C20.8065 21.2016 20.8781 20.7415 20.8197 20.2886C20.7613 19.8358 20.5753 19.4089 20.2834 19.0578C20.3765 18.6272 20.5326 17.8324 20.6 17.3752C20.6206 17.235 20.6409 17.1035 20.6602 16.9792C20.8416 15.8108 20.9509 15.1056 20.2482 13.7826C19.4848 12.3463 18.3178 11.1647 16.8911 10.3835C15.4644 9.60227 13.8403 9.25552 12.2189 9.38598C10.5975 9.51644 9.04977 10.1184 7.76632 11.1177C6.48287 12.117 5.51983 13.47 4.99586 15.0099C4.98474 15.0425 4.97635 15.0761 4.97079 15.1102C4.76243 16.3817 4.93954 17.7092 5.49602 19.059C5.20465 19.4099 5.01899 19.8363 4.96068 20.2886C4.90236 20.7409 4.97379 21.2005 5.16664 21.6138C5.35949 22.0271 5.66582 22.377 6.04993 22.6229C6.43404 22.8688 6.88012 23.0004 7.33618 23.0025C7.74183 23.9622 8.38833 24.801 9.21313 25.4376C9.22875 25.4498 9.24524 25.461 9.26118 25.473V27.4495L2.94868 29.5537C2.08467 29.8326 1.33249 30.3806 0.802036 31.1174C0.271579 31.8543 -0.00936737 32.7414 0.000238362 33.6493V39.6264C0.000238362 39.7922 0.0660864 39.9512 0.183297 40.0684C0.300507 40.1856 0.459478 40.2514 0.625238 40.2514ZM14.4782 31.9287L14.2268 33.3653H11.658L11.4333 32.0804C11.4219 32.0153 11.4001 31.9524 11.3689 31.8942L12.9425 30.777L14.4902 31.8761C14.4855 31.8935 14.4815 31.911 14.4782 31.9287ZM11.8284 34.6153H14.0573L14.8241 39.0014H11.0608L11.8284 34.6153ZM24.6351 33.6493V39.0014H21.6459V36.2666C21.6459 36.1008 21.5801 35.9418 21.4629 35.8246C21.3457 35.7074 21.1867 35.6416 21.0209 35.6416C20.8552 35.6416 20.6962 35.7074 20.579 35.8246C20.4618 35.9418 20.3959 36.1008 20.3959 36.2666V39.0014H16.093L15.3015 34.4763L15.6165 32.6756L17.4056 33.946C17.4991 34.0124 17.609 34.0518 17.7234 34.0599C17.8378 34.068 17.9523 34.0444 18.0542 33.9918C18.1561 33.9392 18.2415 33.8595 18.3012 33.7616C18.3609 33.6637 18.3924 33.5512 18.3924 33.4365V29.3566L22.5409 30.7394C23.1546 30.9377 23.6889 31.327 24.0656 31.8505C24.4423 32.3741 24.6417 33.0044 24.6347 33.6493H24.6351ZM17.1429 28.9399V32.226L14.0225 30.0101L16.0449 28.5738L17.1429 28.9399ZM18.8273 21.682C18.9524 20.9592 18.9443 20.2195 18.8034 19.4995C19.0306 19.5763 19.2282 19.7217 19.369 19.9157C19.5099 20.1097 19.5869 20.3426 19.5895 20.5823C19.5921 20.822 19.5202 21.0566 19.3836 21.2537C19.2471 21.4507 19.0526 21.6004 18.8273 21.682ZM6.19625 15.3631C6.64984 14.0617 7.47309 12.9209 8.56519 12.0802C9.65728 11.2395 10.9708 10.7356 12.345 10.6301C13.7191 10.5246 15.0942 10.8221 16.3018 11.4862C17.5094 12.1503 18.4972 13.1521 19.1441 14.369C19.652 15.3248 19.5947 15.6934 19.425 16.7876C19.4052 16.9149 19.3844 17.0495 19.3632 17.1931C19.3206 17.4829 19.2391 17.9206 19.1633 18.3013C18.9268 18.2257 18.6801 18.1872 18.4318 18.1874H18.4095C17.7029 15.8555 16.9047 14.6483 15.9053 14.3955C15.4671 14.2845 14.7843 14.3142 14.0216 15.0856C13.9855 15.1219 13.954 15.1626 13.9279 15.2067C12.7849 17.1381 10.7437 18.0605 7.86219 17.9489C7.76368 17.9451 7.66566 17.9647 7.57618 18.0061C7.4867 18.0475 7.40831 18.1095 7.34743 18.187C7.0756 18.1871 6.80576 18.2333 6.54946 18.3238C6.17024 17.3013 6.05133 16.3074 6.19625 15.3631ZM6.19079 20.5951C6.19117 20.3617 6.26201 20.1339 6.39403 19.9415C6.52606 19.749 6.71311 19.6009 6.93071 19.5166C6.80693 20.2316 6.80997 20.9629 6.93969 21.6769C6.71989 21.5938 6.53056 21.4458 6.3968 21.2526C6.26304 21.0594 6.1912 20.8301 6.19079 20.5952V20.5951ZM8.28235 19.2084H8.33204C11.4051 19.2084 13.6335 18.1017 14.9613 15.9144C15.1488 15.7347 15.3959 15.5555 15.5988 15.6073C15.7902 15.6556 16.4765 16.0252 17.2728 18.7491C17.2794 18.7715 17.2872 18.7935 17.2963 18.815C17.7032 19.7871 17.7772 20.8665 17.507 21.8851C17.2368 22.9037 16.6373 23.8044 15.8021 24.4469C14.9668 25.0895 13.9425 25.4378 12.8887 25.4378C11.8348 25.4378 10.8106 25.0893 9.97532 24.4467C9.20172 23.8429 8.62692 23.0211 8.32513 22.0873C8.02335 21.1535 8.00844 20.1507 8.28235 19.2084ZM12.8886 26.6861C13.7456 26.686 14.5928 26.5033 15.3738 26.1502V27.517L12.9425 29.2436L10.5112 27.517V26.1991C11.2625 26.5207 12.0713 26.6864 12.8886 26.6861ZM9.84063 28.5738L11.8631 30.0101L8.74243 32.226V28.9399L9.84063 28.5738ZM1.25024 33.6493C1.24323 33.0044 1.44265 32.3741 1.81934 31.8506C2.19603 31.3271 2.73027 30.9377 3.34399 30.7395L7.49243 29.3567V33.4366C7.49243 33.5513 7.524 33.6637 7.58366 33.7617C7.64333 33.8596 7.72879 33.9393 7.8307 33.9919C7.9326 34.0445 8.04702 34.0681 8.16142 34.06C8.27582 34.0519 8.38579 34.0125 8.4793 33.9461L10.2684 32.6757L10.5833 34.4763L9.79188 39.0014H5.48891V36.2666C5.48891 36.1008 5.42306 35.9418 5.30585 35.8246C5.18864 35.7074 5.02967 35.6416 4.86391 35.6416C4.69815 35.6416 4.53918 35.7074 4.42197 35.8246C4.30476 35.9418 4.23891 36.1008 4.23891 36.2666V39.0014H1.25024V33.6493ZM40.0002 14.0905C40.0002 14.2562 39.9344 14.4152 39.8172 14.5324C39.7 14.6496 39.541 14.7155 39.3752 14.7155H22.9155C22.7497 14.7155 22.5907 14.6496 22.4735 14.5324C22.3563 14.4152 22.2905 14.2562 22.2905 14.0905C22.2905 13.9247 22.3563 13.7657 22.4735 13.6485C22.5907 13.5313 22.7497 13.4655 22.9155 13.4655H25.2876V9.57485C25.2876 9.40909 25.3534 9.25012 25.4706 9.13291C25.5879 9.0157 25.7468 8.94985 25.9126 8.94985C26.0783 8.94985 26.2373 9.0157 26.3545 9.13291C26.4717 9.25012 26.5376 9.40909 26.5376 9.57485V13.4655H28.7761V6.40095C28.7761 6.23519 28.8419 6.07622 28.9592 5.95901C29.0764 5.8418 29.2353 5.77595 29.4011 5.77595C29.5669 5.77595 29.7258 5.8418 29.843 5.95901C29.9602 6.07622 30.0261 6.23519 30.0261 6.40095V13.4655H32.2646V7.81634C32.2646 7.65058 32.3305 7.49161 32.4477 7.3744C32.5649 7.25719 32.7239 7.19134 32.8896 7.19134C33.0554 7.19134 33.2143 7.25719 33.3316 7.3744C33.4488 7.49161 33.5146 7.65058 33.5146 7.81634V13.4655H35.7532V4.59946C35.7532 4.4337 35.8191 4.27473 35.9363 4.15752C36.0535 4.04031 36.2124 3.97446 36.3782 3.97446C36.544 3.97446 36.7029 4.04031 36.8201 4.15752C36.9374 4.27473 37.0032 4.4337 37.0032 4.59946V13.4655H39.3752C39.541 13.4655 39.7 13.5313 39.8172 13.6485C39.9344 13.7657 40.0002 13.9247 40.0002 14.0905ZM35.9545 0.416963C36.0766 0.306303 36.2375 0.248363 36.4021 0.255757C36.5668 0.26315 36.7218 0.335277 36.8336 0.456439C36.9453 0.577602 37.0046 0.73799 36.9987 0.902695C36.9927 1.0674 36.922 1.22309 36.8018 1.33587L33.3133 4.55274C33.2262 4.63309 33.118 4.687 33.0014 4.70819C32.8848 4.72938 32.7645 4.71698 32.6547 4.67243L29.5307 3.40493L26.3332 6.31392C26.2104 6.42448 26.0489 6.48194 25.8839 6.47374C25.7189 6.46554 25.5638 6.39234 25.4527 6.27014C25.3415 6.14795 25.2832 5.9867 25.2906 5.82166C25.2979 5.65661 25.3703 5.50119 25.492 5.38939L28.9805 2.2154C29.0676 2.13605 29.1754 2.08294 29.2914 2.0622C29.4074 2.04147 29.5269 2.05395 29.6361 2.09821L32.7573 3.36454L35.9545 0.416963ZM22.7797 19.9624C22.6409 19.9932 22.5168 20.0705 22.4278 20.1814C22.3389 20.2923 22.2904 20.4303 22.2904 20.5724V22.1499C22.2904 22.292 22.3389 22.43 22.4278 22.5409C22.5168 22.6518 22.6409 22.7291 22.7797 22.7599L23.259 22.8666C23.3381 23.1106 23.4365 23.348 23.5533 23.5764L23.2896 23.9909C23.2133 24.1108 23.1801 24.2533 23.1957 24.3946C23.2112 24.536 23.2744 24.6678 23.375 24.7684L24.4904 25.8835C24.5909 25.9841 24.7227 26.0473 24.8641 26.0628C25.0054 26.0783 25.1478 26.0452 25.2677 25.9689L25.6822 25.7053C25.9106 25.8221 26.148 25.9205 26.3921 25.9996L26.4987 26.4788C26.5295 26.6176 26.6068 26.7417 26.7177 26.8307C26.8286 26.9197 26.9666 26.9681 27.1088 26.9681H28.6859C28.8281 26.9681 28.9661 26.9197 29.077 26.8307C29.1879 26.7417 29.2651 26.6176 29.296 26.4788L29.4026 25.9996C29.6467 25.9205 29.8841 25.8221 30.1126 25.7053L30.5266 25.9689C30.6466 26.0452 30.789 26.0783 30.9303 26.0628C31.0716 26.0473 31.2034 25.9841 31.304 25.8835L32.4194 24.7684C32.5199 24.6678 32.5832 24.536 32.5987 24.3946C32.6143 24.2533 32.5811 24.1108 32.5048 23.9909L32.2411 23.5764C32.3579 23.348 32.4563 23.1106 32.5355 22.8666L33.0147 22.7599C33.1535 22.7291 33.2776 22.6518 33.3666 22.5409C33.4555 22.43 33.504 22.292 33.504 22.1499V20.5723C33.504 20.4301 33.4555 20.2922 33.3666 20.1813C33.2776 20.0703 33.1535 19.9931 33.0147 19.9622L32.5354 19.8556C32.4563 19.6116 32.3579 19.3742 32.2411 19.1458L32.5048 18.7313C32.5811 18.6113 32.6142 18.4689 32.5987 18.3275C32.5831 18.1862 32.5199 18.0544 32.4193 17.9538L31.3041 16.8386C31.2035 16.7381 31.0717 16.6748 30.9303 16.6593C30.789 16.6438 30.6466 16.677 30.5266 16.7533L30.1126 17.0169C29.8841 16.9001 29.6467 16.8017 29.4026 16.7225L29.296 16.2433C29.2651 16.1045 29.1879 15.9804 29.0769 15.8915C28.966 15.8025 28.8281 15.7541 28.6859 15.7541H27.1088C26.9666 15.7541 26.8287 15.8025 26.7178 15.8915C26.6068 15.9804 26.5296 16.1045 26.4987 16.2433L26.3921 16.7225C26.148 16.8016 25.9106 16.9001 25.6822 17.0169L25.2677 16.7533C25.1478 16.677 25.0054 16.6438 24.864 16.6593C24.7227 16.6748 24.5909 16.7381 24.4903 16.8386L23.3752 17.9538C23.2747 18.0544 23.2114 18.1862 23.1959 18.3275C23.1803 18.4689 23.2135 18.6113 23.2898 18.7313L23.5534 19.1458C23.4366 19.3743 23.3382 19.6116 23.2591 19.8557L22.7797 19.9624ZM23.5404 21.0737L23.8953 20.9949C24.0101 20.9693 24.1153 20.9119 24.1989 20.8293C24.2825 20.7467 24.3411 20.6422 24.368 20.5277C24.4572 20.1486 24.6075 19.7864 24.8128 19.4553C24.8747 19.3554 24.9072 19.24 24.9065 19.1224C24.9058 19.0049 24.8719 18.8899 24.8088 18.7907L24.6135 18.4834L25.0198 18.0772L25.327 18.2725C25.4262 18.3355 25.541 18.3693 25.6585 18.37C25.7759 18.3707 25.8912 18.3383 25.9911 18.2765C26.3222 18.0711 26.6844 17.9209 27.0637 17.8317C27.1781 17.8048 27.2826 17.7463 27.3652 17.6627C27.4479 17.5791 27.5052 17.4739 27.5308 17.3592L27.6096 17.0042H28.1843L28.2632 17.3592C28.2887 17.4739 28.3461 17.5791 28.4287 17.6627C28.5114 17.7463 28.6159 17.8049 28.7303 17.8318C29.1096 17.921 29.4718 18.0712 29.8029 18.2766C29.9028 18.3384 30.0181 18.3708 30.1355 18.37C30.253 18.3693 30.3678 18.3355 30.467 18.2725L30.7742 18.0772L31.1805 18.4834L30.9852 18.7907C30.9221 18.8899 30.8882 19.0049 30.8875 19.1224C30.8868 19.24 30.9193 19.3554 30.9812 19.4553C31.1866 19.7864 31.3368 20.1487 31.426 20.5279C31.4529 20.6423 31.5116 20.7468 31.5952 20.8294C31.6788 20.912 31.784 20.9693 31.8987 20.9949L32.2536 21.0737V21.6484L31.8987 21.7274C31.7839 21.7529 31.6787 21.8102 31.5951 21.8929C31.5115 21.9755 31.4529 22.08 31.426 22.1944C31.3368 22.5736 31.1865 22.9358 30.9812 23.2669C30.9193 23.3668 30.8868 23.4822 30.8875 23.5998C30.8882 23.7173 30.9221 23.8323 30.9852 23.9315L31.1805 24.2387L30.7742 24.6449L30.467 24.4496C30.3678 24.3866 30.2529 24.3529 30.1355 24.3522C30.018 24.3515 29.9028 24.3839 29.8029 24.4457C29.4718 24.651 29.1096 24.8012 28.7303 24.8904C28.6159 24.9173 28.5114 24.9759 28.4288 25.0595C28.3462 25.1431 28.2888 25.2483 28.2633 25.3631L28.1844 25.718H27.6097L27.5309 25.3631C27.5053 25.2483 27.448 25.1431 27.3653 25.0594C27.2827 24.9758 27.1781 24.9172 27.0637 24.8903C26.6844 24.8012 26.3222 24.651 25.9912 24.4456C25.8913 24.3838 25.776 24.3514 25.6586 24.3521C25.5411 24.3528 25.4262 24.3866 25.3271 24.4496L25.0198 24.6449L24.6136 24.2387L24.8089 23.9315C24.872 23.8323 24.9059 23.7173 24.9066 23.5998C24.9073 23.4822 24.8748 23.3668 24.8129 23.2669C24.6075 22.9358 24.4573 22.5735 24.368 22.1942C24.3411 22.0798 24.2825 21.9754 24.1989 21.8928C24.1153 21.8102 24.0101 21.7529 23.8954 21.7274L23.5405 21.6484L23.5404 21.0737ZM27.8973 24.0092C28.4212 24.0092 28.9332 23.8539 29.3687 23.5629C29.8043 23.2719 30.1437 22.8582 30.3442 22.3743C30.5446 21.8904 30.5971 21.3579 30.4949 20.8441C30.3927 20.3304 30.1405 19.8585 29.7701 19.4881C29.3997 19.1177 28.9278 18.8654 28.414 18.7632C27.9003 18.6611 27.3678 18.7135 26.8838 18.914C26.3999 19.1144 25.9863 19.4539 25.6953 19.8894C25.4042 20.3249 25.2489 20.837 25.2489 21.3608C25.2497 22.063 25.529 22.7362 26.0255 23.2327C26.522 23.7292 27.1952 24.0085 27.8973 24.0092ZM27.8973 19.9624C28.1739 19.9624 28.4443 20.0444 28.6743 20.198C28.9042 20.3517 29.0835 20.5701 29.1893 20.8256C29.2952 21.0812 29.3229 21.3623 29.2689 21.6336C29.215 21.9049 29.0818 22.1541 28.8862 22.3496C28.6906 22.5452 28.4414 22.6784 28.1702 22.7324C27.8989 22.7863 27.6177 22.7586 27.3622 22.6528C27.1067 22.5469 26.8883 22.3677 26.7346 22.1377C26.5809 21.9078 26.4989 21.6374 26.4989 21.3608C26.4993 20.99 26.6468 20.6346 26.9089 20.3724C27.1711 20.1102 27.5266 19.9627 27.8973 19.9624Z" fill="white"/>
</g>
<defs>
<clipPath id="clip0_1_6607">
<rect width="40" height="40" fill="white" transform="translate(0 0.251465)"/>
</clipPath>
</defs>
</svg>
