<svg width="50" height="51" viewBox="0 0 50 51" fill="none" xmlns="http://www.w3.org/2000/svg">
<path d="M49.2407 9.12581C49.2998 3.33869 47.6066 1.23338 41.1915 1.37051L8.43542 2.07505C3.98466 2.17732 1.85588 3.26444 1.34451 9.32429C0.847228 15.2422 0.66692 21.1825 0.80436 27.1198C0.949815 34.2076 3.43088 36.0554 10.1983 36.2031C11.2741 36.2266 12.3453 36.2516 13.421 36.2796C12.6287 38.1162 11.8335 39.9515 11.0354 41.7857C10.4165 43.2091 9.7983 44.6326 9.18087 46.0599C8.26269 48.2175 8.84072 49.4932 11.5688 49.7432C16.2559 50.1561 17.3642 48.9796 18.5839 45.8591C18.721 45.5122 18.8566 45.1675 18.9892 44.8243L32.3794 45.097L32.6892 45.8834C33.0581 46.8304 33.518 48.0084 34.443 48.7925C35.8612 49.9811 37.8377 49.9069 39.6953 49.7432C42.19 49.516 43.1036 48.4038 42.0809 46.0576C40.7517 42.9952 39.4255 39.9316 38.1021 36.8667C39.4438 36.8978 40.7816 36.9311 42.1241 36.9667C47.2112 37.1016 48.9581 35.7288 49.021 30.5425C49.0953 22.7463 49.171 15.7387 49.2407 9.12581ZM38.4028 39.4735L38.2172 39.6591L38.118 39.5599C38.1004 39.5423 38.0795 39.5283 38.0565 39.5188C38.0335 39.5093 38.0088 39.5044 37.9839 39.5044C37.959 39.5044 37.9343 39.5093 37.9113 39.5188C37.8883 39.5283 37.8674 39.5423 37.8498 39.5599C37.8322 39.5775 37.8182 39.5984 37.8087 39.6214C37.7992 39.6444 37.7943 39.6691 37.7943 39.694C37.7943 39.7189 37.7992 39.7436 37.8087 39.7666C37.8182 39.7896 37.8322 39.8105 37.8498 39.8281L37.9491 39.9273L37.5521 40.3243L36.8718 39.6448L37.9915 38.5251L38.4028 39.4735ZM38.6862 40.1281L38.4854 39.9273L38.565 39.8478L38.6862 40.1281ZM37.1869 38.794C37.1902 38.7673 37.1875 38.7401 37.179 38.7146C37.1705 38.689 37.1564 38.6657 37.1377 38.6463L36.3922 37.9008L37.3203 36.9728L37.8301 38.1516L37.1869 38.794ZM34.071 37.9402L33.2316 37.1008L33.5794 36.7531L34.7892 36.7841C34.7975 36.8144 34.8013 36.8463 34.8248 36.8698L34.9551 37.0001L34.1119 37.8432C34.0847 37.869 34.0778 37.9054 34.071 37.9402ZM32.9635 36.8326L32.865 36.7341L33.0566 36.7387L32.9635 36.8326ZM35.6831 36.8061L36.9195 36.8379L36.1248 37.6326L35.4907 36.9985L35.6831 36.8061ZM32.3642 36.722C32.3733 36.7501 32.3756 36.7804 32.3975 36.8023L32.696 37.1008L32.1991 37.5978L31.5688 36.9682L31.8278 36.7091L32.3642 36.722ZM31.3013 36.7001L31.2968 36.6955H31.3059L31.3013 36.7001ZM29.0483 36.6402L30.2089 39.5887C26.8142 39.6576 23.8036 39.6607 21.0445 39.597C21.4576 38.559 21.8677 37.5199 22.2748 36.4796C24.5354 36.5311 26.7892 36.5826 29.0483 36.6402ZM15.5869 37.4091L15.2059 37.0281L15.2983 36.9349C15.3339 36.8993 15.3538 36.8511 15.3538 36.8008C15.3538 36.7505 15.3339 36.7023 15.2983 36.6667C15.2627 36.6312 15.2145 36.6112 15.1642 36.6112C15.1139 36.6112 15.0657 36.6312 15.0301 36.6667L14.9377 36.7591L14.4831 36.3046C14.8172 36.3114 15.1513 36.3198 15.4847 36.3273L16.0763 36.919L15.5869 37.4091ZM11.3006 43.0773L11.7188 42.1137L12.0422 42.4379L11.3521 43.1288L11.3006 43.0773ZM12.3945 40.5538L12.8778 39.4394L13.2483 39.8099L12.4491 40.6091L12.3945 40.5538ZM13.5506 37.8864L13.6809 38.0167L13.3513 38.3463L13.5506 37.8864ZM13.7127 37.5129L14.1491 36.5061L14.6703 37.0273L13.9491 37.7485L13.7127 37.5129ZM18.3362 36.391L18.0915 36.6357L17.8354 36.3796L18.3362 36.391ZM20.0301 36.4288L19.8385 36.6205L19.6385 36.4205L20.0301 36.4288ZM11.6354 48.9894C9.30891 48.7758 9.21421 47.916 9.87633 46.3599C10.2059 45.5985 10.5369 44.8379 10.8672 44.0766C10.9136 44.0753 10.9578 44.057 10.9915 44.0251L11.3521 43.6645L11.4824 43.7955C11.518 43.8311 11.5662 43.8511 11.6165 43.8511C11.6668 43.8511 11.715 43.8311 11.7506 43.7955C11.7861 43.7599 11.8061 43.7117 11.8061 43.6614C11.8061 43.6111 11.7861 43.5629 11.7506 43.5273L11.6203 43.397L12.3278 42.6894C12.3983 42.7228 12.4574 42.747 12.5385 42.666C12.5968 42.6076 12.5953 42.5258 12.5619 42.4554L12.7278 42.2894C12.7634 42.2539 12.7834 42.2057 12.7834 42.1554C12.7834 42.1051 12.7634 42.0568 12.7278 42.0213C12.6923 41.9857 12.644 41.9657 12.5938 41.9657C12.5435 41.9657 12.4952 41.9857 12.4597 42.0213L12.3112 42.1698L11.8816 41.7402L11.9021 41.6925L12.4498 41.1448L13.0278 41.7228C13.0634 41.7583 13.1116 41.7783 13.1619 41.7783C13.2122 41.7783 13.2605 41.7583 13.296 41.7228C13.3316 41.6872 13.3516 41.639 13.3516 41.5887C13.3516 41.5384 13.3316 41.4902 13.296 41.4546L12.718 40.8766L13.5165 40.0781L13.6657 40.2273C13.6833 40.2449 13.7042 40.2589 13.7272 40.2684C13.7503 40.278 13.7749 40.2829 13.7998 40.2829C13.8247 40.2829 13.8494 40.278 13.8724 40.2684C13.8954 40.2589 13.9163 40.2449 13.9339 40.2273C13.9515 40.2097 13.9655 40.1888 13.975 40.1658C13.9845 40.1428 13.9894 40.1181 13.9894 40.0932C13.9894 40.0683 13.9845 40.0437 13.975 40.0207C13.9655 39.9977 13.9515 39.9768 13.9339 39.9591L13.7635 39.7887C13.7877 39.722 13.7869 39.6478 13.7331 39.594C13.6794 39.5402 13.6059 39.5394 13.5392 39.5637L13.1051 39.1296L13.9506 38.2841L14.6877 39.0213C14.7053 39.0389 14.7262 39.0528 14.7492 39.0624C14.7722 39.0719 14.7969 39.0768 14.8218 39.0768C14.8467 39.0768 14.8713 39.0719 14.8944 39.0624C14.9174 39.0528 14.9383 39.0389 14.9559 39.0213C14.9735 39.0037 14.9875 38.9828 14.997 38.9597C15.0065 38.9367 15.0114 38.9121 15.0114 38.8872C15.0114 38.8623 15.0065 38.8376 14.997 38.8146C14.9875 38.7916 14.9735 38.7707 14.9559 38.7531L14.2188 38.016L14.94 37.2948L15.321 37.6766L15.2081 37.7894C15.1901 37.8069 15.1757 37.8279 15.1658 37.851C15.1559 37.8741 15.1507 37.899 15.1505 37.9241C15.1504 37.9493 15.1552 37.9742 15.1647 37.9975C15.1743 38.0207 15.1884 38.0418 15.2062 38.0596C15.224 38.0774 15.2452 38.0914 15.2685 38.1009C15.2917 38.1104 15.3167 38.1151 15.3418 38.1149C15.367 38.1146 15.3918 38.1094 15.4149 38.0994C15.438 38.0894 15.4589 38.075 15.4763 38.0569L16.3468 37.1864L16.9142 37.7538C16.9318 37.7715 16.9527 37.7854 16.9757 37.795C16.9987 37.8045 17.0234 37.8094 17.0483 37.8094C17.0732 37.8094 17.0979 37.8045 17.1209 37.795C17.1439 37.7854 17.1648 37.7715 17.1824 37.7538C17.2 37.7362 17.214 37.7153 17.2235 37.6923C17.233 37.6693 17.2379 37.6447 17.2379 37.6198C17.2379 37.5948 17.233 37.5702 17.2235 37.5472C17.214 37.5242 17.2 37.5033 17.1824 37.4857L16.615 36.9182L16.7778 36.7554C16.7959 36.7379 16.8103 36.7169 16.8202 36.6938C16.8301 36.6707 16.8353 36.6458 16.8355 36.6207C16.8356 36.5955 16.8308 36.5706 16.8213 36.5474C16.8117 36.5241 16.7976 36.503 16.7798 36.4852C16.762 36.4675 16.7408 36.4534 16.7175 36.4439C16.6943 36.4344 16.6693 36.4297 16.6442 36.4299C16.619 36.4302 16.5942 36.4355 16.5711 36.4454C16.548 36.4554 16.5271 36.4698 16.5097 36.4879L16.3468 36.6508L16.0347 36.3387L17.2892 36.3667L17.8256 36.9031L17.2794 37.4493C17.2617 37.4668 17.2478 37.4877 17.2382 37.5106C17.2287 37.5336 17.2238 37.5582 17.2238 37.583C17.2238 37.6079 17.2287 37.6325 17.2382 37.6554C17.2478 37.6784 17.2617 37.6992 17.2794 37.7167C17.2969 37.7343 17.3177 37.7483 17.3407 37.7579C17.3636 37.7674 17.3882 37.7723 17.4131 37.7723C17.4379 37.7723 17.4625 37.7674 17.4855 37.7579C17.5084 37.7483 17.5293 37.7343 17.5468 37.7167L18.093 37.1705L18.3339 37.4114C18.3515 37.429 18.3724 37.443 18.3954 37.4525C18.4184 37.4621 18.4431 37.467 18.468 37.467C18.4929 37.467 18.5176 37.4621 18.5406 37.4525C18.5636 37.443 18.5845 37.429 18.6021 37.4114C18.6197 37.3938 18.6337 37.3729 18.6432 37.3499C18.6527 37.3269 18.6576 37.3022 18.6576 37.2773C18.6576 37.2524 18.6527 37.2278 18.6432 37.2048C18.6337 37.1818 18.6197 37.1608 18.6021 37.1432L18.3612 36.9023L18.6203 36.6432C18.6885 36.5751 18.6862 36.4705 18.6286 36.3963L19.0915 36.4069L19.5718 36.8872L19.0407 37.4175C19.0231 37.4351 19.0091 37.456 18.9996 37.479C18.9901 37.502 18.9852 37.5267 18.9852 37.5516C18.9852 37.5765 18.9901 37.6011 18.9996 37.6241C19.0091 37.6471 19.0231 37.6681 19.0407 37.6857C19.0583 37.7033 19.0792 37.7172 19.1022 37.7268C19.1253 37.7363 19.1499 37.7412 19.1748 37.7412C19.1997 37.7412 19.2244 37.7363 19.2474 37.7268C19.2704 37.7172 19.2913 37.7033 19.3089 37.6857L19.84 37.1546L20.3013 37.616C20.3189 37.6336 20.3398 37.6475 20.3629 37.6571C20.3859 37.6666 20.4105 37.6715 20.4354 37.6715C20.4603 37.6715 20.485 37.6666 20.508 37.6571C20.531 37.6475 20.5519 37.6336 20.5695 37.616C20.5871 37.5984 20.6011 37.5774 20.6106 37.5544C20.6201 37.5314 20.6251 37.5068 20.6251 37.4819C20.6251 37.457 20.6201 37.4323 20.6106 37.4093C20.6011 37.3863 20.5871 37.3654 20.5695 37.3478L20.1059 36.8879L20.5536 36.4402L21.4695 36.4607C21.2081 37.1288 17.9362 45.4334 17.8665 45.6084C16.7877 48.3751 15.9763 49.3698 11.6354 48.9894ZM19.2854 44.0728C19.7778 42.8311 20.2665 41.5902 20.7498 40.3485C23.6725 40.4205 26.8688 40.4182 30.5044 40.341L32.0771 44.3341L19.2854 44.0728ZM41.6619 48.1001L41.6612 48.1008C41.3748 48.7501 40.4218 48.9167 39.6248 48.9887C35.3044 49.3728 34.4733 48.3796 33.3922 45.6084L29.8695 36.6591L30.746 36.6811L31.0324 36.9675L30.7081 37.2917C30.6901 37.3092 30.6757 37.3301 30.6658 37.3533C30.6559 37.3764 30.6507 37.4012 30.6505 37.4264C30.6504 37.4515 30.6552 37.4765 30.6647 37.4997C30.6743 37.523 30.6884 37.5441 30.7062 37.5619C30.724 37.5796 30.7452 37.5937 30.7685 37.6031C30.7917 37.6126 30.8167 37.6174 30.8418 37.6171C30.867 37.6169 30.8918 37.6116 30.9149 37.6017C30.938 37.5917 30.9589 37.5773 30.9763 37.5591L31.3006 37.2349L31.9301 37.8644L31.8066 37.9879C31.789 38.0055 31.7751 38.0264 31.7655 38.0495C31.756 38.0725 31.7511 38.0971 31.7511 38.122C31.7511 38.1469 31.756 38.1716 31.7655 38.1946C31.7751 38.2176 31.789 38.2385 31.8066 38.2561C31.8242 38.2737 31.8451 38.2877 31.8682 38.2972C31.8912 38.3068 31.9158 38.3117 31.9407 38.3117C31.9656 38.3117 31.9903 38.3068 32.0133 38.2972C32.0363 38.2877 32.0572 38.2737 32.0748 38.2561L32.1983 38.1326L32.346 38.2804C32.3816 38.3159 32.4298 38.3359 32.4801 38.3359C32.5304 38.3359 32.5786 38.3159 32.6142 38.2804C32.6498 38.2448 32.6697 38.1966 32.6697 38.1463C32.6697 38.096 32.6498 38.0477 32.6142 38.0122L32.4665 37.8644L32.9635 37.3675L34.4756 38.8796C34.5111 38.9152 34.5594 38.9351 34.6097 38.9351C34.66 38.9351 34.7082 38.9152 34.7438 38.8796C34.7793 38.844 34.7993 38.7958 34.7993 38.7455C34.7993 38.6952 34.7793 38.647 34.7438 38.6114L34.2816 38.1493C34.3165 38.1417 34.3528 38.1357 34.3801 38.1084L35.2233 37.2652L35.8574 37.8993L35.0081 38.7485C34.9905 38.7661 34.9766 38.7871 34.967 38.8101C34.9575 38.8331 34.9526 38.8577 34.9526 38.8826C34.9526 38.9075 34.9575 38.9322 34.967 38.9552C34.9766 38.9782 34.9905 38.9991 35.0081 39.0167C35.0258 39.0343 35.0467 39.0483 35.0697 39.0578C35.0927 39.0674 35.1173 39.0723 35.1422 39.0723C35.1671 39.0723 35.1918 39.0674 35.2148 39.0578C35.2378 39.0483 35.2587 39.0343 35.2763 39.0167L36.1256 38.1675L36.871 38.9129C36.8886 38.9305 36.9095 38.9445 36.9325 38.954C36.9556 38.9635 36.9802 38.9683 37.0051 38.9682C37.0104 38.9682 37.0142 38.9629 37.0195 38.9622L36.6059 39.3751L36.4574 39.2266C36.4398 39.209 36.4189 39.195 36.3959 39.1855C36.3729 39.1759 36.3482 39.171 36.3233 39.171C36.2984 39.171 36.2737 39.1759 36.2507 39.1855C36.2277 39.195 36.2068 39.209 36.1892 39.2266C36.1716 39.2442 36.1576 39.2651 36.1481 39.2881C36.1386 39.3111 36.1337 39.3358 36.1337 39.3607C36.1337 39.3856 36.1386 39.4102 36.1481 39.4332C36.1576 39.4562 36.1716 39.4771 36.1892 39.4948L36.3377 39.6432L35.9059 40.0751C35.8883 40.0927 35.8743 40.1136 35.8648 40.1366C35.8552 40.1596 35.8503 40.1842 35.8503 40.2091C35.8503 40.2341 35.8552 40.2587 35.8648 40.2817C35.8743 40.3047 35.8883 40.3256 35.9059 40.3432C35.9235 40.3608 35.9444 40.3748 35.9674 40.3843C35.9904 40.3939 36.0151 40.3988 36.04 40.3988C36.0649 40.3988 36.0895 40.3939 36.1125 40.3843C36.1355 40.3748 36.1564 40.3608 36.1741 40.3432L36.6059 39.9114L37.2862 40.591L36.7695 41.1076C36.7339 41.1432 36.714 41.1914 36.714 41.2417C36.714 41.292 36.7339 41.3403 36.7695 41.3758C36.8051 41.4114 36.8533 41.4314 36.9036 41.4314C36.9539 41.4314 37.0021 41.4114 37.0377 41.3758L37.5544 40.8591L37.9347 41.2394C37.9523 41.2571 37.9732 41.271 37.9962 41.2806C38.0192 41.2901 38.0438 41.295 38.0688 41.295C38.0937 41.295 38.1183 41.2901 38.1413 41.2806C38.1643 41.271 38.1852 41.2571 38.2028 41.2394C38.2205 41.2218 38.2344 41.2009 38.2439 41.1779C38.2535 41.1549 38.2584 41.1303 38.2584 41.1054C38.2584 41.0805 38.2535 41.0558 38.2439 41.0328C38.2344 41.0098 38.2205 40.9889 38.2028 40.9713L37.8225 40.591L38.2195 40.194L38.9491 40.9235L38.0627 41.8099C38.0284 41.7798 37.9839 41.7638 37.9383 41.7654C37.8926 41.7669 37.8493 41.7857 37.8171 41.818C37.7848 41.8504 37.7661 41.8938 37.7647 41.9394C37.7634 41.985 37.7794 42.0295 37.8097 42.0637L37.6778 42.1955C37.6597 42.213 37.6453 42.2338 37.6353 42.2569C37.6254 42.28 37.6201 42.3049 37.6199 42.33C37.6196 42.3552 37.6244 42.3801 37.6338 42.4034C37.6433 42.4267 37.6574 42.4478 37.6751 42.4656C37.6929 42.4835 37.714 42.4976 37.7373 42.5071C37.7605 42.5167 37.7855 42.5215 37.8106 42.5213C37.8358 42.5211 37.8606 42.5159 37.8837 42.506C37.9069 42.4962 37.9278 42.4818 37.9453 42.4637L38.0703 42.3387L39.4468 43.7152C39.4643 43.7328 39.4851 43.7468 39.5081 43.7563C39.531 43.7659 39.5556 43.7708 39.5805 43.7708C39.6053 43.7708 39.6299 43.7659 39.6529 43.7563C39.6758 43.7468 39.6967 43.7328 39.7142 43.7152C39.7318 43.6977 39.7458 43.6768 39.7553 43.6539C39.7649 43.631 39.7698 43.6063 39.7698 43.5815C39.7698 43.5566 39.7649 43.532 39.7553 43.5091C39.7458 43.4861 39.7318 43.4653 39.7142 43.4478L38.3377 42.0713L39.1695 41.2394C39.9081 42.9455 40.6453 44.6523 41.3869 46.3607C41.6475 46.9652 41.8862 47.5978 41.6619 48.1001ZM48.4831 9.11748C48.4135 15.7266 48.3377 22.741 48.2619 30.5349C48.2081 34.9682 47.0938 36.3311 42.2665 36.2137L42.1422 36.2107C40.6013 36.1698 39.0665 36.1304 37.5278 36.0963C35.4831 36.0394 33.8241 36.0008 29.3188 35.8887C26.9589 35.8281 24.6044 35.7751 22.2445 35.7213C21.4862 35.7031 17.1309 35.6016 14.0021 35.5364C12.7369 35.5016 11.4794 35.4735 10.2142 35.4463C3.77103 35.3061 1.69678 33.6864 1.56118 27.1038C1.42406 21.2175 1.60436 15.2576 2.09906 9.38793C2.58315 3.66823 4.46042 2.92429 8.45209 2.83263L41.2081 2.12808C47.1172 1.99929 48.5385 3.71293 48.4831 9.11748Z" fill="#DCFD68"/>
<path d="M43.1764 25.5099C42.5567 25.2659 41.8923 25.2833 41.2294 25.2833C39.2582 22.1871 38.6362 18.4326 39.2234 15.1091C39.2961 14.6985 39.5559 14.0326 39.6817 13.5841C39.9946 13.5174 40.2802 13.419 40.5287 13.2553C41.4537 12.6258 41.6491 11.4561 41.7234 10.2856C41.9044 7.24243 40.5112 7.08486 38.9203 7.05077C38.8689 7.05091 38.818 7.06149 38.7707 7.08186C38.7235 7.10224 38.6809 7.13199 38.6455 7.16932C38.6101 7.20664 38.5826 7.25076 38.5647 7.29901C38.5469 7.34725 38.539 7.39863 38.5415 7.45001C38.5484 7.56668 38.6893 9.61895 38.6355 9.72198C38.512 9.94925 37.5408 9.9485 37.387 9.76971C37.2499 9.61516 37.0999 7.54774 37.0794 7.32501C37.0707 7.23265 37.0284 7.14668 36.9606 7.08343C36.8927 7.02017 36.804 6.98402 36.7112 6.98183C36.084 6.96819 35.4491 6.94698 34.8226 6.92653C34.7259 6.92285 34.6314 6.9565 34.5588 7.02052C34.4862 7.08454 34.4409 7.17403 34.4324 7.27047C34.4105 7.50153 34.2574 9.61137 34.115 9.7735C33.9643 9.94774 32.9968 9.95304 32.8734 9.71743C32.8211 9.6235 32.9643 7.37728 32.9703 7.26137C32.9728 7.21082 32.965 7.16028 32.9476 7.11276C32.9302 7.06523 32.9034 7.02168 32.8689 6.98468C32.8344 6.94767 32.7928 6.91796 32.7466 6.8973C32.7004 6.87665 32.6505 6.86546 32.5999 6.8644C30.6756 6.82047 29.8438 7.38334 29.7135 9.54546C29.6514 10.4235 29.559 11.75 30.3287 12.6788C30.6794 13.0871 31.1734 13.3758 31.7612 13.5402C31.7999 14.5197 32.3999 17.1379 31.4037 20.9864C31.3809 20.9955 31.3552 20.9955 31.3362 21.0144C31.3022 21.0489 31.2828 21.0953 31.2823 21.1437C31.2817 21.1922 31.3 21.239 31.3332 21.2743C30.9573 22.6299 30.422 23.9363 29.7385 25.1659C27.6491 25.0182 26.94 25.8462 26.9476 26.7993C26.9521 27.3235 27.2188 27.8311 27.6271 28.1803C27.1181 28.7621 26.1749 29.8409 26.6408 30.9182C27.0703 31.919 28.2665 32.0667 29.3544 32.0174C33.2855 31.8447 37.2165 31.672 41.1506 31.5061C42.1696 31.4553 43.1809 31.2917 43.6749 30.45C43.9938 29.9121 44.0256 29.1349 43.537 28.2856C43.9544 28.0136 44.3067 27.5727 44.3218 27.0273V27.0212C44.3309 26.3038 43.7552 25.7462 43.1764 25.5099ZM40.3302 25.2818C37.2885 25.275 34.2355 25.2689 31.1885 25.2689C31.0105 25.2689 30.7514 25.247 30.5718 25.2303C30.5968 25.1833 30.6165 25.1341 30.6408 25.0871C30.9285 24.8067 31.2136 24.5236 31.4961 24.2379L32.0544 24.7962C32.072 24.8138 32.0929 24.8278 32.1159 24.8373C32.1389 24.8469 32.1636 24.8518 32.1885 24.8518C32.2134 24.8518 32.2381 24.8469 32.2611 24.8373C32.2841 24.8278 32.305 24.8138 32.3226 24.7962C32.3402 24.7786 32.3542 24.7577 32.3637 24.7347C32.3732 24.7117 32.3781 24.687 32.3781 24.6621C32.3781 24.6372 32.3732 24.6126 32.3637 24.5896C32.3542 24.5666 32.3402 24.5457 32.3226 24.528L31.7643 23.9697L32.8999 22.8341C32.9915 22.9076 33.0855 22.8902 33.1491 22.8265C33.1811 22.7933 33.1996 22.7494 33.201 22.7034C33.2024 22.6573 33.1866 22.6124 33.1567 22.5773L33.3453 22.3886C33.3809 22.3531 33.4009 22.3048 33.4009 22.2546C33.4009 22.2043 33.3809 22.156 33.3453 22.1205C33.3098 22.0849 33.2615 22.0649 33.2112 22.0649C33.1609 22.0649 33.1127 22.0849 33.0771 22.1205L32.8946 22.3046L32.24 21.6493L33.7059 20.1833L33.7317 20.2091C33.7491 20.2272 33.77 20.2417 33.7931 20.2516C33.8162 20.2616 33.841 20.2668 33.8662 20.2671C33.8913 20.2674 33.9163 20.2626 33.9396 20.2531C33.9629 20.2436 33.984 20.2296 34.0018 20.2118C34.0196 20.1941 34.0337 20.1729 34.0433 20.1497C34.0528 20.1264 34.0577 20.1015 34.0575 20.0763C34.0573 20.0512 34.0521 20.0263 34.0422 20.0032C34.0323 19.9801 34.0179 19.9592 33.9999 19.9417L33.9741 19.9159L34.187 19.703C34.2226 19.6675 34.2425 19.6192 34.2425 19.569C34.2425 19.5187 34.2226 19.4704 34.187 19.4349C34.1514 19.3993 34.1032 19.3793 34.0529 19.3793C34.0026 19.3793 33.9544 19.3993 33.9188 19.4349L33.7059 19.6477L32.9673 18.9091L33.9014 17.9743L34.137 18.2099C34.1546 18.2275 34.1755 18.2414 34.1985 18.251C34.2215 18.2605 34.2462 18.2654 34.2711 18.2654C34.296 18.2654 34.3206 18.2605 34.3437 18.251C34.3667 18.2414 34.3876 18.2275 34.4052 18.2099C34.4228 18.1923 34.4368 18.1713 34.4463 18.1483C34.4558 18.1253 34.4607 18.1007 34.4607 18.0758C34.4607 18.0509 34.4558 18.0262 34.4463 18.0032C34.4368 17.9802 34.4228 17.9593 34.4052 17.9417L34.1696 17.7061L34.6302 17.2455C34.6478 17.2279 34.6618 17.2071 34.6713 17.1842C34.6808 17.1612 34.6858 17.1366 34.6858 17.1118C34.6858 17.0869 34.6808 17.0623 34.6713 17.0394C34.6618 17.0164 34.6478 16.9956 34.6302 16.978C34.6126 16.9604 34.5918 16.9464 34.5689 16.9369C34.5459 16.9274 34.5213 16.9225 34.4965 16.9225C34.4716 16.9225 34.447 16.9274 34.4241 16.9369C34.4011 16.9464 34.3803 16.9604 34.3628 16.978L33.9021 17.4386L33.0514 16.5879L34.0135 15.6258L34.2756 15.8879C34.3112 15.9235 34.3594 15.9434 34.4097 15.9434C34.46 15.9434 34.5082 15.9235 34.5438 15.8879C34.5794 15.8523 34.5994 15.8041 34.5994 15.7538C34.5994 15.7035 34.5794 15.6553 34.5438 15.6197L34.2817 15.3576L34.484 15.1553C34.5195 15.1198 34.5395 15.0715 34.5395 15.0212C34.5395 14.9709 34.5195 14.9227 34.484 14.8871C34.4484 14.8516 34.4002 14.8316 34.3499 14.8316C34.2996 14.8316 34.2513 14.8516 34.2158 14.8871L34.0135 15.0894L33.4984 14.5743C33.5673 14.5053 34.3044 13.772 34.3673 13.6985H34.4347L35.2271 14.4909L34.9696 14.7485C34.79 14.928 35.0643 15.1894 35.2377 15.0159L35.4953 14.7583L35.9521 15.2152C35.9698 15.2328 35.9907 15.2467 36.0137 15.2563C36.0367 15.2658 36.0613 15.2707 36.0862 15.2707C36.1111 15.2707 36.1358 15.2658 36.1588 15.2563C36.1818 15.2467 36.2027 15.2328 36.2203 15.2152C36.2379 15.1976 36.2519 15.1766 36.2614 15.1536C36.271 15.1306 36.2759 15.106 36.2759 15.0811C36.2759 15.0562 36.271 15.0315 36.2614 15.0085C36.2519 14.9855 36.2379 14.9646 36.2203 14.947L35.7635 14.4902L36.5582 13.6955L37.2408 14.378L37.0953 14.5235C37.0777 14.5411 37.0637 14.562 37.0542 14.585C37.0447 14.608 37.0398 14.6327 37.0398 14.6576C37.0398 14.6825 37.0447 14.7071 37.0542 14.7302C37.0637 14.7532 37.0777 14.7741 37.0953 14.7917C37.1129 14.8093 37.1338 14.8233 37.1568 14.8328C37.1799 14.8423 37.2045 14.8472 37.2294 14.8472C37.2543 14.8472 37.279 14.8423 37.302 14.8328C37.325 14.8233 37.3459 14.8093 37.3635 14.7917L37.5158 14.6394C37.609 14.7083 37.6961 14.6924 37.759 14.6296C37.8264 14.5621 37.8241 14.4599 37.7688 14.3864L38.4756 13.6796C38.6029 13.6818 38.7317 13.6833 38.8643 13.6803C37.7037 17.1924 38.2203 21.7 40.3302 25.2818ZM31.1953 23.9364L31.2294 23.9705L31.1355 24.0644C31.1544 24.0212 31.1764 23.9796 31.1953 23.9364ZM33.8393 13.6993L33.2302 14.3083L32.5961 13.6743C32.9643 13.6924 33.4696 13.6977 33.8393 13.6993ZM36.0294 13.6902L35.4953 14.2243L34.9688 13.6977L36.0294 13.6902ZM37.5082 14.1121L37.0771 13.6811C37.4037 13.6788 37.6976 13.6773 37.9431 13.6773L37.5082 14.1121ZM32.7885 15.0174C32.8061 15.0351 32.827 15.0491 32.85 15.0586C32.873 15.0682 32.8977 15.0731 32.9226 15.0731C32.9475 15.0731 32.9722 15.0682 32.9952 15.0586C33.0182 15.0491 33.0391 15.0351 33.0567 15.0174L33.2302 14.844L33.7453 15.3591L32.7832 16.3212L32.715 16.253C32.7073 15.5626 32.6605 14.8731 32.5749 14.1879L32.9627 14.5758L32.7893 14.7493C32.7716 14.7668 32.7575 14.7877 32.7479 14.8106C32.7383 14.8336 32.7333 14.8583 32.7332 14.8832C32.7332 14.9081 32.738 14.9328 32.7475 14.9558C32.757 14.9789 32.7709 14.9998 32.7885 15.0174ZM32.6211 18.5636C32.6832 17.9955 32.7128 17.425 32.7211 16.853C32.7362 16.8508 32.7484 16.8417 32.762 16.8356L33.6332 17.7068L32.6984 18.6417L32.6211 18.5636ZM32.5415 19.1129C32.5734 19.1341 32.6067 19.1553 32.6431 19.1553C32.6514 19.1553 32.6582 19.147 32.6673 19.1455L33.4385 19.9167L32.1317 21.2235C32.312 20.5288 32.4423 19.8227 32.5415 19.1129ZM31.9218 21.9258C31.9362 21.9205 31.9506 21.9174 31.9635 21.9083L32.6271 22.5727L31.4968 23.703L31.3461 23.5523C31.5643 23.0182 31.7544 22.4758 31.9218 21.9258ZM30.4681 9.59319C30.5537 8.1735 30.8453 7.64774 32.1923 7.61895C32.1688 8.07122 31.9999 9.71062 32.2067 10.0773C32.6029 10.8364 34.215 10.8159 34.6847 10.2705C35.0574 9.84925 35.0112 9.18637 35.1521 7.69395C35.5529 7.70683 35.9552 7.71971 36.3559 7.72956C36.4923 9.1788 36.4468 9.85001 36.815 10.2659C37.2862 10.8121 38.8885 10.8402 39.3037 10.0765C39.5006 9.6985 39.3476 8.28031 39.3211 7.81668C40.3597 7.85153 41.0999 8.00531 40.9665 10.2371C40.9052 11.2159 40.7574 12.1818 40.1067 12.625C39.7514 12.8599 39.3514 12.9038 38.9271 12.919C38.8952 12.8954 38.8564 12.883 38.8167 12.8837C38.777 12.8844 38.7386 12.8981 38.7074 12.9227C32.6226 12.944 31.7256 13.1409 30.9059 12.1879C30.3787 11.5515 30.3976 10.5993 30.4681 9.59319ZM43.0226 30.0636L43.0218 30.0644C42.709 30.597 41.9188 30.7076 41.115 30.7477C37.184 30.9136 33.2521 31.0864 29.3196 31.2591C28.2105 31.3144 27.5415 31.0947 27.3362 30.6167C27.0491 29.9523 27.8135 29.1205 28.287 28.5727C28.8711 28.7909 29.6279 28.8106 30.2461 28.803L41.512 28.7068C41.9249 28.7008 42.4438 28.6826 42.8453 28.5796C43.1211 29.0197 43.2832 29.622 43.0226 30.0636ZM41.5006 27.95L30.2377 28.0462C29.4802 28.0538 27.715 28.0924 27.7037 26.7909C27.6923 25.4326 30.0567 26.0258 31.1885 26.0258C35.4832 26.0258 42.1029 25.9 42.8946 26.2121C43.2196 26.3447 43.5665 26.65 43.5643 27.0068C43.5362 27.8303 42.3203 27.9386 41.5006 27.95ZM21.1135 14.4227C18.8029 14.3818 16.8499 15.3583 17.2787 17.6068C17.4249 18.3712 17.3817 27.0947 17.3082 28.7682C17.2862 29.2682 17.259 29.8909 17.4968 30.4402C18.0181 31.6386 19.3931 31.8447 20.534 31.8909C23.637 32.0205 24.3749 30.7955 24.4135 28.3508L24.5824 17.5296C24.6165 15.1833 23.5711 14.4826 21.1135 14.4227ZM22.812 15.6583L22.4931 15.3394C22.6688 15.3841 22.8324 15.444 22.9832 15.5182C22.9665 15.5265 22.9461 15.525 22.9317 15.5394L22.812 15.6583ZM21.8779 15.2599L22.0984 15.4803L21.7181 15.8606L21.3779 15.5205L21.4802 15.4182C21.5415 15.3568 21.5393 15.269 21.4991 15.197C21.6211 15.2046 21.7431 15.2136 21.8635 15.2265C21.8711 15.2371 21.8688 15.2508 21.8779 15.2599ZM21.1802 15.1841L21.1105 15.2538L21.0377 15.1811H21.0953C21.1234 15.1811 21.1514 15.1833 21.1802 15.1841ZM20.1431 15.8659L20.4446 15.5644C20.4622 15.5468 20.4761 15.5259 20.4857 15.5029C20.4952 15.4799 20.5001 15.4552 20.5001 15.4303C20.5001 15.4054 20.4952 15.3808 20.4857 15.3577C20.4761 15.3347 20.4622 15.3138 20.4446 15.2962C20.427 15.2786 20.4061 15.2646 20.383 15.2551C20.36 15.2456 20.3354 15.2407 20.3105 15.2407C20.2856 15.2407 20.2609 15.2456 20.2379 15.2551C20.2149 15.2646 20.194 15.2786 20.1764 15.2962L19.8741 15.5977L19.6074 15.3311C19.9041 15.2561 20.2073 15.2095 20.5127 15.1917L20.8415 15.5205L20.3196 16.0424L20.1431 15.8659ZM18.5968 17.144C18.6144 17.1616 18.6353 17.1756 18.6583 17.1851C18.6814 17.1947 18.706 17.1996 18.7309 17.1996C18.7558 17.1996 18.7805 17.1947 18.8035 17.1851C18.8265 17.1756 18.8474 17.1616 18.865 17.144L18.9544 17.0546L19.1324 17.2326L18.2855 18.0796L18.0953 17.8894C18.0862 17.8803 18.0734 17.8826 18.0635 17.8758C18.0579 17.7383 18.0447 17.6012 18.0241 17.4652C17.9324 16.9856 17.984 16.5932 18.1673 16.2674L18.6862 16.7864L18.5968 16.8758C18.5792 16.8934 18.5652 16.9143 18.5557 16.9373C18.5461 16.9603 18.5412 16.9849 18.5412 17.0099C18.5412 17.0348 18.5461 17.0594 18.5557 17.0824C18.5652 17.1055 18.5792 17.1264 18.5968 17.144ZM18.0824 28.2477C18.0893 27.9886 18.0953 27.6765 18.1006 27.3227L18.7665 27.9886L18.2946 28.4599L18.0824 28.2477ZM18.1097 26.6811L18.1203 25.722L18.5946 26.1962L18.1097 26.6811ZM18.1279 24.6364L18.3915 24.9L18.1249 25.1674L18.1279 24.6364ZM18.134 22.8599L18.6143 23.3402L18.1317 23.8227C18.1332 23.503 18.134 23.1803 18.134 22.8599ZM18.1287 20.8894L18.6249 21.3856L18.1332 21.8773C18.1324 21.5394 18.1309 21.2091 18.1287 20.8894ZM18.0968 18.7447C18.1324 18.7379 18.1688 18.7311 18.1961 18.7038L18.2847 18.6152L18.959 19.2894L18.1218 20.1265C18.1158 19.6114 18.1074 19.1432 18.0968 18.7447ZM18.3968 15.9621C18.5976 15.7583 18.8703 15.5894 19.2021 15.4606L19.6074 15.8659L18.9537 16.519L18.3968 15.9621ZM23.8241 17.5182L23.6552 28.3394C23.6241 30.3606 23.2377 31.2417 20.5643 31.1341C19.5877 31.0947 18.5423 30.9455 18.1915 30.1386C18.0764 29.8735 18.0529 29.5538 18.0544 29.2364L18.2953 28.9955L18.5628 29.2636C18.5802 29.2817 18.6012 29.2961 18.6243 29.306C18.6474 29.3159 18.6723 29.3211 18.6974 29.3213C18.7226 29.3214 18.7475 29.3166 18.7708 29.3071C18.794 29.2975 18.8151 29.2834 18.8329 29.2656C18.8507 29.2478 18.8647 29.2266 18.8742 29.2033C18.8837 29.1801 18.8884 29.1551 18.8882 29.13C18.8879 29.1048 18.8827 29.08 18.8727 29.0569C18.8627 29.0338 18.8483 29.0129 18.8302 28.9955L18.5628 28.7273L19.4491 27.8409C19.4847 27.8054 19.5047 27.7571 19.5047 27.7068C19.5047 27.6565 19.4847 27.6083 19.4491 27.5727C19.4136 27.5372 19.3653 27.5172 19.315 27.5172C19.2647 27.5172 19.2165 27.5372 19.1809 27.5727L19.034 27.7212L18.3196 27.0068L18.862 26.4644L18.9128 26.5152C18.9304 26.5328 18.9513 26.5467 18.9743 26.5563C18.9973 26.5658 19.0219 26.5707 19.0468 26.5707C19.0717 26.5707 19.0964 26.5658 19.1194 26.5563C19.1424 26.5467 19.1633 26.5328 19.1809 26.5152C19.1985 26.4976 19.2125 26.4767 19.222 26.4536C19.2316 26.4306 19.2365 26.406 19.2365 26.3811C19.2365 26.3562 19.2316 26.3315 19.222 26.3085C19.2125 26.2855 19.1985 26.2646 19.1809 26.247L19.1302 26.1962L19.6347 25.6917C19.6523 25.6741 19.6663 25.6532 19.6758 25.6302C19.6854 25.6071 19.6903 25.5825 19.6903 25.5576C19.6903 25.5327 19.6854 25.508 19.6758 25.485C19.6663 25.462 19.6523 25.4411 19.6347 25.4235C19.6171 25.4059 19.5962 25.3919 19.5732 25.3824C19.5502 25.3729 19.5255 25.368 19.5006 25.368C19.4757 25.368 19.4511 25.3729 19.4281 25.3824C19.4051 25.3919 19.3841 25.4059 19.3665 25.4235L18.862 25.928L18.3802 25.4462L18.6847 25.1417C18.7506 25.1599 18.7938 25.1788 18.8665 25.1061C18.9165 25.0561 18.9203 24.9879 18.9021 24.9243L19.4779 24.3485C19.496 24.331 19.5105 24.3102 19.5204 24.2871C19.5304 24.264 19.5356 24.2391 19.5359 24.214C19.5361 24.1889 19.5314 24.1639 19.5219 24.1406C19.5124 24.1173 19.4984 24.0962 19.4806 24.0784C19.4629 24.0606 19.4417 24.0465 19.4185 24.0369C19.3952 24.0273 19.3703 24.0225 19.3451 24.0227C19.32 24.0229 19.2951 24.0281 19.272 24.038C19.2489 24.0479 19.228 24.0623 19.2105 24.0803L18.6597 24.6311L18.2431 24.2144C18.2612 24.2053 18.2824 24.2068 18.2968 24.1917L18.9105 23.578C18.9734 23.5917 19.0143 23.6053 19.0817 23.5379C19.1294 23.4902 19.1347 23.4273 19.1218 23.3667L19.5734 22.9152C19.591 22.8976 19.6049 22.8766 19.6145 22.8536C19.624 22.8306 19.6289 22.806 19.6289 22.7811C19.6289 22.7562 19.624 22.7315 19.6145 22.7085C19.6049 22.6855 19.591 22.6646 19.5734 22.647C19.5557 22.6294 19.5348 22.6154 19.5118 22.6059C19.4888 22.5963 19.4642 22.5914 19.4393 22.5914C19.4144 22.5914 19.3897 22.5963 19.3667 22.6059C19.3437 22.6154 19.3228 22.6294 19.3052 22.647L18.8817 23.0705L18.1771 22.3659L18.9241 21.619C19.0643 21.6379 19.1438 21.5394 19.1271 21.4159L20.0287 20.5144C20.0463 20.4968 20.0602 20.4759 20.0698 20.4529C20.0793 20.4299 20.0842 20.4052 20.0842 20.3803C20.0842 20.3554 20.0793 20.3308 20.0698 20.3077C20.0602 20.2847 20.0463 20.2638 20.0287 20.2462C20.0111 20.2286 19.9901 20.2146 19.9671 20.2051C19.9441 20.1956 19.9195 20.1907 19.8946 20.1907C19.8697 20.1907 19.845 20.1956 19.822 20.2051C19.799 20.2146 19.7781 20.2286 19.7605 20.2462L18.8915 21.1152L18.2779 20.5015L19.2324 19.547C19.3264 19.6174 19.4143 19.6 19.4771 19.5371C19.5446 19.4697 19.5423 19.3667 19.487 19.2932L19.8514 18.9288C19.8694 18.9113 19.8838 18.8904 19.8937 18.8673C19.9036 18.8441 19.9088 18.8193 19.909 18.7941C19.9092 18.769 19.9044 18.7441 19.8948 18.7208C19.8852 18.6975 19.8712 18.6764 19.8533 18.6587C19.8355 18.6409 19.8144 18.6269 19.7911 18.6174C19.7678 18.6079 19.7428 18.6031 19.7177 18.6034C19.6926 18.6036 19.6677 18.6089 19.6446 18.6188C19.6215 18.6288 19.6007 18.6433 19.5832 18.6614L19.2256 19.0189L18.5521 18.3447L19.3984 17.4985L19.5643 17.6644C19.5819 17.682 19.6028 17.696 19.6258 17.7055C19.6488 17.715 19.6735 17.7199 19.6984 17.7199C19.7233 17.7199 19.7479 17.715 19.7709 17.7055C19.7939 17.696 19.8148 17.682 19.8324 17.6644C19.8501 17.6468 19.864 17.6259 19.8736 17.6029C19.8831 17.5799 19.888 17.5552 19.888 17.5303C19.888 17.5054 19.8831 17.4808 19.8736 17.4577C19.864 17.4347 19.8501 17.4138 19.8324 17.3962L19.6665 17.2303L19.7756 17.1205C19.7937 17.103 19.8082 17.0821 19.8182 17.0591C19.8281 17.036 19.8334 17.0111 19.8336 16.986C19.8339 16.9608 19.8291 16.9359 19.8196 16.9126C19.8101 16.8893 19.7961 16.8681 19.7783 16.8503C19.7606 16.8325 19.7395 16.8184 19.7162 16.8089C19.6929 16.7993 19.668 16.7945 19.6429 16.7947C19.6177 16.7949 19.5929 16.8 19.5697 16.8099C19.5466 16.8198 19.5257 16.8342 19.5082 16.8523L19.3984 16.9621L19.2203 16.7841L19.8741 16.1311L20.7468 17.0038C20.7645 17.0214 20.7854 17.0354 20.8084 17.0449C20.8314 17.0544 20.856 17.0593 20.8809 17.0593C20.9058 17.0593 20.9305 17.0544 20.9535 17.0449C20.9765 17.0354 20.9974 17.0214 21.015 17.0038C21.0326 16.9862 21.0466 16.9653 21.0561 16.9423C21.0657 16.9193 21.0706 16.8946 21.0706 16.8697C21.0706 16.8448 21.0657 16.8201 21.0561 16.7971C21.0466 16.7741 21.0326 16.7532 21.015 16.7356L20.5877 16.3076L21.1097 15.7856L21.459 16.1349C21.409 16.2083 21.4067 16.3053 21.4718 16.3705C21.5355 16.4341 21.6143 16.4462 21.7074 16.3833L21.8097 16.4856C21.8273 16.5032 21.8482 16.5172 21.8712 16.5267C21.8942 16.5363 21.9189 16.5412 21.9438 16.5412C21.9687 16.5412 21.9934 16.5363 22.0164 16.5267C22.0394 16.5172 22.0603 16.5032 22.0779 16.4856C22.0955 16.468 22.1095 16.4471 22.119 16.4241C22.1285 16.4011 22.1334 16.3764 22.1334 16.3515C22.1334 16.3266 22.1285 16.302 22.119 16.279C22.1095 16.2559 22.0955 16.235 22.0779 16.2174L21.9847 16.1243L22.365 15.7432L22.5431 15.9212L22.4438 16.0205C22.4257 16.0379 22.4112 16.0588 22.4013 16.0819C22.3913 16.105 22.3861 16.1298 22.3858 16.155C22.3856 16.1801 22.3903 16.2051 22.3998 16.2283C22.4093 16.2516 22.4233 16.2728 22.4411 16.2906C22.4588 16.3084 22.48 16.3225 22.5032 16.3321C22.5265 16.3416 22.5514 16.3464 22.5766 16.3463C22.6017 16.3461 22.6266 16.3409 22.6497 16.331C22.6728 16.3211 22.6937 16.3067 22.7112 16.2886L22.8105 16.1894L22.834 16.2129C22.8695 16.2485 22.9178 16.2684 22.9681 16.2684C23.0183 16.2684 23.0666 16.2485 23.1021 16.2129C23.1377 16.1773 23.1577 16.1291 23.1577 16.0788C23.1577 16.0285 23.1377 15.9803 23.1021 15.9447L23.0787 15.9212L23.1976 15.8023C23.2302 15.7684 23.2489 15.7235 23.2499 15.6765C23.8377 16.1212 23.8355 16.7727 23.8241 17.5182ZM10.3544 19.3303C9.4976 19.3152 7.44078 19.3977 6.71199 20.4621C6.58169 20.653 6.54078 20.9546 6.56502 26.0091C6.5726 27.6023 6.58017 29.1076 6.55139 29.5659C6.52866 29.925 6.49836 30.4174 6.76502 30.85C7.29381 31.7106 8.58624 31.8606 9.78093 31.8947C12.1431 31.9599 13.6044 31.594 13.6559 29.2871L13.8249 21.6409C13.8688 19.7046 12.484 19.3667 10.3544 19.3303ZM10.7029 20.0977L10.6688 20.1318L10.6332 20.0962C10.6567 20.0962 10.6794 20.0962 10.7029 20.0977ZM7.32942 28.1015L7.32866 27.3735L7.69305 27.7379L7.32942 28.1015ZM7.30896 30.1318C7.29316 29.9592 7.29265 29.7856 7.30745 29.6129C7.31275 29.525 7.3173 29.3955 7.32033 29.2477L7.75669 29.6841L7.30896 30.1318ZM7.32033 25.5333L7.31881 25.2591L7.45669 25.397L7.32033 25.5333ZM7.3173 24.722L7.31578 24.1788C7.31805 24.2243 7.33321 24.2697 7.36805 24.3053C7.38558 24.3229 7.40642 24.3369 7.42936 24.3464C7.45231 24.356 7.47692 24.3609 7.50177 24.3609C7.52661 24.3609 7.55122 24.356 7.57417 24.3464C7.59711 24.3369 7.61795 24.3229 7.63548 24.3053L8.06805 23.8727L8.52487 24.3296L7.72411 25.1303L7.3173 24.722ZM7.36805 24.0371C7.33534 24.0712 7.31668 24.1164 7.31578 24.1636V23.1197L7.80063 23.6046L7.36805 24.0371ZM13.0673 21.6235L12.8984 29.2697C12.8734 30.4068 12.7468 31.2265 9.8029 31.1364C9.27336 31.122 7.90669 31.078 7.46427 30.5114L8.02487 29.9508C8.12336 30.0493 8.23699 30.0386 8.30896 29.9667C8.3266 29.9491 8.34059 29.9282 8.35014 29.9052C8.35969 29.8822 8.3646 29.8575 8.3646 29.8326C8.3646 29.8077 8.35969 29.783 8.35014 29.76C8.34059 29.737 8.3266 29.7161 8.30896 29.6985L8.29305 29.6826L9.20669 28.7689C9.2248 28.7515 9.23926 28.7306 9.24922 28.7075C9.25917 28.6844 9.26443 28.6596 9.26468 28.6345C9.26494 28.6093 9.26018 28.5844 9.25069 28.5611C9.2412 28.5378 9.22717 28.5166 9.20941 28.4988C9.19165 28.481 9.17053 28.4669 9.14727 28.4574C9.12401 28.4478 9.09907 28.443 9.07393 28.4432C9.04878 28.4433 9.02392 28.4485 9.0008 28.4584C8.97768 28.4683 8.95676 28.4827 8.93927 28.5008L8.02563 29.4144L7.32866 28.7174L7.32942 28.6371L7.96199 28.0046L8.07639 28.119C8.11195 28.1545 8.16018 28.1745 8.21048 28.1745C8.26077 28.1745 8.30901 28.1545 8.34457 28.119C8.38013 28.0834 8.40011 28.0352 8.40011 27.9849C8.40011 27.9346 8.38013 27.8863 8.34457 27.8508L8.23017 27.7364L8.94154 27.025C8.95965 27.0076 8.97411 26.9867 8.98406 26.9636C8.99402 26.9405 8.99928 26.9157 8.99953 26.8905C8.99979 26.8654 8.99503 26.8404 8.98554 26.8171C8.97605 26.7938 8.96202 26.7727 8.94426 26.7549C8.9265 26.7371 8.90538 26.723 8.88212 26.7134C8.85886 26.7039 8.83392 26.699 8.80878 26.6992C8.78363 26.6994 8.75877 26.7046 8.73565 26.7145C8.71253 26.7244 8.69161 26.7388 8.67411 26.7568L7.96275 27.4682L7.32639 26.8364L7.3226 26.0667L7.72411 25.6652L8.15214 26.0924C8.16964 26.1105 8.19056 26.1249 8.21368 26.1348C8.2368 26.1447 8.26166 26.1499 8.28681 26.1501C8.31195 26.1502 8.33689 26.1454 8.36015 26.1358C8.38341 26.1263 8.40453 26.1122 8.42229 26.0944C8.44005 26.0766 8.45408 26.0554 8.46357 26.0321C8.47306 26.0088 8.47782 25.9839 8.47756 25.9588C8.47731 25.9336 8.47205 25.9088 8.46209 25.8857C8.45214 25.8626 8.43768 25.8417 8.41957 25.8243L7.9923 25.397L8.90063 24.4886C8.91827 24.4711 8.93226 24.4502 8.94181 24.4271C8.95136 24.4041 8.95627 24.3795 8.95627 24.3546C8.95627 24.3296 8.95136 24.305 8.94181 24.282C8.93226 24.259 8.91827 24.2381 8.90063 24.2205L8.89911 24.2197C8.89078 24.1879 8.88699 24.1546 8.86199 24.1303L8.33624 23.6046L8.82033 23.1205C8.83794 23.1029 8.8519 23.082 8.86143 23.0589C8.87096 23.0359 8.87587 23.0113 8.87587 22.9864C8.87587 22.9615 8.87096 22.9368 8.86143 22.9138C8.8519 22.8908 8.83794 22.8699 8.82033 22.8523C8.80272 22.8347 8.78181 22.8207 8.7588 22.8112C8.7358 22.8016 8.71114 22.7967 8.68624 22.7967C8.66133 22.7967 8.63667 22.8016 8.61367 22.8112C8.59066 22.8207 8.56975 22.8347 8.55214 22.8523L8.06805 23.3364L7.31805 22.5864C7.31826 22.0844 7.32912 21.5826 7.35063 21.0811L8.04533 21.7758L7.48093 22.3402C7.44537 22.3757 7.42539 22.424 7.42539 22.4743C7.42539 22.5245 7.44537 22.5728 7.48093 22.6083C7.51649 22.6439 7.56473 22.6639 7.61502 22.6639C7.66532 22.6639 7.71355 22.6439 7.74911 22.6083L8.31351 22.044L8.77563 22.5061C8.79313 22.5241 8.81404 22.5385 8.83716 22.5484C8.86029 22.5583 8.88514 22.5635 8.91029 22.5637C8.93544 22.5639 8.96037 22.559 8.98363 22.5495C9.00689 22.5399 9.02802 22.5258 9.04577 22.508C9.06353 22.4902 9.07756 22.4691 9.08705 22.4458C9.09654 22.4225 9.1013 22.3975 9.10105 22.3724C9.10079 22.3472 9.09554 22.3224 9.08558 22.2993C9.07562 22.2762 9.06117 22.2553 9.04305 22.2379L8.58093 21.7758L8.94078 21.4159C8.95889 21.3985 8.97335 21.3776 8.98331 21.3545C8.99326 21.3314 8.99852 21.3066 8.99878 21.2814C8.99903 21.2563 8.99427 21.2313 8.98478 21.208C8.97529 21.1848 8.96126 21.1636 8.9435 21.1458C8.92575 21.128 8.90462 21.1139 8.88136 21.1043C8.8581 21.0948 8.83317 21.0899 8.80802 21.0901C8.78287 21.0903 8.75801 21.0955 8.73489 21.1054C8.71177 21.1153 8.69085 21.1297 8.67336 21.1477L8.31275 21.5076L7.51275 20.7076C7.67639 20.5705 7.90593 20.453 8.19002 20.3583L9.64533 21.8121C9.66277 21.8302 9.68365 21.8447 9.70674 21.8547C9.72984 21.8646 9.75468 21.8699 9.77983 21.8701C9.80497 21.8704 9.82992 21.8656 9.8532 21.8561C9.87649 21.8466 9.89766 21.8326 9.91547 21.8149C9.93327 21.7971 9.94737 21.776 9.95692 21.7527C9.96648 21.7295 9.9713 21.7045 9.97112 21.6794C9.97094 21.6542 9.96575 21.6294 9.95586 21.6062C9.94597 21.5831 9.93157 21.5622 9.91351 21.5447L8.61199 20.244C9.09884 20.1421 9.59491 20.0908 10.0923 20.0909L10.4014 20.4L9.8279 20.9735C9.81029 20.9911 9.79632 21.012 9.78679 21.035C9.77726 21.058 9.77236 21.0827 9.77236 21.1076C9.77236 21.1325 9.77726 21.1572 9.78679 21.1802C9.79632 21.2032 9.81029 21.2241 9.8279 21.2417C9.84551 21.2593 9.86642 21.2733 9.88942 21.2828C9.91243 21.2923 9.93709 21.2972 9.96199 21.2972C9.9869 21.2972 10.0116 21.2923 10.0346 21.2828C10.0576 21.2733 10.0785 21.2593 10.0961 21.2417L10.6696 20.6682L11.2249 21.2235C11.2424 21.2416 11.2633 21.256 11.2864 21.2658C11.3095 21.2757 11.3344 21.2809 11.3595 21.2811C11.3847 21.2813 11.4096 21.2765 11.4329 21.2669C11.4561 21.2574 11.4773 21.2433 11.495 21.2255C11.5128 21.2076 11.5268 21.1865 11.5363 21.1632C11.5458 21.1399 11.5505 21.115 11.5503 21.0898C11.55 21.0647 11.5448 21.0398 11.5348 21.0167C11.5249 20.9936 11.5104 20.9728 11.4923 20.9553L10.937 20.4L11.0741 20.2629C11.0922 20.2445 11.1062 20.2225 11.1153 20.1984C11.1245 20.1743 11.1285 20.1485 11.1271 20.1227C11.3688 20.1417 11.6082 20.1697 11.8309 20.2129L11.4521 20.5917C11.434 20.6091 11.4196 20.63 11.4096 20.6531C11.3997 20.6762 11.3944 20.701 11.3941 20.7262C11.3939 20.7513 11.3987 20.7763 11.4081 20.7996C11.4176 20.8228 11.4317 20.844 11.4494 20.8618C11.4672 20.8796 11.4883 20.8937 11.5116 20.9033C11.5348 20.9128 11.5598 20.9177 11.5849 20.9175C11.6101 20.9173 11.6349 20.9121 11.658 20.9022C11.6812 20.8923 11.7021 20.8779 11.7196 20.8599L12.1037 20.4758L12.5681 20.9402C12.5855 20.9583 12.6064 20.9727 12.6295 20.9827C12.6526 20.9926 12.6774 20.9979 12.7026 20.9982C12.7277 20.9984 12.7526 20.9937 12.7759 20.9842C12.7992 20.9747 12.8204 20.9606 12.8382 20.9429C12.856 20.9251 12.8701 20.904 12.8796 20.8807C12.8892 20.8575 12.894 20.8325 12.8938 20.8074C12.8937 20.7823 12.8885 20.7574 12.8786 20.7343C12.8687 20.7112 12.8543 20.6902 12.8362 20.6727L12.7294 20.5659C13.0779 20.8349 13.0779 21.1689 13.0673 21.6235ZM17.7044 6.31668V7.5644C17.7044 7.61463 17.7244 7.66281 17.7599 7.69833C17.7954 7.73384 17.8436 7.7538 17.8938 7.7538C17.944 7.7538 17.9922 7.73384 18.0277 7.69833C18.0633 7.66281 18.0832 7.61463 18.0832 7.5644V6.31668H20.487V7.50986C20.487 7.56009 20.5069 7.60826 20.5425 7.64378C20.578 7.6793 20.6262 7.69925 20.6764 7.69925C20.7266 7.69925 20.7748 7.6793 20.8103 7.64378C20.8458 7.60826 20.8658 7.56009 20.8658 7.50986V6.31668H22.2802V7.12122C22.2802 7.17145 22.3001 7.21963 22.3356 7.25514C22.3712 7.29066 22.4193 7.31062 22.4696 7.31062C22.5198 7.31062 22.568 7.29066 22.6035 7.25514C22.639 7.21963 22.659 7.17145 22.659 7.12122V6.31668H23.09C23.1403 6.31668 23.1884 6.29672 23.2239 6.26121C23.2595 6.22569 23.2794 6.17751 23.2794 6.12728C23.2794 6.07705 23.2595 6.02888 23.2239 5.99336C23.1884 5.95784 23.1403 5.93789 23.09 5.93789H22.659V5.44698C22.659 5.39675 22.639 5.34858 22.6035 5.31306C22.568 5.27754 22.5198 5.25759 22.4696 5.25759C22.4193 5.25759 22.3712 5.27754 22.3356 5.31306C22.3001 5.34858 22.2802 5.39675 22.2802 5.44698V5.93789H20.8658V5.3235C20.8658 5.27327 20.8458 5.22509 20.8103 5.18957C20.7748 5.15406 20.7266 5.1341 20.6764 5.1341C20.6262 5.1341 20.578 5.15406 20.5425 5.18957C20.5069 5.22509 20.487 5.27327 20.487 5.3235V5.93789H18.0832V5.50834C18.0832 5.45811 18.0633 5.40994 18.0277 5.37442C17.9922 5.3389 17.944 5.31895 17.8938 5.31895C17.8436 5.31895 17.7954 5.3389 17.7599 5.37442C17.7244 5.40994 17.7044 5.45811 17.7044 5.50834V5.93713H16.1665V5.07577C16.1665 5.02554 16.1466 4.97736 16.1111 4.94185C16.0755 4.90633 16.0274 4.88637 15.9771 4.88637C15.9269 4.88637 15.8787 4.90633 15.8432 4.94185C15.8077 4.97736 15.7878 5.02554 15.7878 5.07577V5.93789H13.7552V4.8288C13.7552 4.77857 13.7352 4.73039 13.6997 4.69488C13.6642 4.65936 13.616 4.6394 13.5658 4.6394C13.5156 4.6394 13.4674 4.65936 13.4319 4.69488C13.3963 4.73039 13.3764 4.77857 13.3764 4.8288V5.93789H10.2271C10.1769 5.93789 10.1287 5.95784 10.0932 5.99336C10.0577 6.02888 10.0378 6.07705 10.0378 6.12728C10.0378 6.17751 10.0577 6.22569 10.0932 6.26121C10.1287 6.29672 10.1769 6.31668 10.2271 6.31668H13.3764V7.30304C13.3764 7.35327 13.3963 7.40144 13.4319 7.43696C13.4674 7.47248 13.5156 7.49243 13.5658 7.49243C13.616 7.49243 13.6642 7.47248 13.6997 7.43696C13.7352 7.40144 13.7552 7.35327 13.7552 7.30304V6.31668H15.7878V7.50077C15.7878 7.551 15.8077 7.59917 15.8432 7.63469C15.8787 7.67021 15.9269 7.69016 15.9771 7.69016C16.0274 7.69016 16.0755 7.67021 16.1111 7.63469C16.1466 7.59917 16.1665 7.551 16.1665 7.50077V6.31668H17.7044Z" fill="#DCFD68"/>
</svg>
