<svg width="89" height="31" viewBox="0 0 89 31" fill="none" xmlns="http://www.w3.org/2000/svg">
<g clip-path="url(#clip0_1_4807)">
<path d="M16.5619 16.9917C19.3591 18.3512 22.2473 19.0284 24.6877 18.895C24.7025 18.895 24.7172 18.8925 24.732 18.8925L24.9066 0.805499C24.914 0.166773 24.2277 -0.218002 23.7209 0.138556L9.12988 10.4018C10.3107 12.7489 13.0415 15.2782 16.5619 16.9917Z" fill="#121212"/>
<path d="M24.0801 20.629C21.5339 20.629 18.6481 19.9005 15.8657 18.5487C12.028 16.6838 9.14223 14.0212 7.75472 11.3662L0.337454 16.5863C-0.243135 16.9942 -0.0315646 17.933 0.65973 18.0305L13.1178 19.7979C13.8509 19.9031 14.5225 20.2802 15.0096 20.8599L23.2879 30.7281C23.748 31.277 24.6139 30.9435 24.6213 30.2125L24.7148 20.6111C24.5057 20.6239 24.2941 20.629 24.0801 20.629Z" fill="#121212"/>
<path d="M24.0801 19.2594C21.5339 19.2594 18.6482 18.5308 15.8658 17.179C9.32188 13.9982 5.53821 8.50363 7.25291 4.66871C8.96762 0.836353 15.4377 0.325885 21.9817 3.50925C24.122 4.55071 26.063 5.89999 27.5932 7.41343C27.9229 7.73921 27.9376 8.28559 27.6252 8.62932C27.3103 8.97305 26.7887 8.98844 26.4591 8.66267C25.0568 7.27491 23.2683 6.03337 21.2854 5.06887C15.7674 2.38571 10.0255 2.53706 8.74621 5.39721C7.46694 8.25737 11.0464 12.9388 16.562 15.622C19.3592 16.9815 22.2449 17.6587 24.6878 17.5253C26.9437 17.4022 28.5084 16.6095 29.0988 15.2936C29.7114 13.9213 29.1185 12.3565 28.5133 11.2817C28.282 10.8713 28.4124 10.3454 28.806 10.1043C29.1997 9.86316 29.704 9.99912 29.9352 10.4095C31.0767 12.4283 31.3104 14.4215 30.5946 16.0196C29.736 17.9383 27.6695 19.0824 24.7764 19.2414C24.5451 19.2542 24.3139 19.2594 24.0801 19.2594Z" fill="#121212"/>
</g>
<path d="M48.71 25.3C47.47 25.3 46.31 25.21 45.23 25.03C44.17 24.85 43.25 24.59 42.47 24.25V20.68C43.35 21.04 44.3 21.33 45.32 21.55C46.34 21.77 47.34 21.88 48.32 21.88C49.72 21.88 50.75 21.75 51.41 21.49C52.07 21.23 52.4 20.64 52.4 19.72C52.4 19.14 52.26 18.68 51.98 18.34C51.7 18 51.21 17.7 50.51 17.44C49.83 17.16 48.86 16.85 47.6 16.51C45.58 15.95 44.16 15.25 43.34 14.41C42.52 13.57 42.11 12.41 42.11 10.93C42.11 9.15 42.76 7.78 44.06 6.82C45.36 5.86 47.25 5.38 49.73 5.38C50.89 5.38 51.97 5.46 52.97 5.62C53.97 5.78 54.78 5.97 55.4 6.19V9.76C53.76 9.14 52.05 8.83 50.27 8.83C49.01 8.83 48.02 8.97 47.3 9.25C46.58 9.51 46.22 10.07 46.22 10.93C46.22 11.43 46.35 11.83 46.61 12.13C46.87 12.43 47.31 12.7 47.93 12.94C48.57 13.18 49.46 13.45 50.6 13.75C52.18 14.17 53.4 14.67 54.26 15.25C55.12 15.83 55.71 16.49 56.03 17.23C56.37 17.97 56.54 18.8 56.54 19.72C56.54 21.4 55.9 22.75 54.62 23.77C53.34 24.79 51.37 25.3 48.71 25.3ZM64.5512 25.3C62.9112 25.3 61.6912 24.87 60.8912 24.01C60.1112 23.15 59.7212 21.98 59.7212 20.5V13.9H57.7112V10.78H59.7212V7.72L63.7712 6.52V10.78H67.3712L67.1312 13.9H63.7712V20.23C63.7712 21.01 63.9512 21.55 64.3112 21.85C64.6712 22.13 65.2312 22.27 65.9912 22.27C66.5512 22.27 67.1312 22.17 67.7312 21.97V24.76C67.2912 24.94 66.8112 25.07 66.2912 25.15C65.7712 25.25 65.1912 25.3 64.5512 25.3ZM70.7996 8.17V4.99H75.2096V8.17H70.7996ZM71.1296 25V13.78H68.9996L69.3596 10.78H75.1796V25H71.1296ZM78.628 25V10.78H82.378L82.558 12.25C83.198 11.85 83.988 11.49 84.928 11.17C85.888 10.83 86.828 10.6 87.748 10.48V13.54C87.208 13.62 86.618 13.74 85.978 13.9C85.338 14.06 84.728 14.24 84.148 14.44C83.568 14.64 83.078 14.85 82.678 15.07V25H78.628Z" fill="#121212"/>
<defs>
<clipPath id="clip0_1_4807">
<rect width="31" height="31" fill="white"/>
</clipPath>
</defs>
</svg>
