<svg width="108" height="111" viewBox="0 0 108 111" fill="none" xmlns="http://www.w3.org/2000/svg">
<path d="M81.0863 10.9185C87.4217 10.9256 93.4957 13.492 97.9755 18.0548C102.455 22.6176 104.975 28.804 104.982 35.2567L104.982 35.3786C104.982 35.4589 104.992 35.5793 105.001 35.7383C105.491 44.577 104.073 68.4411 80.3668 99.0196C80.1533 99.2942 79.8515 99.4832 79.5145 99.5533C79.1775 99.6233 78.8271 99.5699 78.525 99.4025C78.2229 99.2351 77.9886 98.9643 77.8633 98.6381C77.7381 98.3118 77.73 97.951 77.8405 97.6193C77.9076 97.4171 84.3862 77.6513 79.9596 59.5652C73.7249 59.2672 67.8521 56.4965 63.5971 51.8454C59.3421 47.1944 57.0428 41.0322 57.1907 34.6768C57.3387 28.3214 59.9222 22.2772 64.3888 17.8368C68.8554 13.3964 74.8506 10.9122 81.0922 10.9155L81.0863 10.9185ZM102.063 35.172C102.047 30.9499 100.803 26.8274 98.4883 23.3249C96.1735 19.8223 92.8917 17.0968 89.0573 15.4925C85.2229 13.8882 81.0078 13.4769 76.9441 14.3107C72.8804 15.1445 69.1503 17.1858 66.2248 20.1771C63.2993 23.1684 61.3096 26.9754 60.5068 31.1176C59.704 35.2598 60.1242 39.5513 61.7142 43.4505C63.3043 47.3496 65.993 50.6815 69.4408 53.0255C72.8886 55.3695 76.941 56.6205 81.0863 56.6205C81.4059 56.6206 81.7167 56.7275 81.9709 56.9249C82.225 57.1223 82.4086 57.3992 82.4933 57.7131C85.85 70.155 84.2037 83.2063 82.5356 91.1263C101.339 64.2982 102.52 43.8204 102.081 35.9048C102.061 35.6611 102.055 35.4164 102.063 35.172ZM26.8149 10.9185C33.1503 10.9256 39.2242 13.492 43.704 18.0548C48.1838 22.6176 50.7036 28.804 50.7106 35.2567L50.7106 35.3786C50.7106 35.4589 50.7208 35.5793 50.7296 35.7384C51.22 44.577 49.8014 68.4411 26.0954 99.0196C25.8819 99.2942 25.58 99.4832 25.243 99.5533C24.9061 99.6233 24.5556 99.5699 24.2535 99.4025C23.9514 99.2351 23.7171 98.9643 23.5919 98.6381C23.4667 98.3118 23.4586 97.951 23.569 97.6193C23.6362 97.4171 30.1147 77.6513 25.6882 59.5652C19.4534 59.2673 13.5806 56.4965 9.32566 51.8454C5.07069 47.1944 2.77131 41.0322 2.91927 34.6768C3.06722 28.3214 5.65074 22.2773 10.1174 17.8368C14.584 13.3964 20.5791 10.9122 26.8207 10.9155L26.8149 10.9185ZM47.7917 35.172C47.7755 30.9499 46.5315 26.8274 44.2168 23.3249C41.902 19.8223 38.6203 17.0968 34.7859 15.4925C30.9515 13.8882 26.7363 13.4769 22.6726 14.3107C18.6089 15.1445 14.8789 17.1858 11.9534 20.1771C9.02789 23.1684 7.03814 26.9754 6.23535 31.1176C5.43256 35.2598 5.8527 39.5513 7.44276 43.4505C9.03282 47.3496 11.7215 50.6815 15.1693 53.0255C18.6172 55.3695 22.6695 56.6205 26.8149 56.6205C27.1345 56.6206 27.4452 56.7275 27.6994 56.9249C27.9536 57.1223 28.1371 57.3992 28.2218 57.7131C31.5786 70.155 29.9323 83.2063 28.2641 91.1263C47.0678 64.2982 48.25 43.8204 47.8107 35.9048C47.7904 35.6611 47.784 35.4164 47.7917 35.172Z" fill="#F4F4F4"/>
</svg>
