<svg width="50" height="50" viewBox="0 0 50 50" fill="none" xmlns="http://www.w3.org/2000/svg">
<g clip-path="url(#clip0_1_4708)">
<mask id="mask0_1_4708" style="mask-type:luminance" maskUnits="userSpaceOnUse" x="0" y="0" width="50" height="50">
<path d="M50 0H0V50H50V0Z" fill="white"/>
</mask>
<g mask="url(#mask0_1_4708)">
<path fill-rule="evenodd" clip-rule="evenodd" d="M25 8.41123C23.1935 8.41123 21.729 9.8757 21.729 11.6823H13.3177C13.3177 5.23033 18.5481 0 25 0C31.452 0 36.6823 5.23033 36.6823 11.6823C36.6823 18.1342 31.452 23.3645 25 23.3645V14.9533C26.8065 14.9533 28.271 13.4888 28.271 11.6823C28.271 9.8757 26.8065 8.41123 25 8.41123ZM41.5887 25C41.5887 23.1935 40.1242 21.729 38.3177 21.729V13.3177C44.7697 13.3177 50 18.5481 50 25C50 31.452 44.7697 36.6823 38.3177 36.6823C31.8657 36.6823 26.6355 31.452 26.6355 25H35.0467C35.0467 26.8065 36.5112 28.271 38.3177 28.271C40.1242 28.271 41.5887 26.8065 41.5887 25ZM11.6823 28.271C9.8757 28.271 8.41123 26.8065 8.41123 25C8.41123 23.1935 9.8757 21.729 11.6823 21.729C13.4888 21.729 14.9533 23.1935 14.9533 25H23.3645C23.3645 18.5481 18.1342 13.3177 11.6823 13.3177C5.23033 13.3177 0 18.5481 0 25C0 31.452 5.23033 36.6823 11.6823 36.6823V28.271ZM25 41.5887C26.8065 41.5887 28.271 40.1242 28.271 38.3177H36.6823C36.6823 44.7697 31.452 50 25 50C18.5481 50 13.3177 44.7697 13.3177 38.3177C13.3177 31.8657 18.5481 26.6355 25 26.6355V35.0467C23.1935 35.0467 21.729 36.5112 21.729 38.3177C21.729 40.1242 23.1935 41.5887 25 41.5887Z" fill="#4A5FE1"/>
</g>
</g>
<defs>
<clipPath id="clip0_1_4708">
<rect width="50" height="50" fill="white"/>
</clipPath>
</defs>
</svg>
