<svg width="50" height="51" viewBox="0 0 50 51" fill="none" xmlns="http://www.w3.org/2000/svg">
<path d="M44.7647 19.8693C45.0418 18.7143 44.7097 17.31 44.049 16.5286C45.4133 14.5258 45.699 14.1793 45.8554 13.5929C46.214 12.25 45.1718 11.0236 43.2911 11.7165C41.5268 12.3665 40.1576 13.77 39.0368 15.0258C35.4383 8.77004 28.8768 4.95361 21.7068 4.95361C5.63755 4.95361 -3.9153 23.2058 5.05255 36.6279C10.749 45.875 22.5283 48.4072 31.0733 44.4286C38.3418 41.0443 43.1783 32.9736 42.6326 24.9736C44.3361 25.0079 46.0426 25.0129 47.3397 23.895C48.1468 23.4736 48.4654 22.8065 48.3868 22.2915C48.2418 21.2365 46.8018 20.9258 44.7654 19.8686L44.7647 19.8693ZM21.4454 37.3093C14.9911 36.9608 10.024 31.3593 10.374 24.8243C10.5433 21.6565 11.9211 18.7436 14.2526 16.6236C19.7297 11.6443 28.2854 12.9493 32.0926 19.2736C32.1104 19.69 32.1518 20.1093 32.2368 20.5243L26.6661 22.9C24.8968 19.5129 20.449 18.8686 17.8011 21.4958C14.2447 25.0229 16.7226 31.1743 21.7047 31.2008H21.719C24.6083 31.2008 26.9761 29.0215 27.2761 26.1679L33.7261 24.2215C34.4854 31.5786 28.5247 37.6879 21.4454 37.3093ZM33.1326 17.8522C33.1097 17.045 33.1176 16.3329 33.4418 15.8022C33.9397 14.9965 35.0976 14.8179 35.9847 15.0536C37.0876 15.3579 37.9918 16.1572 38.8597 16.8986C39.0097 17.0265 39.2633 17.2615 39.4426 17.4536L33.2433 20.0958C33.1304 19.3822 33.1511 18.5 33.1326 17.8522ZM43.0761 17.0708C43.7697 17.6065 44.0268 19.3822 43.5504 20.0536L43.2926 20.1479C42.7026 19.855 42.2361 18.1586 42.6733 17.2422L43.0761 17.0708ZM42.1761 20.5458C42.0618 20.5815 23.8904 26.07 23.6633 26.1386C23.589 25.86 23.4797 25.7115 23.2797 25.5093C27.4676 23.7215 37.4983 19.4472 41.4483 17.7643C41.3626 18.6779 41.6026 19.8036 42.1761 20.5458ZM22.5618 24.6508L21.9354 24.9186C21.3283 24.8172 20.834 24.7065 20.8026 24.585C20.8327 24.5212 20.8766 24.4649 20.9311 24.42C21.0459 24.3109 21.1839 24.2291 21.3348 24.1809C21.4856 24.1326 21.6454 24.119 21.8023 24.1412C21.9591 24.1634 22.1089 24.2208 22.2404 24.309C22.3719 24.3972 22.4818 24.5141 22.5618 24.6508ZM23.5568 24.2265C23.4216 23.9719 23.237 23.7468 23.014 23.5642C22.7909 23.3817 22.5338 23.2452 22.2576 23.1629L22.2647 22.7343C22.2658 22.664 22.2531 22.5941 22.2272 22.5287C22.2013 22.4632 22.1628 22.4035 22.1139 22.353C22.0649 22.3024 22.0065 22.262 21.9419 22.2341C21.8774 22.2061 21.8079 22.1912 21.7376 22.19C21.4447 22.2079 21.1983 22.4215 21.1933 22.7172L21.1868 23.1236C20.0547 23.3808 19.4626 24.355 19.8304 25.0915C20.2261 25.8715 21.3547 25.8486 22.1954 26.07C22.3668 26.1165 22.4754 26.195 22.6197 26.3772C22.7511 26.5443 22.0861 27.2158 21.164 26.8386C20.9961 26.77 20.8754 26.6786 20.8411 26.5943C20.8146 26.5291 20.7754 26.4698 20.7258 26.4198C20.6762 26.3698 20.6172 26.3301 20.5522 26.303C20.4872 26.2759 20.4174 26.2619 20.347 26.2619C20.2766 26.2619 20.2069 26.2758 20.1418 26.3029C19.499 26.5665 19.7904 27.6543 21.1911 27.9608L21.1983 28.3608C21.2003 28.5015 21.2577 28.6357 21.3579 28.7345C21.4582 28.8333 21.5933 28.8886 21.734 28.8886H21.7418C21.8122 28.8875 21.8816 28.8725 21.9462 28.8446C22.0108 28.8166 22.0692 28.7762 22.1182 28.7257C22.1671 28.6751 22.2056 28.6154 22.2315 28.55C22.2574 28.4846 22.2701 28.4147 22.269 28.3443L22.2618 27.9472C22.7011 27.84 23.0904 27.6043 23.3583 27.2829C23.644 27.3343 23.4247 27.2786 26.1411 26.51C25.7097 28.5922 23.8983 30.1293 21.7204 30.1293H21.709C19.214 30.115 17.189 28.0486 17.1961 25.5215C17.2033 22.8815 19.3761 20.8965 21.7418 20.9493C23.4004 20.955 24.8933 21.8743 25.6818 23.32L23.5568 24.2265ZM40.1633 22.2786C40.0646 22.7021 39.9154 23.1122 39.719 23.5C38.884 25.1336 37.3254 25.7636 36.6647 25.575C36.1168 25.425 35.2933 24.5493 34.884 23.8722L40.1633 22.2786ZM47.3268 22.445C47.3283 22.4565 47.3197 22.5186 47.254 22.615C47.0326 22.9208 46.5997 23.1143 45.8933 23.2222C44.4734 23.4336 43.0251 23.3485 41.6397 22.9722C41.6006 22.605 41.5503 22.2391 41.489 21.875C42.5411 21.5408 42.1854 21.6943 43.3983 21.2493C43.6318 21.2472 43.839 21.1872 44.094 20.9965C44.2183 20.9522 44.3268 20.915 44.4083 20.8893C44.7104 21.0422 45.0776 21.2136 45.4647 21.3943C45.7361 21.5208 47.2911 22.2 47.3268 22.445ZM43.6626 12.7222C44.3968 12.4486 45.0226 12.56 44.8197 13.3172C44.7226 13.6815 44.5726 13.8565 43.1504 15.95C42.6747 15.8515 42.2933 16.0143 41.9811 16.3715L40.4611 17.02C40.2141 16.7116 39.9405 16.4255 39.6433 16.165C39.6218 16.1208 39.5961 16.0793 39.574 16.0343C40.7118 14.7465 42.0011 13.3329 43.6626 12.7222ZM21.8526 6.02576C28.2168 6.08361 33.9961 9.28504 37.4647 14.5258C35.2976 13.3165 33.3118 13.9729 32.529 15.2408C32.1247 15.9015 32.054 16.6758 32.0526 17.3436C29.789 14.49 26.434 12.7222 22.7711 12.5308C15.6154 12.145 9.6797 17.7222 9.30327 24.7672C8.90827 32.1622 14.7483 38.3972 22.0647 38.3972C28.9754 38.3972 34.8004 32.7586 34.8576 25.5672C35.829 26.55 36.5861 26.93 37.8618 26.515C39.0233 26.1165 40.0404 25.2065 40.6561 24.0165C41.4211 35.1108 32.6304 44.62 21.5347 44.5265C11.059 44.4379 2.60255 35.7322 2.68398 25.12C2.77398 14.2843 11.6697 5.88147 21.8526 6.02576Z" fill="#DCFD68"/>
<path d="M7.1645 19.8379C7.29093 19.8379 7.41327 19.7931 7.50988 19.7115C7.60648 19.63 7.67112 19.5169 7.69236 19.3922C7.90192 18.1912 8.44893 17.0746 9.2695 16.1729C9.36555 16.0682 9.41604 15.9295 9.40988 15.7876C9.40372 15.6456 9.3414 15.5118 9.23664 15.4158C9.13188 15.3197 8.99326 15.2692 8.85127 15.2754C8.70927 15.2816 8.57555 15.3439 8.4795 15.4486C7.52035 16.5025 6.88114 17.8077 6.63664 19.2115C6.62342 19.2885 6.62718 19.3674 6.64766 19.4427C6.66813 19.5181 6.70483 19.588 6.75519 19.6477C6.80554 19.7074 6.86833 19.7553 6.93915 19.7882C7.00998 19.821 7.08642 19.838 7.1645 19.8379ZM25.3838 41.1379C26.9285 41.1608 28.4408 40.6939 29.7038 39.8044C29.8198 39.7222 29.8985 39.5974 29.9225 39.4573C29.9464 39.3172 29.9138 39.1732 29.8316 39.0572C29.7495 38.9412 29.6247 38.8625 29.4846 38.8385C29.3444 38.8146 29.2005 38.8472 29.0845 38.9294C28.0088 39.6893 26.7193 40.0875 25.4024 40.0665C25.2608 40.0662 25.1247 40.1211 25.023 40.2196C24.9212 40.318 24.8618 40.4522 24.8574 40.5936C24.8551 40.7356 24.9092 40.8727 25.0079 40.9747C25.1066 41.0768 25.2418 41.1355 25.3838 41.1379Z" fill="#DCFD68"/>
</svg>
