<svg width="40" height="41" viewBox="0 0 40 41" fill="none" xmlns="http://www.w3.org/2000/svg">
<g clip-path="url(#clip0_1_6563)">
<path d="M30.625 30.2515C31.6588 30.2515 32.5 29.4102 32.5 28.3765C32.5 27.3427 31.6588 26.5015 30.625 26.5015C29.5912 26.5015 28.75 27.3427 28.75 28.3765C28.75 29.4102 29.5912 30.2515 30.625 30.2515ZM30.625 27.7515C30.7488 27.7513 30.8698 27.7879 30.9728 27.8566C31.0758 27.9253 31.1561 28.023 31.2035 28.1374C31.2509 28.2517 31.2634 28.3776 31.2393 28.499C31.2151 28.6204 31.1555 28.7319 31.068 28.8195C30.9805 28.907 30.8689 28.9666 30.7475 28.9907C30.6261 29.0148 30.5003 29.0024 30.3859 28.955C30.2716 28.9075 30.1739 28.8273 30.1052 28.7243C30.0365 28.6213 29.9999 28.5003 30 28.3765C30 28.0315 30.2806 27.7515 30.625 27.7515Z" fill="white"/>
<path d="M36.975 25.7377C36.8821 25.518 36.8568 25.2757 36.9023 25.0415C36.9478 24.8074 37.0622 24.5922 37.2306 24.4233L38.14 23.5133L35.4875 20.8608L34.5769 21.7708C34.2325 22.1158 33.7163 22.2158 33.2388 22.0158C33.0197 21.9259 32.8325 21.7728 32.7009 21.576C32.5693 21.3791 32.4994 21.1476 32.5 20.9108V19.6265H31.2181C31.1643 18.6375 30.9781 17.6603 30.6644 16.7208L37.8969 9.48834C38.3669 9.02096 38.7396 8.46501 38.9933 7.85264C39.247 7.24028 39.3767 6.58368 39.375 5.92084C39.375 3.13959 37.1119 0.876465 34.3306 0.876465C32.9831 0.876465 31.7162 1.40146 30.7638 2.35396L23.5387 9.57959C22.5855 9.26355 21.5937 9.07832 20.5906 9.02896C19.7281 7.52209 18.1075 6.50146 16.25 6.50146C15.7744 6.50146 15.3156 6.57271 14.8787 6.69709C13.8 4.66896 11.7044 3.37646 9.375 3.37646C5.92875 3.37646 3.125 6.18021 3.125 9.62646C3.125 10.1052 3.18375 10.5765 3.29062 11.0377C2.52041 11.2713 1.84561 11.7462 1.36569 12.3923C0.885774 13.0384 0.626119 13.8216 0.625 14.6265C0.625 16.6946 2.30687 18.3765 4.375 18.3765H8.90875C8.80395 18.996 8.75085 19.6231 8.75 20.2515C8.75 21.6271 9.00438 22.7465 9.415 23.7027L3.83938 29.279L0.736875 37.3452C0.621443 37.6483 0.596136 37.9783 0.664004 38.2954C0.731872 38.6126 0.890018 38.9033 1.11938 39.1326C1.34874 39.3619 1.63952 39.52 1.95668 39.5877C2.27384 39.6555 2.60383 39.6301 2.90688 39.5146L10.9731 36.4121L15.05 32.3346C15.0194 32.469 15 32.6077 15 32.7515C15 33.2333 15.1881 33.669 15.4875 34.0015C15.1751 34.343 15.0013 34.7887 15 35.2515C15 36.1202 15.5969 36.8465 16.4 37.0577C16.9325 38.5827 18.3587 39.6265 20 39.6265C21.6413 39.6265 23.0675 38.5827 23.6 37.0577C24 36.9534 24.3543 36.7197 24.6075 36.3929C24.8607 36.0662 24.9988 35.6648 25 35.2515C25 35.2046 24.9894 35.1608 24.9862 35.1152L25.7625 35.8915L26.6731 34.9815C27.0175 34.6365 27.5319 34.5358 28.0106 34.7352C28.2296 34.8257 28.4169 34.9793 28.5485 35.1763C28.6801 35.3734 28.7503 35.6051 28.75 35.8421V37.1265H32.5V35.8421C32.5 35.3558 32.7906 34.9215 33.2637 34.7258C33.4833 34.6329 33.7256 34.6076 33.9596 34.6531C34.1937 34.6986 34.4088 34.813 34.5775 34.9815L35.4875 35.8915L38.14 33.239L37.2306 32.329C36.8862 31.984 36.7856 31.4683 36.985 30.9908C37.0751 30.7718 37.2283 30.5845 37.4252 30.4528C37.6221 30.3211 37.8538 30.251 38.0906 30.2515H39.375V26.5015H38.0906C37.6044 26.5015 37.1706 26.2108 36.975 25.7377ZM27.61 27.5802C28.2919 26.9146 28.975 26.2346 29.5644 25.4483C29.9036 25.321 30.2626 25.2544 30.625 25.2515C32.3481 25.2515 33.75 26.6533 33.75 28.3765C33.75 30.0996 32.3481 31.5015 30.625 31.5015C28.9019 31.5015 27.5 30.0996 27.5 28.3765C27.5 28.1058 27.5419 27.8396 27.61 27.5802ZM28.3606 12.7752L31.25 9.88521L33.4912 12.1265L30.1531 15.4646C29.6871 14.4872 29.0834 13.5815 28.3606 12.7752ZM29.0088 5.87646L30 4.88521L35.3662 10.2515L34.375 11.2427L29.0088 5.87646ZM34.3306 2.12646C35.3366 2.12779 36.3009 2.52798 37.0122 3.23927C37.7235 3.95057 38.1237 4.91492 38.125 5.92084C38.1264 6.41933 38.0289 6.91314 37.8381 7.3737C37.6474 7.83426 37.3672 8.25241 37.0137 8.60396L36.25 9.36771L30.8838 4.00146L31.6475 3.23771C31.9991 2.88435 32.4173 2.6042 32.8778 2.41346C33.3384 2.22272 33.8321 2.12517 34.3306 2.12646ZM28.125 6.76021L30.3662 9.00146L27.4781 11.8896C26.6724 11.1661 25.7672 10.5618 24.79 10.0952L28.125 6.76021ZM30 20.2515C30 23.5033 28.3625 25.1008 26.6287 26.7915C25.435 27.9558 24.2087 29.1596 23.495 30.914C23.3732 30.8891 23.2493 30.8765 23.125 30.8765H20.625V27.7515C20.625 26.7177 19.7838 25.8765 18.75 25.8765H17.5C17.3391 25.8693 17.1871 25.8003 17.0758 25.6839C16.9645 25.5674 16.9023 25.4125 16.9023 25.2515C16.9023 25.0904 16.9645 24.9355 17.0758 24.8191C17.1871 24.7027 17.3391 24.6337 17.5 24.6265H23.75C24.7838 24.6265 25.625 23.7852 25.625 22.7515C25.625 21.7177 24.7838 20.8765 23.75 20.8765H18.75C18.4056 20.8765 18.125 20.5965 18.125 20.2515V18.3765H21.25C22.9731 18.3765 24.375 16.9746 24.375 15.2515C24.375 13.5283 22.9731 12.1265 21.25 12.1265C21.2325 12.1265 21.2162 12.1315 21.1987 12.1315C21.2256 11.9227 21.25 11.714 21.25 11.5015C21.2483 11.102 21.1988 10.7042 21.1025 10.3165C26.085 10.8715 30 15.1477 30 20.2515ZM16.25 32.7515C16.25 32.4065 16.5306 32.1265 16.875 32.1265H23.125C23.2859 32.1337 23.4379 32.2027 23.5492 32.3191C23.6605 32.4355 23.7227 32.5904 23.7227 32.7515C23.7227 32.9126 23.6605 33.0674 23.5492 33.1839C23.4379 33.3003 23.2859 33.3693 23.125 33.3765H16.875C16.5306 33.3765 16.25 33.0965 16.25 32.7515ZM8.38375 32.7515L12.9781 28.1571C13.7469 28.9196 14.4606 29.6908 14.9869 30.6302L10.625 34.9927L8.38375 32.7515ZM1.875 14.6265C1.875 13.2477 2.99625 12.1265 4.375 12.1265C5.75375 12.1265 6.875 13.2477 6.875 14.6265H8.125C8.125 12.6127 6.52812 10.969 4.535 10.8846C4.42843 10.4737 4.37467 10.0509 4.375 9.62646C4.375 6.86959 6.61812 4.62646 9.375 4.62646C10.2636 4.62667 11.1359 4.86441 11.9017 5.31506C12.6676 5.76572 13.299 6.4129 13.7306 7.18959C13.0571 7.58293 12.4849 8.12828 12.0596 8.78209C11.6343 9.4359 11.3678 10.1801 11.2812 10.9552C10.19 11.224 9.375 12.2033 9.375 13.3765H10.625C10.625 12.6871 11.1856 12.1265 11.875 12.1265C12.5644 12.1265 13.125 12.6871 13.125 13.3765H14.375C14.375 12.2296 13.595 11.2715 12.5406 10.9777C12.7969 9.15771 14.36 7.75146 16.25 7.75146C18.3181 7.75146 20 9.43334 20 11.5015C20 11.8302 19.9463 12.1521 19.8625 12.4658C18.8375 12.979 18.125 14.029 18.125 15.2515H19.375C19.375 14.2177 20.2162 13.3765 21.25 13.3765C22.2838 13.3765 23.125 14.2177 23.125 15.2515C23.125 16.2852 22.2838 17.1265 21.25 17.1265H4.375C2.99625 17.1265 1.875 16.0052 1.875 14.6265ZM16.875 18.3765V20.2515C16.875 21.2852 17.7162 22.1265 18.75 22.1265H23.75C23.9109 22.1337 24.0629 22.2027 24.1742 22.3191C24.2855 22.4355 24.3477 22.5904 24.3477 22.7515C24.3477 22.9125 24.2855 23.0674 24.1742 23.1839C24.0629 23.3003 23.9109 23.3693 23.75 23.3765H17.5C16.4663 23.3765 15.625 24.2177 15.625 25.2515C15.625 26.2852 16.4663 27.1265 17.5 27.1265H18.75C19.0944 27.1265 19.375 27.4065 19.375 27.7515V30.8765H16.875C16.7481 30.8765 16.6244 30.8896 16.505 30.914C15.7913 29.1596 14.565 27.9558 13.3712 26.7915C11.6375 25.1008 10 23.5033 10 20.2515C10 19.6196 10.0756 18.9933 10.1925 18.3765H16.875ZM12.0856 27.2821L7.5 31.8677L5.25875 29.6265L10.0275 24.8577C10.6144 25.779 11.3419 26.5477 12.0856 27.2821ZM4.61313 30.7483L9.50313 35.6383L5.36313 37.2308L3.02063 34.8883L4.61313 30.7483ZM2.45875 38.3477C2.18813 38.4527 1.875 38.2371 1.875 37.9471C1.875 37.894 1.885 37.8421 1.90313 37.7933L2.52937 36.1646L4.08625 37.7215L2.45875 38.3477ZM20 38.3765C19.5562 38.3762 19.12 38.2609 18.734 38.0418C18.3479 37.8228 18.0253 37.5074 17.7975 37.1265H22.2025C21.9747 37.5074 21.6521 37.8228 21.266 38.0418C20.88 38.2609 20.4438 38.3762 20 38.3765ZM23.125 35.8765H16.875C16.7141 35.8693 16.5621 35.8003 16.4508 35.6839C16.3395 35.5674 16.2773 35.4126 16.2773 35.2515C16.2773 35.0904 16.3395 34.9355 16.4508 34.8191C16.5621 34.7027 16.7141 34.6337 16.875 34.6265H23.125C23.2859 34.6337 23.4379 34.7027 23.5492 34.8191C23.6605 34.9355 23.7227 35.0904 23.7227 35.2515C23.7227 35.4126 23.6605 35.5674 23.5492 35.6839C23.4379 35.8003 23.2859 35.8693 23.125 35.8765ZM38.125 29.0015H38.0906C37.0962 29.0015 36.2087 29.5952 35.8213 30.534C35.6325 30.9821 35.5816 31.4763 35.6751 31.9534C35.7686 32.4306 36.0023 32.869 36.3462 33.2127L36.3725 33.239L35.4875 34.124L35.4613 34.0977C34.7562 33.3927 33.7038 33.1858 32.7619 33.5808C32.3138 33.765 31.9308 34.0785 31.6615 34.4812C31.3922 34.8839 31.249 35.3577 31.25 35.8421V35.8765H30V35.8421C30 34.8477 29.4062 33.9602 28.4675 33.5721C28.0193 33.383 27.5249 33.332 27.0475 33.4257C26.5702 33.5193 26.1317 33.7533 25.7881 34.0977L25.7619 34.124L24.915 33.2771C24.965 33.109 25 32.9352 25 32.7515C25 32.3077 24.8387 31.9052 24.58 31.5833C24.9688 30.534 25.5781 29.6946 26.2875 28.9196C26.5563 31.0758 28.3969 32.7515 30.625 32.7515C33.0375 32.7515 35 30.7883 35 28.3765C35 25.9646 33.0375 24.0015 30.625 24.0015C30.5637 24.0015 30.5044 24.0077 30.4437 24.0102C30.8669 23.1321 31.1575 22.114 31.2306 20.8765H31.25V20.9108C31.25 21.9052 31.8438 22.7933 32.7819 23.1802C33.23 23.3695 33.7244 23.4207 34.2018 23.3272C34.6792 23.2336 35.1177 22.9997 35.4613 22.6552L35.4875 22.629L36.3725 23.514L36.3462 23.5402C35.6425 24.2446 35.4362 25.2965 35.8294 26.239C36.0134 26.6872 36.3268 27.0704 36.7295 27.3398C37.1322 27.6092 37.6061 27.7525 38.0906 27.7515H38.125V29.0015Z" fill="white"/>
</g>
<defs>
<clipPath id="clip0_1_6563">
<rect width="40" height="40" fill="white" transform="translate(0 0.251465)"/>
</clipPath>
</defs>
</svg>
