<svg width="50" height="51" viewBox="0 0 50 51" fill="none" xmlns="http://www.w3.org/2000/svg">
<path d="M12.568 13.6455C11.2346 14.7667 10.4013 15.9334 10.2725 15.85C10.1513 15.7894 10.8255 14.4258 12.2271 13.244C13.621 12.047 15.068 11.6 15.1134 11.7288C15.1665 11.8728 13.8862 12.5091 12.568 13.6455ZM11.2952 11.6228C9.71949 13.2364 8.85585 14.8803 8.71191 14.8121C8.58312 14.7667 9.26494 12.9485 10.9165 11.2591C12.5528 9.55457 14.3559 8.81972 14.4013 8.94093C14.4771 9.0773 12.8559 9.99396 11.2952 11.6228ZM32.3028 41.0697C31.621 41.0394 31.2271 40.8803 31.2346 40.8121C31.2498 40.7288 31.6589 40.7591 32.2877 40.6909C32.924 40.6303 33.7801 40.4334 34.674 40.047C36.4619 39.2591 37.7271 38.2137 37.8331 38.35C37.9165 38.4334 36.7877 39.6909 34.8862 40.5394C33.9392 40.9561 32.9846 41.1076 32.3028 41.0697ZM35.5755 41.797C37.9468 41.0243 39.5604 39.7137 39.6589 39.8424C39.7649 39.9258 38.2346 41.4788 35.7422 42.297C33.2574 43.1379 31.1059 42.797 31.1362 42.6758C31.1437 42.5167 33.2119 42.6 35.5755 41.797ZM16.7195 41.1C17.424 42.2818 18.2725 43.6985 19.2043 45.2591C19.6589 46.0394 20.1362 46.8424 20.7952 47.4182C21.121 47.7061 21.4922 47.9182 21.9013 48.0243C22.3104 48.1379 22.7725 48.1606 23.1816 48.0546C24.0149 47.8652 24.6513 47.1682 24.8559 46.3576C24.9113 46.1573 24.9444 45.9515 24.9543 45.744C24.9468 45.6531 24.9392 45.6076 24.924 45.5167L24.8407 45.2061C24.7119 44.7743 24.5452 44.35 24.3862 43.9258C23.7195 42.2515 23.0452 40.7515 22.4922 39.494C21.3786 36.9712 20.6816 35.4182 20.8028 35.35C20.9316 35.2743 21.871 36.7212 23.1665 39.1682C23.8104 40.3955 24.5604 41.8652 25.2952 43.5621C25.4771 43.9864 25.6513 44.4334 25.8104 44.9106L25.9165 45.297C25.9468 45.4409 25.9771 45.6379 25.9771 45.7894C25.9619 46.0697 25.9392 46.3576 25.8559 46.6303C25.5983 47.7515 24.6665 48.8121 23.424 49.0924C22.1968 49.3879 20.9316 48.9637 20.0983 48.1985C19.2649 47.4409 18.7877 46.5394 18.3407 45.7364C17.9013 44.9409 17.4846 44.1758 17.0907 43.4712C16.7043 42.7515 16.3559 42.0773 16.0452 41.4561C14.8028 38.9788 14.1816 37.3728 14.3104 37.3121C14.4543 37.2515 15.318 38.7288 16.7195 41.1Z" fill="#DCFD68"/>
<path d="M4.68917 22.8728C5.9922 21.3198 7.74977 20.4334 9.40886 19.7743C10.2422 19.4486 11.0755 19.1758 11.8861 18.9183C12.1664 18.8273 12.4467 18.744 12.7195 18.6607L12.8786 18.6077L13.0755 18.5395L13.4922 18.388C13.924 18.2516 14.3407 18.0622 14.7498 17.8804C18.0225 16.388 20.6361 14.3273 22.6589 12.494C24.674 10.6304 26.0755 8.88795 26.9316 7.60765C27.068 7.40311 27.1892 7.21371 27.3028 7.03189C27.3861 6.55462 27.4922 6.08492 27.6437 5.61523C27.871 4.94098 28.174 4.26674 28.6286 3.66826C29.0983 3.08492 29.7043 2.53947 30.4619 2.26674C31.2043 2.00917 32.0149 1.92583 32.7498 2.08492C32.9316 2.1228 33.121 2.14553 33.3028 2.19098L33.818 2.3728C34.174 2.47886 34.4846 2.64553 34.8028 2.80462C36.0604 3.46371 37.1134 4.35008 38.068 5.27432C39.9316 7.16826 41.4013 9.26674 42.5755 11.3728C44.9164 15.5925 46.2574 19.7819 46.7801 23.388C47.3028 26.9864 46.9695 30.0546 46.0074 31.9107C45.6487 32.6306 45.1081 33.2443 44.4392 33.691C43.9467 33.9334 43.674 34.0092 43.6664 33.9864C43.6513 33.9486 43.8937 33.797 44.318 33.5167C44.6967 33.1758 45.2498 32.638 45.6361 31.7364C46.424 29.9486 46.6437 26.994 46.0301 23.5016C45.4316 20.0092 44.0377 15.9334 41.7195 11.8501C40.5604 9.8122 39.1134 7.80462 37.3331 6.00917C36.424 5.13795 35.4316 4.31977 34.318 3.73644C33.2195 3.16826 31.9392 2.8425 30.8407 3.25917C30.2877 3.45614 29.8483 3.85765 29.4695 4.3122C29.1058 4.78947 28.8407 5.35765 28.6437 5.94856C28.2498 7.13795 28.121 8.42583 28.121 9.67583C28.121 12.1077 28.5604 14.4561 29.1589 16.638L29.2574 16.6077L29.9619 16.4258C30.4316 16.3122 30.8861 16.2061 31.3407 16.1228C32.2422 15.941 33.0983 15.8046 33.9013 15.6986C34.6967 15.6001 35.4695 15.5092 36.1892 15.5243C36.9089 15.5319 37.568 15.6531 38.1134 15.888C38.6589 16.1228 39.068 16.4713 39.3028 16.8122C39.7877 17.5319 39.6134 18.0546 39.568 18.0319C39.477 18.0395 39.477 17.5849 38.9846 17.0773C38.5074 16.5622 37.5074 16.1834 36.1967 16.2743C35.5452 16.3046 34.8255 16.4258 34.0301 16.5698C33.2422 16.7061 32.4089 16.8728 31.5377 17.0773C31.1058 17.1758 30.6589 17.2895 30.2043 17.4107C29.9771 17.4713 29.7498 17.5395 29.5225 17.6001C29.4998 17.6077 29.4998 17.6077 29.5074 17.6152C29.7877 18.4183 30.0755 19.2592 30.3786 20.1077C30.7195 21.0773 31.1816 21.9789 31.5528 22.8804C31.6361 23.0773 31.7574 23.3501 31.8407 23.547C31.8786 23.6304 31.924 23.7213 31.9695 23.8046H31.977L32.121 23.7516C32.3331 23.6683 32.5377 23.5773 32.7498 23.494C34.3861 22.8046 35.7877 22.0319 36.8634 21.244C37.9316 20.4486 38.727 19.691 39.0983 19.0849C39.4846 18.4713 39.4846 18.0395 39.5755 18.0395C39.6361 18.0243 39.7877 18.5016 39.4695 19.2743C39.1513 20.0395 38.3937 20.9258 37.3331 21.8349C36.2574 22.744 34.8255 23.6304 33.1513 24.3955C32.9392 24.4864 32.727 24.5849 32.5149 24.6758L32.4392 24.7061C33.1134 25.9561 33.8407 27.0925 34.568 28.1152C36.568 30.9183 38.7422 32.8046 40.5301 33.5773C40.6134 33.6001 40.6967 33.6228 40.7725 33.6455C41.3028 33.797 41.7043 33.9183 41.9846 34.0167C42.3331 34.0698 42.6361 34.0849 42.8861 34.0622C43.3937 34.0092 43.6664 33.941 43.6816 33.9864C43.6892 34.0092 43.4392 34.1531 42.9089 34.2743C42.3786 34.388 41.5377 34.3728 40.5528 34.0395C40.4316 34.0016 40.3028 33.941 40.174 33.888C39.121 33.6986 37.727 33.441 36.0377 33.2516C34.0528 33.0243 31.6437 32.941 28.9619 33.2743C27.621 33.4486 26.2119 33.691 24.7649 34.0774C24.0377 34.244 23.3104 34.4789 22.5604 34.6986C22.1816 34.8046 21.818 34.9486 21.4392 35.0698L20.871 35.2667C20.6816 35.3349 20.4695 35.3955 20.3786 35.4486L20.068 35.638L19.7801 35.3728C19.7498 35.3501 19.727 35.3198 19.6967 35.2895C19.3786 35.4637 18.8786 35.691 18.2043 35.941C16.9089 36.4031 14.9543 36.9637 12.4392 36.994C11.1892 36.9864 9.78765 36.8425 8.37856 36.3046C6.96947 35.7819 5.58311 34.7364 4.63614 33.3122C3.69674 31.8955 3.07553 30.1607 2.98462 28.3046C2.89371 26.4637 3.37856 24.441 4.68917 22.8728ZM21.1058 34.1152C21.4922 33.994 21.871 33.8501 22.2574 33.7516C23.0225 33.5319 23.7725 33.3046 24.5225 33.1455C26.0074 32.7743 27.4695 32.5546 28.8483 32.4031C31.621 32.1228 34.0983 32.2895 36.1058 32.6077C37.0528 32.7592 37.8937 32.9258 38.6361 33.1001C37.1134 32.1304 35.477 30.5925 33.9467 28.5622C33.1005 27.437 32.3287 26.2577 31.6361 25.0319L31.5225 25.0774L31.4392 25.1077C31.4089 25.1228 31.4089 25.0622 31.3937 25.047C31.1361 24.4864 30.8786 23.9107 30.6134 23.3198C30.2195 22.4031 29.7422 21.4864 29.3861 20.4864C29.2422 20.0622 29.1058 19.6455 28.9619 19.2364C28.8331 18.8804 28.7119 18.5092 28.5907 18.1455C28.4846 17.8349 28.3786 17.5243 28.2801 17.2213L28.2195 17.047L28.1892 16.9637C28.1892 16.9486 28.174 16.9334 28.174 16.9258L28.2043 16.9183C27.5604 14.6758 27.0907 12.2516 27.068 9.68341C27.068 9.14553 27.0983 8.5925 27.1513 8.03947C26.371 9.38795 25.0604 11.1607 23.1664 13.0395C21.1589 14.994 18.5452 17.1531 15.1513 18.7743C14.7195 18.9713 14.2952 19.1683 13.8331 19.3273L13.6589 19.388L13.5831 19.4183C13.5831 19.4183 13.568 19.4183 13.5755 19.4258C13.5755 19.441 13.5755 19.4107 13.5831 19.4637L13.6058 19.8198C13.674 20.7592 13.7877 21.7213 13.9619 22.6834C14.3104 24.6077 14.9164 26.5546 15.8255 28.4031C16.9695 30.7213 18.5301 32.7289 20.2422 34.3955C20.3407 34.3652 20.4316 34.3349 20.5225 34.3046L21.1058 34.1152ZM4.0225 28.2667C4.08311 29.9183 4.62098 31.5016 5.44674 32.7819C6.2725 34.0698 7.43159 34.9713 8.69674 35.494C9.96189 36.0167 11.2649 36.1986 12.4467 36.2516C14.8331 36.3198 16.7725 35.8955 18.068 35.5622C18.6892 35.3955 19.1664 35.244 19.5149 35.1455C17.7119 33.4183 16.068 31.3274 14.8634 28.888C13.9013 26.9334 13.2725 24.888 12.924 22.8804C12.7422 21.8728 12.6361 20.8804 12.5831 19.9031C12.5831 19.8577 12.5755 19.8198 12.5755 19.7743C12.568 19.7743 12.5604 19.7819 12.5528 19.7819H12.5452L12.4846 19.8046L12.1816 19.9031C11.3861 20.1607 10.5755 20.4334 9.78008 20.7592C8.19674 21.3955 6.60583 22.2364 5.4922 23.5698C4.40129 24.8652 3.95432 26.6228 4.0225 28.2667Z" fill="#DCFD68"/>
</svg>
