<svg width="40" height="41" viewBox="0 0 40 41" fill="none" xmlns="http://www.w3.org/2000/svg">
<g clip-path="url(#clip0_1_6577)">
<path d="M28.9713 9.39546C28.9713 9.09882 28.6959 8.86718 28.4791 8.86718C28.4283 8.86718 28.3777 8.87453 28.3416 8.90351L26.5036 10.0973C26.3373 10.206 26.2793 10.3797 26.2793 10.5027C26.2793 10.6256 26.3373 10.7993 26.5036 10.9079L28.3416 12.1018C28.3777 12.1307 28.4284 12.138 28.479 12.138C28.6959 12.138 28.9712 11.9065 28.9712 11.6098C28.9712 11.4868 28.9206 11.3782 28.8409 11.3275L27.5671 10.5027L28.8409 9.67773C28.9203 9.6271 28.9713 9.51843 28.9713 9.39546ZM32.6111 6.92078C32.4808 6.92078 32.3648 6.97843 32.3072 7.10179L29.7671 12.3187C29.7455 12.3621 29.7309 12.4127 29.7309 12.4564C29.7309 12.637 29.8902 12.8397 30.1364 12.8397C30.2738 12.8397 30.4114 12.7673 30.462 12.659L33.0091 7.44179C33.0307 7.39835 33.038 7.34773 33.038 7.30406C33.0377 7.07281 32.8134 6.92078 32.6111 6.92078ZM36.2653 10.0973L34.4275 8.90359C34.3912 8.87453 34.3405 8.86718 34.2898 8.86718C34.0729 8.86718 33.7979 9.09882 33.7979 9.39546C33.7979 9.51843 33.8486 9.6271 33.9282 9.67773L35.2016 10.5027L33.9282 11.3275C33.8485 11.3782 33.7979 11.4869 33.7979 11.6098C33.7979 11.9065 34.0729 12.138 34.2898 12.138C34.3405 12.138 34.3912 12.1308 34.4275 12.1018L36.2652 10.9079C36.4319 10.7993 36.4895 10.6256 36.4895 10.5027C36.4895 10.3797 36.4319 10.206 36.2653 10.0973Z" fill="white"/>
<path d="M37.1666 3.16475H24.5506C23.8988 1.46295 22.2481 0.251465 20.3197 0.251465H11.8577C9.36103 0.251465 7.32955 2.28303 7.32955 4.77959V9.92154C6.82471 10.3565 6.59002 11.0367 6.71424 11.7215L7.04689 13.552C7.1665 14.1806 7.50041 14.5038 7.75916 14.664C8.04877 14.8431 8.3701 14.9023 8.66525 14.9038V15.2292C8.66525 16.8796 9.62807 18.6984 11.3068 20.2197C11.6178 20.5015 11.945 20.7649 12.2867 21.0086V21.9901C12.2867 22.135 12.236 22.2754 12.1433 22.3869C12.0506 22.4984 11.9218 22.5739 11.7792 22.6004C11.7656 22.6029 11.7521 22.6058 11.7386 22.6093C11.7286 22.612 10.7228 22.8741 9.40775 23.2471H5.11127C4.87146 23.2475 4.63428 23.297 4.41438 23.3927C4.19449 23.4884 3.99656 23.6281 3.83283 23.8033C3.66963 23.9791 3.54426 24.1864 3.46447 24.4126C3.38469 24.6387 3.35219 24.8789 3.369 25.1181L3.38057 25.2835C1.45892 26.2472 0.249862 27.9751 0.134471 29.939L0.133533 29.9637L0.000174079 38.0292C-0.00716967 38.6206 0.218065 39.1782 0.633377 39.599C1.04939 40.0198 1.60385 40.2515 2.19556 40.2515H29.9821C30.5735 40.2515 31.1284 40.0198 31.5441 39.599C31.9597 39.1782 32.1849 38.6208 32.1776 38.0267L32.0442 29.9637C32.0439 29.9555 32.0436 29.9472 32.043 29.939C31.9246 27.9184 30.6484 26.1478 28.6287 25.202C28.5918 25.1847 28.553 25.1669 28.5131 25.1489L28.5152 25.1181C28.5318 24.8789 28.4992 24.6388 28.4195 24.4127C28.3397 24.1866 28.2144 23.9792 28.0513 23.8034C27.8876 23.6282 27.6897 23.4884 27.4698 23.3927C27.2499 23.297 27.0127 23.2475 26.7729 23.2471H22.7699C21.4553 22.8741 20.4491 22.6119 20.439 22.6096C20.4256 22.6059 20.4121 22.6028 20.3984 22.6004C20.2558 22.5739 20.1271 22.4984 20.0344 22.3869C19.9417 22.2754 19.8909 22.135 19.8909 21.9901V21.0089C20.2325 20.765 20.5597 20.5015 20.8708 20.2197C21.9378 19.2529 22.7156 18.1658 23.1407 17.0783H26.9478L26.2828 19.7622C26.1721 20.2099 26.3496 20.6622 26.7354 20.9146C26.9167 21.0333 27.1199 21.0922 27.3223 21.0922C27.5512 21.0922 27.7788 21.0172 27.9729 20.8679L32.9063 17.0783H37.1666C38.7105 17.0783 39.9663 15.8225 39.9663 14.2786V5.96436C39.9663 4.42076 38.7105 3.16475 37.1666 3.16475ZM23.5137 10.9338C23.7377 10.8576 23.9498 10.8261 24.088 10.8136C24.2721 10.9769 24.3587 11.2458 24.3105 11.5119L23.9796 13.3331C23.9314 13.5873 23.8338 13.6478 23.8017 13.6676C23.7337 13.7097 23.6333 13.7314 23.5131 13.7326L23.5137 10.9338ZM8.50142 4.77967C8.50142 2.92904 10.0072 1.42334 11.8578 1.42334H20.32C22.1706 1.42334 23.6763 2.92904 23.6763 4.77959V9.68896C23.3864 9.74029 23.0254 9.83857 22.6729 10.0265V6.45623C22.6729 5.1724 21.6283 4.12779 20.3444 4.12779H18.7608C18.2118 4.12779 17.6756 4.3192 17.2506 4.66646L17.0955 4.79342C16.8123 5.02506 16.4546 5.15256 16.0888 5.15256C15.7229 5.15256 15.3655 5.02506 15.0823 4.79373L14.9269 4.66639C14.5004 4.3185 13.967 4.12829 13.4166 4.12779H11.8335C10.5496 4.12779 9.50494 5.17209 9.50494 6.45631V10.0262C9.15244 9.83857 8.79142 9.73998 8.5015 9.68904L8.50142 4.77967ZM8.37603 13.6676C8.344 13.6478 8.24635 13.5873 8.199 13.3379L7.86728 11.5122C7.81908 11.246 7.90572 10.9775 8.08916 10.8139C8.22744 10.8264 8.43978 10.8572 8.66416 10.9335L8.66471 13.7326C8.54478 13.7314 8.44439 13.7097 8.37603 13.6676ZM3.19166 38.6551C3.19166 38.8022 3.21182 38.9444 3.24908 39.0796H2.19556C1.91978 39.0796 1.66119 38.9715 1.46713 38.7753C1.37189 38.6795 1.29672 38.5656 1.246 38.4404C1.19528 38.3152 1.17003 38.1811 1.17174 38.046L1.3051 29.9958C1.39181 28.5889 2.1715 27.369 3.47244 26.5714L4.18775 36.6083C4.20088 36.7926 4.24306 36.9687 4.30892 37.1326C3.66197 37.3365 3.19174 37.9419 3.19174 38.6551L3.19166 38.6551ZM27.6961 36.6083L28.423 26.4096C29.8933 27.1985 30.7799 28.4897 30.8727 29.9958L31.006 38.0435C31.0079 38.179 30.9828 38.3135 30.932 38.4391C30.8813 38.5648 30.8061 38.6791 30.7106 38.7753C30.6156 38.872 30.5022 38.9488 30.3771 39.001C30.252 39.0533 30.1177 39.08 29.9821 39.0796H28.9288C28.9663 38.9444 28.9861 38.8022 28.9861 38.6551C28.9861 37.8455 28.3804 37.175 27.5982 37.0727C27.6521 36.9232 27.6851 36.7669 27.6962 36.6083H27.6961ZM27.8142 38.6551C27.814 38.7676 27.7693 38.8755 27.6898 38.955C27.6103 39.0346 27.5024 39.0794 27.3899 39.0796H4.78783C4.67532 39.0794 4.56748 39.0346 4.48796 38.955C4.40843 38.8754 4.36372 38.7676 4.36361 38.6551C4.36378 38.5426 4.40852 38.4348 4.48805 38.3553C4.56757 38.2758 4.67537 38.231 4.78783 38.2308H27.3901C27.5026 38.231 27.6104 38.2758 27.6899 38.3553C27.7694 38.4348 27.8142 38.5426 27.8143 38.6551L27.8142 38.6551ZM27.1938 24.602C27.2479 24.6596 27.2894 24.7278 27.3157 24.8023C27.3419 24.8769 27.3524 24.956 27.3463 25.0348L26.5273 36.5253C26.5059 36.8247 26.2542 37.059 25.9538 37.059H5.93002C5.63002 37.059 5.3783 36.8247 5.35658 36.525L4.53783 25.0348C4.5318 24.956 4.54226 24.8769 4.56853 24.8023C4.5948 24.7278 4.63631 24.6596 4.69041 24.602C4.74403 24.544 4.80913 24.4977 4.88158 24.4662C4.95404 24.4347 5.03226 24.4186 5.11127 24.419H26.773C26.9341 24.419 27.0836 24.484 27.1938 24.602ZM19.2338 23.2471H12.9439C13.274 22.912 13.4589 22.4604 13.4588 21.9901V21.7279C14.3825 22.2062 15.3005 22.4744 16.0887 22.4744C16.8769 22.4744 17.7949 22.2062 18.719 21.7279V21.9901C18.7188 22.4604 18.9038 22.912 19.2338 23.2471ZM20.0838 19.3512C18.7755 20.5365 17.2075 21.3025 16.0887 21.3025C14.9703 21.3025 13.4023 20.5365 12.094 19.3512C10.6596 18.052 9.83721 16.5494 9.83721 15.2289L9.83596 11.5375C9.84361 11.5375 9.85127 11.5378 9.85885 11.5378C9.96478 11.5378 10.0716 11.517 10.1738 11.4743C10.3229 11.4123 10.4503 11.3076 10.5398 11.1732C10.6293 11.0389 10.677 10.881 10.6767 10.7196V6.45631C10.6767 5.8185 11.1955 5.29967 11.8334 5.29967H13.417C13.6961 5.29967 13.969 5.39701 14.185 5.57373L14.3406 5.701C14.8326 6.10287 15.4534 6.32443 16.0887 6.32443C16.724 6.32443 17.3452 6.10287 17.8371 5.70068L17.9924 5.57373C18.2094 5.39672 18.4808 5.29993 18.7609 5.29967H20.3441C20.9819 5.29967 21.501 5.81842 21.501 6.45631V10.7196C21.501 11.0507 21.6981 11.3468 22.0039 11.4743C22.1132 11.5201 22.2282 11.5405 22.3414 11.5375L22.3406 15.2292C22.3409 16.5494 21.5181 18.0521 20.0838 19.3512H20.0838ZM38.7944 14.2786C38.7944 15.1761 38.0645 15.9064 37.1666 15.9064H32.7074C32.5783 15.9064 32.4529 15.9491 32.3506 16.0278L27.4904 19.7611L28.2653 16.6333C28.2867 16.5469 28.2881 16.4569 28.2696 16.3699C28.251 16.283 28.2129 16.2014 28.1581 16.1313C28.1033 16.0613 28.0333 16.0046 27.9534 15.9656C27.8734 15.9267 27.7857 15.9064 27.6967 15.9064H23.4606C23.495 15.6784 23.5128 15.4522 23.5128 15.2292V14.9039C23.8075 14.9023 24.1289 14.8431 24.4185 14.664C24.6776 14.5038 25.0115 14.1806 25.1317 13.5474L25.4635 11.7215C25.5879 11.0367 25.3527 10.3562 24.8482 9.92154V4.77967C24.8482 4.63045 24.8409 4.4824 24.8265 4.33654H37.1666C38.0645 4.33654 38.7944 5.06686 38.7944 5.96436V14.2786Z" fill="white"/>
<path d="M16.0895 33.4051C17.3041 33.4051 18.2923 32.417 18.2923 31.2024C18.2923 29.9878 17.3041 28.9996 16.0895 28.9996C14.8748 28.9996 13.8867 29.9878 13.8867 31.2024C13.8867 32.417 14.8749 33.4051 16.0895 33.4051ZM16.0895 30.1715C16.658 30.1715 17.1204 30.6341 17.1204 31.2024C17.1204 31.7709 16.658 32.2332 16.0895 32.2332C15.5212 32.2332 15.0586 31.7709 15.0586 31.2024C15.0586 30.6341 15.5212 30.1715 16.0895 30.1715Z" fill="white"/>
</g>
<defs>
<clipPath id="clip0_1_6577">
<rect width="40" height="40" fill="white" transform="translate(0 0.251465)"/>
</clipPath>
</defs>
</svg>
