<svg width="40" height="40" viewBox="0 0 40 40" fill="none" xmlns="http://www.w3.org/2000/svg">
<path d="M34.9351 5.20175H34.4605C35.3652 3.72889 35.0311 1.7515 33.5792 0.67426C32.0148 -0.486343 29.7916 -0.112756 28.6999 1.51877L26.2354 5.20183H5.06416C3.32396 5.20183 1.9082 6.61758 1.9082 8.35778V28.535C1.9082 30.2752 3.32396 31.691 5.06416 31.691H17.3228L16.3966 35.5813H14.3975C13.0946 35.5813 12.0346 36.6412 12.0346 37.9441V38.4374H9.57024C9.13876 38.4374 8.78901 38.7873 8.78901 39.2187C8.78901 39.6501 9.13876 39.9999 9.57024 39.9999H30.4291C30.8606 39.9999 31.2104 39.6501 31.2104 39.2187C31.2104 38.7873 30.8606 38.4374 30.4291 38.4374H27.9647V37.9441C27.9647 36.6412 26.9047 35.5813 25.6019 35.5813H23.6028L22.6765 31.691H34.9352C36.6754 31.691 38.0912 30.2752 38.0912 28.535V8.3577C38.0912 6.6175 36.6754 5.20175 34.9351 5.20175ZM23.7414 18.9358C22.52 19.7908 20.2317 18.6286 18.0464 19.7947C17.5132 17.0248 17.8494 14.4198 20.6247 13.8448C20.9834 13.77 21.3695 13.7362 21.6983 13.7428L24.5245 15.8397C24.9346 17.0325 24.7806 18.2084 23.7414 18.9358ZM24.5288 10.5619L26.7402 12.2026L25.0395 14.2761L23.0374 12.7906L24.5288 10.5619ZM29.9985 2.38774C30.5902 1.50331 31.797 1.29753 32.6482 1.92916C33.4998 2.56086 33.6523 3.77537 32.9775 4.59809L27.7322 10.9932L25.3986 9.26183L29.9985 2.38774ZM26.4022 37.9441V38.4374H13.5971V37.9441C13.5971 37.5028 13.9562 37.1438 14.3975 37.1438H25.6018C26.0431 37.1438 26.4022 37.5028 26.4022 37.9441ZM21.9966 35.5813H18.0027L18.929 31.691H21.0703L21.9966 35.5813ZM36.5287 28.535C36.5287 29.4137 35.8139 30.1285 34.9352 30.1285H5.06424C4.18558 30.1285 3.47075 29.4137 3.47075 28.535V24.8765H5.70321C6.13468 24.8765 6.48444 24.5267 6.48444 24.0953C6.48444 23.6639 6.13468 23.3141 5.70321 23.3141H3.47059V8.3577C3.47059 7.47905 4.18542 6.76422 5.06408 6.76422H25.1899L21.5663 12.1793C20.0353 12.1931 18.5069 12.7264 17.5063 13.8945C16.1446 15.484 15.9054 17.9814 16.7953 21.3175C16.9474 21.8879 17.6591 22.0923 18.0898 21.6809C20.1099 19.7507 22.6258 21.8561 24.8788 20.0326C26.2541 18.9193 26.5795 17.1495 26.0609 15.4945L33.2216 6.76422H34.9351C35.8137 6.76422 36.5285 7.47905 36.5285 8.3577V23.314H11.9529C11.5215 23.314 11.1717 23.6638 11.1717 24.0952C11.1717 24.5266 11.5215 24.8764 11.9529 24.8764H36.5287V28.535Z" fill="white"/>
<path d="M8.67695 23.329C8.4997 23.3643 8.34017 23.46 8.22562 23.5998C8.11106 23.7395 8.04858 23.9148 8.04883 24.0955C8.04883 24.5842 8.49563 24.9584 8.98242 24.8611C9.18556 24.8206 9.36428 24.701 9.47929 24.5287C9.59429 24.3564 9.63617 24.1455 9.5957 23.9424C9.50875 23.515 9.09422 23.245 8.67695 23.329Z" fill="#030303"/>
</svg>
