<svg width="50" height="50" viewBox="0 0 50 50" fill="none" xmlns="http://www.w3.org/2000/svg">
<g clip-path="url(#clip0_1_4675)">
<mask id="mask0_1_4675" style="mask-type:luminance" maskUnits="userSpaceOnUse" x="0" y="0" width="50" height="50">
<path d="M50 0H0V50H50V0Z" fill="white"/>
</mask>
<g mask="url(#mask0_1_4675)">
<path fill-rule="evenodd" clip-rule="evenodd" d="M26.7433 21.9001C25.9788 23.2596 24.0213 23.2596 23.2568 21.9001L12.6172 2.98032C11.8674 1.64713 12.8309 1.99401e-06 14.3604 1.41829e-06L35.6395 0C37.1693 -1.33718e-07 38.1325 1.64712 37.3828 2.98032L26.7433 21.9001ZM21.9001 26.7432C23.2596 25.9788 23.2596 24.0213 21.9001 23.2567L2.98033 12.6171C1.64712 11.8674 9.97e-07 12.8308 9.3015e-07 14.3604L0 35.6395C-6.685e-08 37.1693 1.64713 38.1325 2.98033 37.3828L21.9001 26.7432ZM26.7433 28.1C25.9788 26.7402 24.0213 26.7405 23.2568 28.1L12.6172 47.0197C11.8674 48.353 12.8309 50 14.3604 50H35.6395C37.1693 50 38.1325 48.3527 37.3828 47.0197L26.7433 28.1ZM28.1 23.2568C26.7403 24.0213 26.7403 25.9788 28.1 26.7432L47.0198 37.3828C48.353 38.1325 50 37.1693 50 35.6395V14.3604C50 12.8309 48.3528 11.8674 47.0198 12.6172L28.1 23.2568Z" fill="#4A5FE1"/>
</g>
</g>
<defs>
<clipPath id="clip0_1_4675">
<rect width="50" height="50" fill="white"/>
</clipPath>
</defs>
</svg>
