<svg width="50" height="50" viewBox="0 0 50 50" fill="none" xmlns="http://www.w3.org/2000/svg">
<g clip-path="url(#clip0_1_4697)">
<mask id="mask0_1_4697" style="mask-type:luminance" maskUnits="userSpaceOnUse" x="0" y="0" width="50" height="50">
<path d="M0 0L0 50H50V0H0Z" fill="white"/>
</mask>
<g mask="url(#mask0_1_4697)">
<path fill-rule="evenodd" clip-rule="evenodd" d="M25 0C38.807 -6.03527e-07 50 11.1929 50 25C50 38.807 38.807 50 25 50C11.1929 50 6.03527e-07 38.807 0 25C-6.03529e-07 11.1929 11.1929 6.03527e-07 25 0ZM25 0C34.527 -4.16435e-07 42.25 7.72308 42.25 17.25C42.25 26.777 34.527 34.5 25 34.5C15.4731 34.5 7.75 26.777 7.75 17.25C7.75 7.72308 15.4731 4.16435e-07 25 0ZM33 17.25C33 12.8317 29.4183 9.25 25 9.25C20.5817 9.25 17 12.8317 17 17.25C17 21.6683 20.5817 25.25 25 25.25C29.4183 25.25 33 21.6683 33 17.25Z" fill="#4A5FE1"/>
</g>
</g>
<defs>
<clipPath id="clip0_1_4697">
<rect width="50" height="50" fill="white"/>
</clipPath>
</defs>
</svg>
