<svg width="40" height="40" viewBox="0 0 40 40" fill="none" xmlns="http://www.w3.org/2000/svg">
<path d="M3.3942 8.09444H6.58892C7.42137 8.09444 8.09835 7.41746 8.09835 6.58501V3.39859C8.09835 2.56614 7.42137 1.88916 6.58892 1.88916H3.3942C2.5625 1.88916 1.88477 2.56614 1.88477 3.39859V6.58501C1.88477 7.41746 2.5625 8.09444 3.3942 8.09444ZM3.3942 3.39859L6.58892 3.39784V6.58501H3.3942V3.39859ZM36.6063 31.9058H33.4108C32.5784 31.9058 31.9014 32.5827 31.9014 33.4152V36.6016C31.9014 37.4341 32.5784 38.111 33.4108 38.111H36.6063C37.438 38.111 38.1157 37.4341 38.1157 36.6016V33.4152C38.1157 32.5827 37.438 31.9058 36.6063 31.9058ZM36.6063 36.6016H33.4108V33.4152L36.6063 33.4144V36.6016ZM36.6063 1.88916H33.4108C32.5784 1.88916 31.9014 2.56614 31.9014 3.39859V6.58501C31.9014 7.41746 32.5784 8.09444 33.4108 8.09444H36.6063C37.438 8.09444 38.1157 7.41746 38.1157 6.58501V3.39859C38.1157 2.56614 37.438 1.88916 36.6063 1.88916ZM36.6063 6.58501H33.4108V3.39859H36.6063V6.58501ZM3.3942 38.111H6.58892C7.42137 38.111 8.09835 37.4341 8.09835 36.6016V33.4152C8.09835 32.5827 7.42137 31.9058 6.58892 31.9058H3.3942C2.5625 31.9058 1.88477 32.5827 1.88477 33.4152V36.6016C1.88477 37.4341 2.5625 38.111 3.3942 38.111ZM3.3942 33.4152H6.58892V36.6016H3.3942V33.4152ZM5.74892 26.1699H4.23948V27.6793H5.74892V26.1699ZM4.23948 30.5465H5.74892V29.0371H4.23948V30.5465ZM5.74892 8.96161H4.23948V10.471H5.74892V8.96161ZM5.74892 23.3012H4.23948V24.8107H5.74892V23.3012ZM5.74892 20.4333H4.23948V21.9427H5.74892V20.4333ZM5.74892 17.5654H4.23948V19.0748H5.74892V17.5654ZM5.74892 11.8303H4.23948V13.3397H5.74892V11.8303ZM5.74892 14.6975H4.23948V16.2069H5.74892V14.6975ZM35.7648 8.96161H34.2553V10.471H35.7648V8.96161ZM34.2553 16.2069H35.7648V14.6975H34.2553V16.2069ZM34.2553 21.9427H35.7648V20.4333H34.2553V21.9427ZM34.2553 27.6793H35.7648V26.1699H34.2553V27.6793ZM34.2553 30.5465H35.7648V29.0371H34.2553V30.5465ZM34.2553 19.0748H35.7648V17.5654H34.2553V19.0748ZM34.2553 24.8107H35.7648V23.3012H34.2553V24.8107ZM34.2553 13.3397H35.7648V11.8303H34.2553V13.3397ZM20.927 4.23784V5.74727H22.4365V4.23784H20.927ZM12.3225 4.23784V5.74727H13.8319V4.23784H12.3225ZM25.3036 4.23784H23.7942V5.74727H25.3036V4.23784ZM16.7006 4.23784H15.1912V5.74727H16.7006V4.23784ZM9.45458 4.23784V5.74727H10.964V4.23784H9.45458ZM18.0591 4.23784V5.74727H19.5685V4.23784H18.0591ZM28.1716 4.23784H26.6621V5.74727H28.1716V4.23784ZM31.0319 4.23784H29.5225V5.74727H31.0319V4.23784ZM20.927 34.2529V35.7624H22.4365V34.2529H20.927ZM10.964 35.7624V34.2529H9.45458V35.7624H10.964ZM26.6621 34.2529V35.7624H28.1716V34.2529H26.6621ZM31.0319 34.2529H29.5225V35.7624H31.0319V34.2529ZM15.1912 35.7624H16.7006V34.2529H15.1912V35.7624ZM13.8319 35.7624V34.2529H12.3225V35.7624H13.8319ZM25.3036 34.2529H23.7942V35.7624H25.3036V34.2529ZM19.5685 34.2529H18.0591V35.7624H19.5685V34.2529ZM17.0289 26.2243C17.1386 26.1566 17.2291 26.062 17.2919 25.9494C17.3546 25.8369 17.3875 25.7101 17.3874 25.5812V17.2605L24.2712 13.7895C24.396 13.7266 24.5009 13.6303 24.5741 13.5113C24.6474 13.3923 24.6862 13.2553 24.6862 13.1156C24.6862 12.9758 24.6474 12.8388 24.5741 12.7198C24.5009 12.6008 24.396 12.5045 24.2712 12.4416L16.9731 8.76237C16.8676 8.70922 16.7512 8.68153 16.6331 8.68153C16.515 8.68153 16.3985 8.70922 16.2931 8.76237L8.9942 12.4416C8.75646 12.5624 8.57911 12.8341 8.57911 13.1156V21.902C8.57911 22.0417 8.61792 22.1788 8.69121 22.2978C8.7645 22.4168 8.86939 22.5131 8.9942 22.576L16.2923 26.256C16.4074 26.3141 16.5355 26.3418 16.6643 26.3363C16.7931 26.3309 16.9184 26.2926 17.0282 26.225L17.0289 26.2243ZM16.6327 10.2809L22.2553 13.1148L16.6327 15.9495L11.01 13.1148L16.6327 10.2809ZM10.0893 21.4371V14.3397L15.878 17.259V24.3548L10.0893 21.4371Z" fill="white"/>
<path d="M29.6508 26.3683L30.5059 26.0302C30.6518 25.9726 30.7761 25.8709 30.8616 25.7394C30.947 25.6079 30.9894 25.453 30.9828 25.2962C30.9761 25.1395 30.9208 24.9888 30.8245 24.8649C30.7282 24.7411 30.5957 24.6503 30.4455 24.6053L27.9715 23.8604V15.5804C27.9715 15.4515 27.9385 15.3248 27.8757 15.2124C27.8129 15.0999 27.7223 15.0053 27.6126 14.9378C27.5029 14.8702 27.3777 14.8319 27.249 14.8264C27.1202 14.8209 26.9922 14.8484 26.8772 14.9064L19.5821 18.5872C19.4574 18.65 19.3526 18.7462 19.2793 18.865C19.206 18.9839 19.1671 19.1208 19.167 19.2604V28.043C19.1671 28.172 19.2002 28.2988 19.2631 28.4114C19.3261 28.5239 19.4168 28.6185 19.5267 28.686C19.6366 28.7536 19.7619 28.7919 19.8907 28.7973C20.0196 28.8028 20.1477 28.7751 20.2628 28.717L23.6847 26.9887L24.7013 30.3509C24.7466 30.5009 24.8373 30.6332 24.9611 30.7292C25.0848 30.8253 25.2354 30.8805 25.392 30.8871C25.5485 30.8938 25.7032 30.8515 25.8346 30.7663C25.9661 30.681 26.0677 30.557 26.1255 30.4113L26.4681 29.5494L28.0176 31.0981C28.0875 31.1684 28.1706 31.2243 28.2622 31.2623C28.3538 31.3004 28.452 31.32 28.5511 31.32C28.6503 31.32 28.7485 31.3004 28.8401 31.2623C28.9317 31.2243 29.0148 31.1684 29.0847 31.0981L31.1994 28.9842C31.3409 28.8426 31.4204 28.6507 31.4204 28.4506C31.4204 28.2504 31.3409 28.0585 31.1994 27.917L29.6508 26.3683ZM20.6772 26.8166V19.7253L26.4621 16.806V23.4053L24.6855 22.8702L23.567 22.5306C23.4355 22.4908 23.2958 22.4875 23.1626 22.521C23.0294 22.5545 22.9078 22.6236 22.8108 22.7208C22.7143 22.8173 22.6458 22.9382 22.6126 23.0705C22.5793 23.2029 22.5826 23.3418 22.6221 23.4725L23.241 25.5215L20.6772 26.8166ZM28.5511 29.4974L26.7247 27.6709C26.6412 27.5871 26.5391 27.5241 26.4267 27.4871C26.3143 27.45 26.1948 27.4398 26.0778 27.4575C25.9608 27.4751 25.8495 27.52 25.7531 27.5886C25.6566 27.6571 25.5776 27.7474 25.5225 27.8521L24.8787 25.7223C24.8764 25.7109 24.8787 25.6996 24.8749 25.6883L24.4802 24.3849L26.9247 25.126C26.9323 25.1283 26.9398 25.126 26.9474 25.1283L27.9413 25.4279C27.839 25.4846 27.7513 25.5642 27.6849 25.6605C27.6186 25.7569 27.5755 25.8672 27.5591 25.983C27.5426 26.0988 27.5532 26.2168 27.5901 26.3278C27.627 26.4388 27.6891 26.5397 27.7715 26.6226L29.5979 28.4506L28.5511 29.4974Z" fill="white"/>
</svg>
