<svg width="40" height="41" viewBox="0 0 40 41" fill="none" xmlns="http://www.w3.org/2000/svg">
<g clip-path="url(#clip0_1_6592)">
<path d="M18.3999 23.7657L16.0659 24.9797C14.6802 25.7005 12.8774 25.1436 12.1235 23.7353C11.3695 22.3269 11.9356 20.5379 13.3679 19.7929L15.702 18.5788L19.2806 13.4222L24.6765 23.7961L18.3999 23.7657ZM18.3999 23.7657L15.702 18.5788" stroke="white" stroke-width="1.4" stroke-miterlimit="22.9256"/>
<path d="M18.3986 23.7657L19.1279 27.3389L16.7938 28.553L16.0645 24.9798M25.6915 21.9493C27.9825 20.7576 28.8743 17.9324 27.6826 15.6414C26.4909 13.3504 23.6657 12.4586 21.3747 13.6503M24.6123 19.8745C25.7582 19.2785 26.204 17.8665 25.6079 16.7206C25.0119 15.5748 23.5998 15.1291 22.454 15.7251M19.6274 19.1709L19.0866 18.1312M20.709 21.2502L20.1682 20.2105" stroke="white" stroke-width="1.4" stroke-miterlimit="22.9256"/>
<path d="M11.2967 12.4041C9.4225 14.4815 8.28117 17.2329 8.28117 20.2514C8.28117 26.7239 13.5275 31.9701 19.9999 31.9701C26.4723 31.9701 31.7187 26.7238 31.7187 20.2514C31.7187 13.779 26.4723 8.53264 19.9999 8.53264C16.9815 8.53264 14.2299 9.67389 12.1527 11.5482M37.0162 36.4146C37.4337 35.8229 37.6573 35.1163 37.6562 34.3921C37.6563 32.4509 36.0818 30.8765 34.1406 30.8765C32.1995 30.8765 30.625 32.4509 30.625 34.3921C30.625 36.3333 32.1995 37.9077 34.1406 37.9077C34.8648 37.9088 35.5714 37.6852 36.1631 37.2676M20 36.1499C20.9708 36.1499 21.7578 36.9369 21.7578 37.9077C21.7578 38.8785 20.9708 39.6655 20 39.6655C19.0292 39.6655 18.2422 38.8785 18.2422 37.9077C18.2422 36.9369 19.0292 36.1499 20 36.1499ZM20 36.1499V33.728M20 4.35303C20.9708 4.35303 21.7578 3.566 21.7578 2.59521C21.7578 1.62443 20.9708 0.837402 20 0.837402C19.0292 0.837402 18.2422 1.62443 18.2422 2.59521C18.2422 3.566 19.0292 4.35303 20 4.35303ZM20 4.35303V6.7749M35.8984 20.2515C35.8984 19.2807 36.6855 18.4937 37.6562 18.4937C38.627 18.4937 39.4141 19.2807 39.4141 20.2515C39.4141 21.2222 38.627 22.0093 37.6562 22.0093C36.6855 22.0093 35.8984 21.2222 35.8984 20.2515ZM35.8984 20.2515H33.4766M4.10156 20.2515C4.10156 19.2807 3.31453 18.4937 2.34375 18.4937C1.37297 18.4937 0.585938 19.2807 0.585938 20.2515C0.585938 21.2222 1.37297 22.0093 2.34375 22.0093C3.31453 22.0093 4.10156 21.2222 4.10156 20.2515ZM4.10156 20.2515H6.52344M31.6548 31.9063L29.5293 29.7807M10.4707 10.7222L8.34508 8.59662M8.34516 31.9063L10.4708 29.7807M29.5293 10.7222L31.6548 8.59662M34.1406 2.59521C36.0818 2.59521 37.6562 4.16967 37.6562 6.11084C37.6562 8.05201 36.0818 9.62646 34.1406 9.62646C32.1995 9.62646 30.625 8.05201 30.625 6.11084C30.625 4.16959 32.1995 2.59521 34.1406 2.59521ZM5.85938 2.59521C3.9182 2.59521 2.34375 4.16967 2.34375 6.11084C2.34375 8.05201 3.9182 9.62646 5.85938 9.62646C7.80055 9.62646 9.375 8.05201 9.375 6.11084C9.375 4.16959 7.80055 2.59521 5.85938 2.59521ZM5.85938 37.9077C3.9182 37.9077 2.34375 36.3333 2.34375 34.3921C2.34375 32.4509 3.9182 30.8765 5.85938 30.8765C7.80055 30.8765 9.375 32.4509 9.375 34.3921C9.375 36.3333 7.80055 37.9077 5.85938 37.9077Z" stroke="white" stroke-width="1.4" stroke-miterlimit="22.9256"/>
</g>
<defs>
<clipPath id="clip0_1_6592">
<rect width="40" height="40" fill="white" transform="translate(0 0.251465)"/>
</clipPath>
</defs>
</svg>
