<svg width="41" height="36" viewBox="0 0 41 36" fill="none" xmlns="http://www.w3.org/2000/svg">
<g clip-path="url(#clip0_1_6254)">
<path d="M0 18.3168C0.0061459 32.3079 15.095 41.546 23.3339 32.2448C26.9149 28.2296 26.8214 21.8771 24.9278 16.6652C26.1439 15.8626 27.3414 15.0311 28.519 14.1713C29.794 14.4576 34.7257 15.9955 35.9317 16.0918C37.294 14.5921 39.0572 13.0522 40.7582 11.965C40.8545 11.3757 40.7951 10.9722 40.8115 10.5222C41.2035 10.1339 40.9276 9.60626 40.5001 9.59586C39.2504 9.56812 38.4132 9.14518 37.5255 8.69659C36.7969 8.32772 36.0464 7.95124 35.0651 7.77582C35.9419 5.72351 35.0009 4.45884 35.1655 1.90316C35.0132 1.40742 34.8541 1.1592 34.6997 0.720307C34.852 0.153842 34.3378 -0.135978 33.9766 0.0623195L27.1765 3.81749C27.1027 3.85792 27.0399 3.91611 26.9935 3.98695C26.947 4.05779 26.9184 4.13912 26.9102 4.2238C26.6828 6.62139 26.6179 8.23967 26.3912 10.6373C26.3868 10.6965 26.3926 10.7561 26.4082 10.8134C25.4829 11.3771 24.3623 12.0406 23.0335 12.8109C19.2298 6.66785 12.931 3.68714 8.05113 5.72351C8.0682 5.71449 8.08391 5.70271 8.10098 5.69439C2.84487 6.90775 -0.000682977 12.9108 0.00136566 18.3168H0ZM18.1564 28.7191C14.3322 30.5253 9.88739 26.9372 7.99377 22.7535C5.77715 17.8613 6.73795 12.5779 10.1332 10.9763C13.0081 9.61805 16.7592 11.3084 19.2155 14.997L17.0747 16.2215C15.6003 14.5824 13.6446 13.9577 12.0849 14.6927C9.96387 15.6911 9.30352 18.8458 10.6133 21.7267C11.8097 24.3565 14.559 26.2154 16.8445 25.1497H16.8452C18.213 24.5077 19.2742 22.7466 18.9321 20.2401C19.6453 19.8635 20.3513 19.4728 21.0497 19.0684C22.1908 23.3359 20.9855 27.3816 18.1557 28.7198L18.1564 28.7191ZM15.5785 17.5111C15.6591 17.8737 15.7881 18.2891 15.935 18.7002C15.7185 18.7529 15.0199 19.1807 14.436 19.4768C14.3145 19.5385 14.2221 19.6468 14.1792 19.7778C14.1363 19.9087 14.1464 20.0516 14.2073 20.175C14.2681 20.2984 14.3748 20.3921 14.5037 20.4357C14.6327 20.4793 14.7734 20.469 14.8949 20.4072C15.3668 20.1561 15.8369 19.9014 16.3051 19.6432C16.3938 19.8484 16.4813 20.0391 16.5632 20.2027C16.7175 20.5175 17.1867 20.4683 17.2631 20.4267L17.6114 20.2374L17.9126 20.3303C18.1331 21.8487 17.7425 23.5807 16.4171 24.204C14.8048 24.9591 12.6175 23.65 11.544 21.2899C10.4706 18.929 10.9069 16.3927 12.5165 15.6356C13.7593 15.0511 15.1995 15.7431 16.1705 16.7429L15.8223 16.946C15.7301 17.0041 15.6574 17.0892 15.6139 17.1901C15.5704 17.291 15.558 17.4029 15.5785 17.5111ZM27.9044 4.59751L29.6164 3.65248C29.5032 4.24644 29.4474 4.85021 29.4498 5.45518C29.4546 6.14853 30.4789 6.13952 30.4741 5.44825C30.4673 4.61623 30.5868 3.78768 30.8258 2.98548C31.7695 2.46338 32.8812 1.84839 33.5191 1.49755C33.2957 3.75925 34.2333 5.75263 33.6782 7.89438C33.4084 8.27018 33.6898 8.7056 34.0688 8.716C35.3355 8.74997 36.1775 9.17569 37.0693 9.62637C37.7474 9.97027 38.4433 10.3211 39.3256 10.5055C38.6461 11.1226 37.8635 11.7792 37.1117 12.4095C36.859 12.2798 35.9207 12.3048 33.6406 11.7258C32.9898 11.5553 32.7296 12.5662 33.392 12.7346C34.2784 12.96 35.186 13.1305 36.0955 13.2706C35.5378 13.7431 34.994 14.2324 34.4648 14.7377C32.6552 14.3356 31.269 13.7906 29.4634 13.3275C29.6908 13.1888 29.9087 13.0571 30.1115 12.9357C30.6954 12.5856 30.1757 11.6918 29.5911 12.0392C24.6696 14.9859 17.4803 19.1287 17.2543 19.2514C17.0279 18.7302 16.8334 18.1953 16.6718 17.6498C19.5453 16.0045 26.1399 12.293 28.8748 10.4827C28.9331 10.4463 28.9837 10.3985 29.0235 10.3419C29.0633 10.2854 29.0916 10.2214 29.1066 10.1536C29.1217 10.0858 29.1231 10.0156 29.111 9.94721C29.0989 9.87882 29.0734 9.81359 29.036 9.75538C28.9986 9.69717 28.9501 9.64716 28.8933 9.6083C28.8366 9.56944 28.7728 9.54252 28.7056 9.52914C28.6384 9.51575 28.5693 9.51617 28.5023 9.53037C28.4353 9.54457 28.3718 9.57226 28.3155 9.6118C28.0642 9.77821 27.776 9.96333 27.4619 10.1595C27.6449 8.10932 27.7166 6.63942 27.9044 4.59751ZM22.1505 13.3198L20.1101 14.4867C17.3697 10.3211 13.0587 8.44767 9.70164 10.0334C5.79558 11.8763 4.61216 17.7781 7.06164 23.1896C9.197 27.9044 14.2161 31.7282 18.5879 29.6621C22.4489 27.8372 23.17 22.8298 21.9668 18.531C22.6681 18.1143 23.3606 17.6852 24.0455 17.2442C26.0224 22.7189 25.4502 28.3225 22.5595 31.5618C18.4152 36.2502 9.45922 34.3886 4.86619 24.4675C1.55423 17.1402 3.02242 9.2159 8.14058 6.80236C13.0976 4.46092 18.9806 8.22164 22.1512 13.3191L22.1505 13.3198ZM9.14578 1.56758C9.08782 1.60233 9.03717 1.64834 8.99673 1.70298C8.95629 1.75762 8.92686 1.81982 8.91012 1.88601C8.89337 1.95221 8.88965 2.02111 8.89915 2.08878C8.90865 2.15644 8.9312 2.22153 8.9655 2.28034L10.1141 4.24945C10.1848 4.36483 10.2971 4.44755 10.4271 4.47988C10.5571 4.51222 10.6944 4.49162 10.8096 4.42249C10.9248 4.35335 11.0088 4.24118 11.0436 4.10997C11.0783 3.97876 11.0612 3.83893 10.9957 3.72042L9.84778 1.75062C9.81355 1.69177 9.76824 1.64034 9.71442 1.59929C9.66061 1.55823 9.59935 1.52835 9.53415 1.51135C9.46895 1.49435 9.40109 1.49056 9.33445 1.50021C9.26781 1.50986 9.2037 1.53275 9.14578 1.56758Z" fill="white"/>
<path d="M12.1181 0.659326L11.7726 3.7787C11.763 3.84751 11.7672 3.91755 11.7848 3.9847C11.8024 4.05185 11.833 4.11474 11.875 4.16966C11.9169 4.22457 11.9692 4.27039 12.0289 4.30442C12.0886 4.33845 12.1544 4.36 12.2224 4.36778C12.2904 4.37557 12.3592 4.36943 12.4248 4.34975C12.4905 4.33006 12.5515 4.29722 12.6045 4.25317C12.6574 4.20911 12.7011 4.15474 12.7329 4.09325C12.7648 4.03176 12.7842 3.96441 12.79 3.89518L13.1356 0.775115C13.1506 0.638348 13.1115 0.501129 13.0271 0.393522C12.9426 0.285914 12.8195 0.216693 12.6849 0.201023C12.5502 0.186908 12.4155 0.226905 12.3096 0.312445C12.2036 0.397984 12.1349 0.52295 12.1181 0.659326ZM14.7362 1.76383L13.5412 4.01721C13.5078 4.07746 13.4866 4.14388 13.4787 4.21256C13.4709 4.28125 13.4767 4.35083 13.4957 4.41723C13.5146 4.48364 13.5465 4.54553 13.5893 4.5993C13.6321 4.65306 13.6851 4.69761 13.745 4.73034C13.805 4.76308 13.8708 4.78334 13.9386 4.78994C14.0064 4.79654 14.0748 4.78934 14.1398 4.76878C14.2049 4.74821 14.2652 4.71469 14.3173 4.67017C14.3694 4.62565 14.4122 4.57102 14.4433 4.50949L15.6383 2.25611C15.6734 2.1958 15.696 2.12893 15.705 2.05951C15.714 1.99009 15.709 1.91955 15.6905 1.85211C15.672 1.78467 15.6402 1.72173 15.5971 1.66706C15.554 1.61238 15.5005 1.56711 15.4398 1.53394C15.3791 1.50077 15.3124 1.4804 15.2437 1.47404C15.175 1.46769 15.1058 1.47547 15.0402 1.49694C14.9745 1.51841 14.9138 1.55311 14.8617 1.59897C14.8096 1.64484 14.7672 1.70091 14.7369 1.76383H14.7362Z" fill="white"/>
</g>
<defs>
<clipPath id="clip0_1_6254">
<rect width="41" height="36" fill="white"/>
</clipPath>
</defs>
</svg>
