<svg width="89" height="31" viewBox="0 0 89 31" fill="none" xmlns="http://www.w3.org/2000/svg">
<g clip-path="url(#clip0_1_6838)">
<path d="M16.5609 16.9917C19.3581 18.3512 22.2463 19.0284 24.6867 18.895C24.7015 18.895 24.7162 18.8925 24.731 18.8925L24.9057 0.805499C24.913 0.166773 24.2267 -0.218002 23.7199 0.138556L9.12891 10.4018C10.3098 12.7489 13.0405 15.2782 16.5609 16.9917Z" fill="#FD6219"/>
<path d="M24.0791 20.629C21.5329 20.629 18.6472 19.9005 15.8648 18.5487C12.027 16.6838 9.14125 14.0212 7.75375 11.3662L0.336477 16.5863C-0.244112 16.9942 -0.0325412 17.933 0.658753 18.0305L13.1168 19.7979C13.8499 19.9031 14.5215 20.2802 15.0086 20.8599L23.287 30.7281C23.747 31.277 24.613 30.9435 24.6203 30.2125L24.7138 20.6111C24.5047 20.6239 24.2931 20.629 24.0791 20.629Z" fill="#FD6219"/>
<path d="M24.0792 19.2594C21.5329 19.2594 18.6472 18.5308 15.8648 17.179C9.3209 13.9982 5.53723 8.50363 7.25194 4.66871C8.96664 0.836353 15.4368 0.325885 21.9807 3.50925C24.121 4.55071 26.062 5.89999 27.5922 7.41343C27.9219 7.73921 27.9366 8.28559 27.6242 8.62932C27.3093 8.97305 26.7878 8.98844 26.4581 8.66267C25.0558 7.27491 23.2673 6.03337 21.2845 5.06887C15.7664 2.38571 10.0245 2.53706 8.74523 5.39721C7.46597 8.25737 11.0454 12.9388 16.561 15.622C19.3582 16.9815 22.2439 17.6587 24.6868 17.5253C26.9428 17.4022 28.5074 16.6095 29.0978 15.2936C29.7104 13.9213 29.1175 12.3565 28.5123 11.2817C28.2811 10.8713 28.4114 10.3454 28.8051 10.1043C29.1987 9.86316 29.703 9.99912 29.9343 10.4095C31.0758 12.4283 31.3095 14.4215 30.5936 16.0196C29.735 17.9383 27.6685 19.0824 24.7754 19.2414C24.5441 19.2542 24.3129 19.2594 24.0792 19.2594Z" fill="#FD6219"/>
</g>
<path d="M49.91 26.39C47.69 26.39 45.86 25.81 44.42 24.65C43 23.49 42.14 21.95 41.84 20.03L45.62 19.1C45.84 20.38 46.34 21.34 47.12 21.98C47.92 22.62 48.9 22.94 50.06 22.94C50.68 22.94 51.23 22.84 51.71 22.64C52.21 22.42 52.6 22.11 52.88 21.71C53.18 21.29 53.33 20.8 53.33 20.24C53.33 19.72 53.18 19.27 52.88 18.89C52.58 18.51 52.12 18.16 51.5 17.84C50.9 17.52 50.14 17.19 49.22 16.85C47.9 16.33 46.79 15.78 45.89 15.2C45.01 14.6 44.35 13.91 43.91 13.13C43.47 12.35 43.25 11.43 43.25 10.37C43.25 9.25 43.52 8.26 44.06 7.4C44.62 6.54 45.39 5.86 46.37 5.36C47.37 4.86 48.53 4.61 49.85 4.61C51.25 4.61 52.49 4.94 53.57 5.6C54.67 6.24 55.55 7.2 56.21 8.48L53.12 10.37C52.7 9.61 52.2 9.04 51.62 8.66C51.06 8.26 50.43 8.06 49.73 8.06C49.23 8.06 48.78 8.16 48.38 8.36C48 8.54 47.69 8.8 47.45 9.14C47.23 9.46 47.12 9.84 47.12 10.28C47.12 10.74 47.25 11.15 47.51 11.51C47.79 11.87 48.23 12.22 48.83 12.56C49.45 12.88 50.25 13.22 51.23 13.58C52.53 14.06 53.61 14.59 54.47 15.17C55.35 15.75 56.02 16.43 56.48 17.21C56.94 17.97 57.17 18.9 57.17 20C57.17 21.24 56.86 22.35 56.24 23.33C55.64 24.29 54.8 25.04 53.72 25.58C52.64 26.12 51.37 26.39 49.91 26.39ZM64.9641 26.3C64.1641 26.3 63.4241 26.15 62.7441 25.85C62.0641 25.55 61.5141 25.06 61.0941 24.38C60.6941 23.7 60.4941 22.79 60.4941 21.65V7.76L64.2741 5.75V20.63C64.2741 21.49 64.3841 22.14 64.6041 22.58C64.8441 23.02 65.3041 23.24 65.9841 23.24C66.1841 23.24 66.4041 23.22 66.6441 23.18C66.9041 23.14 67.1841 23.08 67.4841 23V25.85C67.0641 26.01 66.6441 26.12 66.2241 26.18C65.8041 26.26 65.3841 26.3 64.9641 26.3ZM57.7941 14.12V11.21H67.4841V14.12H57.7941ZM70.3098 26V11.21H74.0298V26H70.3098ZM70.1898 8.93V5.09H74.1798V8.93H70.1898ZM77.6933 26V11.21H81.4433V15.23L80.8733 15.29C80.9333 14.43 81.1933 13.67 81.6533 13.01C82.1133 12.35 82.6733 11.84 83.3333 11.48C84.0133 11.1 84.7033 10.91 85.4033 10.91C85.9033 10.91 86.3733 10.98 86.8133 11.12C87.2733 11.24 87.7433 11.45 88.2233 11.75L86.4233 15.11C86.2033 14.99 85.9233 14.88 85.5833 14.78C85.2433 14.68 84.9033 14.63 84.5633 14.63C84.1633 14.63 83.7733 14.7 83.3933 14.84C83.0333 14.98 82.7033 15.2 82.4033 15.5C82.1233 15.8 81.8933 16.2 81.7133 16.7C81.6333 16.98 81.5633 17.34 81.5033 17.78C81.4633 18.2 81.4433 18.82 81.4433 19.64V26H77.6933Z" fill="white"/>
<defs>
<clipPath id="clip0_1_6838">
<rect width="31" height="31" fill="white"/>
</clipPath>
</defs>
</svg>
