<svg width="104" height="39" viewBox="0 0 104 39" fill="none" xmlns="http://www.w3.org/2000/svg">
<g clip-path="url(#clip0_1_6297)">
<path d="M21.369 21.3766C24.9782 23.0869 28.7049 23.9389 31.8539 23.7711C31.8729 23.7711 31.892 23.7679 31.911 23.7679L32.1364 1.01329C32.1459 0.209732 31.2603 -0.274339 30.6064 0.174234L11.7793 13.086C13.303 16.0389 16.8265 19.2208 21.369 21.3766Z" fill="#DCFD68"/>
<path d="M31.0698 25.9525C27.7844 25.9525 24.0609 25.036 20.4707 23.3353C15.5187 20.9892 11.7952 17.6394 10.0048 14.2993L0.434164 20.8665C-0.314983 21.3797 -0.0419886 22.5608 0.850004 22.6834L16.9249 24.9069C17.8709 25.0392 18.7375 25.5136 19.366 26.243L30.0477 38.6578C30.6413 39.3484 31.7587 38.9289 31.7682 38.0091L31.8888 25.9299C31.619 25.9461 31.346 25.9525 31.0698 25.9525Z" fill="#DCFD68"/>
<path d="M31.0705 24.2293C27.785 24.2293 24.0615 23.3128 20.4713 21.6121C12.0275 17.6104 7.14538 10.6979 9.35791 5.87331C11.5704 1.05196 19.919 0.409756 28.3627 4.41464C31.1244 5.72486 33.629 7.42233 35.6034 9.32635C36.0288 9.73619 36.0479 10.4236 35.6447 10.856C35.2384 11.2884 34.5654 11.3078 34.1401 10.898C32.3307 9.15208 30.0229 7.59015 27.4644 6.37674C20.3443 3.00115 12.9354 3.19155 11.2847 6.78981C9.63407 10.3881 14.2528 16.2776 21.3697 19.6532C24.9789 21.3636 28.7024 22.2155 31.8545 22.0477C34.7654 21.8928 36.7843 20.8956 37.5461 19.2401C38.3366 17.5136 37.5715 15.545 36.7906 14.1929C36.4923 13.6765 36.6605 13.015 37.1684 12.7116C37.6763 12.4083 38.327 12.5793 38.6254 13.0956C40.0983 15.6354 40.3999 18.1429 39.4762 20.1534C38.3683 22.5673 35.7018 24.0066 31.9688 24.2067C31.6704 24.2228 31.372 24.2293 31.0705 24.2293Z" fill="#DCFD68"/>
</g>
<path d="M51.02 22.96H55.07C55.15 23.64 55.46 24.26 56 24.82C56.56 25.36 57.29 25.79 58.19 26.11C59.09 26.41 60.1 26.56 61.22 26.56C62.24 26.56 63.08 26.45 63.74 26.23C64.4 26.01 64.89 25.7 65.21 25.3C65.53 24.9 65.69 24.42 65.69 23.86C65.69 23.32 65.49 22.91 65.09 22.63C64.69 22.33 64.06 22.09 63.2 21.91C62.34 21.71 61.21 21.51 59.81 21.31C58.71 21.15 57.67 20.93 56.69 20.65C55.71 20.35 54.84 19.97 54.08 19.51C53.34 19.05 52.75 18.49 52.31 17.83C51.89 17.15 51.68 16.35 51.68 15.43C51.68 14.29 52 13.29 52.64 12.43C53.3 11.57 54.27 10.9 55.55 10.42C56.83 9.94 58.4 9.7 60.26 9.7C63.06 9.7 65.21 10.3 66.71 11.5C68.23 12.68 68.97 14.31 68.93 16.39H65.03C64.95 15.21 64.45 14.36 63.53 13.84C62.63 13.32 61.49 13.06 60.11 13.06C58.83 13.06 57.77 13.25 56.93 13.63C56.11 14.01 55.7 14.66 55.7 15.58C55.7 15.94 55.8 16.26 56 16.54C56.2 16.8 56.54 17.03 57.02 17.23C57.5 17.43 58.15 17.62 58.97 17.8C59.79 17.98 60.81 18.16 62.03 18.34C63.17 18.5 64.2 18.72 65.12 19C66.06 19.26 66.86 19.61 67.52 20.05C68.2 20.47 68.72 21.01 69.08 21.67C69.44 22.33 69.62 23.14 69.62 24.1C69.62 25.28 69.31 26.31 68.69 27.19C68.09 28.05 67.15 28.72 65.87 29.2C64.61 29.68 62.97 29.92 60.95 29.92C59.51 29.92 58.24 29.77 57.14 29.47C56.04 29.15 55.09 28.73 54.29 28.21C53.49 27.69 52.84 27.12 52.34 26.5C51.84 25.88 51.48 25.26 51.26 24.64C51.06 24.02 50.98 23.46 51.02 22.96ZM71.5801 14.59H83.1601V17.62H71.5801V14.59ZM75.4201 10.51H79.3201V29.5H75.4201V10.51ZM90.1079 8.05V11.47H85.5779V8.05H90.1079ZM85.8779 14.59H89.7779V29.5H85.8779V14.59ZM93.6652 14.59H97.5652V29.5H93.6652V14.59ZM103.295 17.8C102.175 17.8 101.205 18.02 100.385 18.46C99.5652 18.88 98.9052 19.4 98.4052 20.02C97.9052 20.64 97.5552 21.24 97.3552 21.82L97.3252 20.17C97.3452 19.93 97.4252 19.58 97.5652 19.12C97.7052 18.64 97.9152 18.13 98.1952 17.59C98.4752 17.03 98.8452 16.5 99.3052 16C99.7652 15.48 100.325 15.06 100.985 14.74C101.645 14.42 102.415 14.26 103.295 14.26V17.8Z" fill="white"/>
<defs>
<clipPath id="clip0_1_6297">
<rect width="40" height="39" fill="white"/>
</clipPath>
</defs>
</svg>
